<?xml version="1.0" encoding="UTF-8"?>
<svg version="1.1" xmlns="http://www.w3.org/2000/svg" width="1087" height="608">
<path d="M0 0 C5.09165605 0.73560357 10.14906182 1.21180519 15.28515625 1.51953125 C17.234375 1.73046875 17.234375 1.73046875 18.234375 2.73046875 C20.35549542 2.9408278 22.48190919 3.09896976 24.609375 3.23046875 C28.08530408 3.44626922 30.9270226 3.62801795 34.234375 4.73046875 C34.234375 5.39046875 34.234375 6.05046875 34.234375 6.73046875 C35.19859375 6.92382812 36.1628125 7.1171875 37.15625 7.31640625 C38.41953125 7.57679687 39.6828125 7.8371875 40.984375 8.10546875 C42.23734375 8.36070313 43.4903125 8.6159375 44.78125 8.87890625 C47.6091038 9.57627291 49.79481266 10.17909658 52.234375 11.73046875 C52.564375 12.39046875 52.894375 13.05046875 53.234375 13.73046875 C55.64254512 14.53545738 55.64254512 14.53545738 58.484375 15.16796875 C62.48807016 16.19882914 65.93777335 17.11592261 69.234375 19.73046875 C69.234375 20.39046875 69.234375 21.05046875 69.234375 21.73046875 C69.9975 22.01921875 70.760625 22.30796875 71.546875 22.60546875 C74.234375 23.73046875 74.234375 23.73046875 77.234375 25.73046875 C78.306875 25.91609375 79.379375 26.10171875 80.484375 26.29296875 C85.05300408 27.48562139 86.90215243 30.78633592 89.53515625 34.484375 C91.07222649 36.51613451 92.48303905 37.93375726 94.484375 39.48046875 C97.26209663 41.75315009 98.55229511 43.6066061 100.234375 46.73046875 C100.69328125 47.31054688 101.1521875 47.890625 101.625 48.48828125 C106.2939514 54.99308247 109.30042717 62.99467742 111.234375 70.73046875 C111.564375 71.06046875 111.894375 71.39046875 112.234375 71.73046875 C112.83629996 80.60886196 111.04097661 89.31066391 108.234375 97.73046875 C107.574375 97.73046875 106.914375 97.73046875 106.234375 97.73046875 C106.193125 98.51421875 106.151875 99.29796875 106.109375 100.10546875 C104.39633241 107.20235946 99.98703939 114.21051815 94.234375 118.73046875 C87.52067818 122.14620924 81.65793066 122.08514974 74.234375 121.73046875 C73.1525293 121.6833374 73.1525293 121.6833374 72.04882812 121.63525391 C69.71423063 121.53104828 67.38059334 121.41524258 65.046875 121.29296875 C64.29156494 121.25397461 63.53625488 121.21498047 62.75805664 121.17480469 C57.35400957 120.85010332 57.35400957 120.85010332 56.234375 119.73046875 C54.11150995 119.48230284 51.98590571 119.25746697 49.859375 119.04296875 C43.5985588 118.19759966 39.15798964 116.5117518 33.7890625 113.26171875 C30.09631462 111.04832858 26.19786822 109.39415726 22.234375 107.73046875 C22.234375 107.07046875 22.234375 106.41046875 22.234375 105.73046875 C21.54988281 105.65699219 20.86539063 105.58351563 20.16015625 105.5078125 C16.38203487 104.50401256 13.56163462 102.52965369 10.421875 100.29296875 C9.82439453 99.88498047 9.22691406 99.47699219 8.61132812 99.05664062 C7.11052262 98.00521917 5.66671577 96.87340538 4.234375 95.73046875 C4.234375 95.07046875 4.234375 94.41046875 4.234375 93.73046875 C3.1825 93.35921875 3.1825 93.35921875 2.109375 92.98046875 C-0.765625 91.73046875 -0.765625 91.73046875 -3.453125 89.85546875 C-16.20684219 81.67383886 -32.85684272 79.25728084 -47.765625 78.73046875 C-47.765625 78.07046875 -47.765625 77.41046875 -47.765625 76.73046875 C-48.74402344 76.75367187 -49.72242188 76.776875 -50.73046875 76.80078125 C-58.02448728 76.90119055 -64.71229713 76.74570528 -71.765625 74.73046875 C-73.22373456 74.39615792 -74.68206284 74.06279937 -76.140625 73.73046875 C-79.765625 72.73046875 -79.765625 72.73046875 -82.765625 70.73046875 C-82.765625 70.07046875 -82.765625 69.41046875 -82.765625 68.73046875 C-83.755625 68.40046875 -84.745625 68.07046875 -85.765625 67.73046875 C-87.1171875 66.3125 -87.1171875 66.3125 -88.390625 64.54296875 C-88.81601562 63.97191406 -89.24140625 63.40085937 -89.6796875 62.8125 C-93.22136263 56.02216602 -92.89949777 45.79817375 -90.89453125 38.60546875 C-87.17181575 29.23154906 -82.65722003 19.94944844 -73.765625 14.73046875 C-72.89835625 13.71688165 -72.06560784 12.67296177 -71.265625 11.60546875 C-68.43599955 8.35139948 -66.82320028 7.88977597 -62.765625 6.73046875 C-61.87875 6.09109375 -60.991875 5.45171875 -60.078125 4.79296875 C-43.12771183 -5.76106209 -18.66187453 -2.72836315 0 0 Z M-41.703125 10.04296875 C-42.79947266 10.25630859 -43.89582031 10.46964844 -45.02539062 10.68945312 C-52.92344774 12.30179263 -58.0274894 15.10141581 -64.578125 19.79296875 C-65.55394531 20.48519531 -66.52976562 21.17742188 -67.53515625 21.890625 C-68.27121094 22.49777344 -69.00726562 23.10492188 -69.765625 23.73046875 C-69.765625 24.39046875 -69.765625 25.05046875 -69.765625 25.73046875 C-70.755625 26.06046875 -71.745625 26.39046875 -72.765625 26.73046875 C-80.0711356 38.4702446 -80.0711356 38.4702446 -81.765625 51.73046875 C-80.45587322 56.22011539 -79.11021137 60.38588238 -75.765625 63.73046875 C-73.35910813 64.32393777 -71.01548159 64.81097289 -68.578125 65.23046875 C-67.50824341 65.42165283 -67.50824341 65.42165283 -66.41674805 65.61669922 C-55.72028112 67.48772564 -45.02153328 68.83808492 -34.1796875 69.484375 C-31.765625 69.73046875 -31.765625 69.73046875 -30.765625 70.73046875 C-27.52020786 71.14654787 -24.27690545 71.49874628 -21.01953125 71.8046875 C-16.05926216 72.34764831 -12.28015666 73.60056366 -7.765625 75.73046875 C-6.29129568 76.30552818 -4.81306307 76.8708863 -3.328125 77.41796875 C-2.1525 77.85109375 -0.976875 78.28421875 0.234375 78.73046875 C2.26905776 76.69578599 1.55576016 72.54233875 1.671875 69.73046875 C1.9830596 63.50612971 2.55405237 57.75986172 4.234375 51.73046875 C4.523125 50.63734375 4.811875 49.54421875 5.109375 48.41796875 C6.37395664 45.39702372 7.93761223 44.02723152 10.234375 41.73046875 C11.26539447 39.41067494 12.26374017 37.0761696 13.234375 34.73046875 C15.76866414 30.33770091 17.83202056 28.17622122 22.234375 25.73046875 C22.234375 25.07046875 22.234375 24.41046875 22.234375 23.73046875 C22.79125 23.64796875 23.348125 23.56546875 23.921875 23.48046875 C27.76605337 22.2337082 30.41700707 19.54783668 33.234375 16.73046875 C22.99512685 13.17517426 13.16396429 11.22158467 2.42822266 9.98925781 C0.2295958 9.72990499 -1.96509403 9.44801727 -4.16015625 9.16015625 C-5.61196729 8.97516717 -7.06378988 8.79026876 -8.515625 8.60546875 C-10.45695313 8.35410156 -10.45695313 8.35410156 -12.4375 8.09765625 C-22.51387304 7.10164507 -31.81805069 7.96346849 -41.703125 10.04296875 Z " fill="#FEFEFE" transform="translate(634.765625,27.26953125)"/>
<path d="M0 0 C0.928125 0.268125 1.85625 0.53625 2.8125 0.8125 C7.52922166 2.56971003 11.92633132 5.03733187 16 8 C16 8.66 16 9.32 16 10 C16.556875 10.061875 17.11375 10.12375 17.6875 10.1875 C24.47880777 12.57363516 29.00163165 20.94361051 32.046875 27.125 C34.75794626 34.08171117 35.30868817 42.09447706 33.37890625 49.328125 C30.48042287 55.87225635 25.14847447 61.39489537 18.8125 64.625 C12.55584141 65.24040904 6.21578301 64.17983605 0.16455078 62.48632812 C-14.70327593 59.14584642 -34.26695016 59.1860217 -48.078125 66.06640625 C-50 67 -50 67 -53.1875 67.9375 C-56.79782405 69.3014002 -59.10488753 71.47447635 -62 74 C-64.29098756 75.44693951 -66.62368105 76.78813539 -68.984375 78.1171875 C-73.23555651 80.61514452 -75.73580277 82.47160554 -78 87 C-78.99 87.495 -78.99 87.495 -80 88 C-80.45375 89.155 -80.9075 90.31 -81.375 91.5 C-81.91125 92.655 -82.4475 93.81 -83 95 C-85.0625 95.625 -85.0625 95.625 -87 96 C-87.67865027 97.6618231 -88.3431222 99.32945106 -89 101 C-93.48271801 107.69584832 -98.19120883 113.36439684 -106 116 C-108.38696878 116.30808239 -110.78568813 116.53311589 -113.1875 116.6875 C-114.41855469 116.77386719 -115.64960938 116.86023438 -116.91796875 116.94921875 C-120 117 -120 117 -122 116 C-124.54197964 115.6087065 -127.07391589 115.25520881 -129.625 114.9375 C-130.33140625 114.84662109 -131.0378125 114.75574219 -131.765625 114.66210938 C-133.5100041 114.43816881 -135.25495134 114.21866182 -137 114 C-137 113.34 -137 112.68 -137 112 C-137.66 112 -138.32 112 -139 112 C-140.1686593 110.90008536 -141.32720591 109.78753289 -142.43359375 108.625 C-143.60550223 107.40925454 -144.81214582 106.22682471 -146.03515625 105.0625 C-146.74542969 104.381875 -147.45570313 103.70125 -148.1875 103 C-148.86167969 102.360625 -149.53585937 101.72125 -150.23046875 101.0625 C-152.22404635 98.73885989 -153.01571924 96.89494341 -154 94 C-154.43699219 92.80890625 -154.87398438 91.6178125 -155.32421875 90.390625 C-160.95858167 73.78408165 -158.47220397 59.619958 -154 43 C-153.34 43 -152.68 43 -152 43 C-151.79503906 42.37351563 -151.59007812 41.74703125 -151.37890625 41.1015625 C-151.10949219 40.28429688 -150.84007812 39.46703125 -150.5625 38.625 C-150.29566406 37.81289063 -150.02882813 37.00078125 -149.75390625 36.1640625 C-149 34 -149 34 -148 32 C-147.34 32 -146.68 32 -146 32 C-145.62875 30.7934375 -145.62875 30.7934375 -145.25 29.5625 C-144.8375 28.716875 -144.425 27.87125 -144 27 C-142.0625 26.4375 -142.0625 26.4375 -140 26 C-139.3503125 25.1028125 -139.3503125 25.1028125 -138.6875 24.1875 C-136.9665942 21.95669618 -135.80271393 21.19516216 -133.375 19.875 C-129.96199243 18.39455479 -129.96199243 18.39455479 -129 16 C-126.80770249 15.15065147 -124.58204965 14.53199783 -122.32421875 13.87890625 C-119.95988559 13.11167121 -119.95988559 13.11167121 -118.1171875 11.5625 C-115.39250645 9.55166528 -112.61568644 8.59090327 -109.4375 7.4375 C-105.93788672 6.16238551 -103.10559868 5.07039912 -100 3 C-97.99222116 2.48749544 -95.96838707 2.03650274 -93.9375 1.625 C-88.82810718 0.51228779 -84.25159609 -0.93732174 -79.51171875 -3.1328125 C-59.24107969 -10.13138462 -19.05047769 -9.7279035 0 0 Z M-85.40625 10.09765625 C-87.59978254 10.86076772 -89.74295776 11.46808559 -92 12 C-96.06711574 13.21148128 -99.43490842 14.69317603 -103 17 C-100.43533581 18.38919311 -97.87898273 19.3839541 -95.125 20.3125 C-86.81336172 23.45245224 -82.86652106 29.25531174 -79 37 C-76.98424498 42.09436269 -76.22098081 47.23597854 -75.4375 52.625 C-75.18781547 54.30492871 -74.93656878 55.98462615 -74.68359375 57.6640625 C-74.57587646 58.40092285 -74.46815918 59.1377832 -74.35717773 59.89697266 C-74.00570558 61.96640612 -73.53650154 63.9714341 -73 66 C-68.66079992 64.18717863 -64.63081342 62.43671698 -60.75 59.75 C-58 58 -58 58 -55.609375 58.0390625 C-52.52378433 57.99287102 -51.13373498 57.18539778 -48.5 55.625 C-38.51441913 50.37809275 -27.31791491 50.71192969 -16.3125 51.25 C-15.16716797 51.28996094 -14.02183594 51.32992187 -12.84179688 51.37109375 C-6.77795635 51.62765418 -1.00662548 52.20070863 4.91430664 53.55224609 C9.8217405 54.60576754 12.93743426 54.57063716 17.375 52.1875 C20.22479728 50.20286584 20.22479728 50.20286584 21 47 C21.66 47 22.32 47 23 47 C23.67677963 37.1114976 22.11524993 29.51463596 15.8125 21.6875 C12.59689814 18.24221229 9.12732881 16.07988991 4.91796875 14.0078125 C3 13 3 13 1 11 C-1.58354218 10.83312552 -1.58354218 10.83312552 -4 11 C-4.495 9.515 -4.495 9.515 -5 8 C-18.96835848 6.0209891 -32.90452785 5.35913526 -47 5 C-47.85287598 4.97663574 -48.70575195 4.95327148 -49.58447266 4.92919922 C-62.20642705 4.62007953 -73.43468546 5.83359092 -85.40625 10.09765625 Z " fill="#FEFEFE" transform="translate(468,21)"/>
<path d="M0 0 C1.44903992 5.30296577 1.22214484 10.73137061 1.25 16.1875 C1.270625 17.17814453 1.29125 18.16878906 1.3125 19.18945312 C1.34799013 25.9547584 0.32140259 31.64590445 -2 38 C-2.66 38 -3.32 38 -4 38 C-4.0825 38.9075 -4.165 39.815 -4.25 40.75 C-5.10559643 44.45758451 -6.24394771 45.50232761 -9 48 C-9.33 48.99 -9.66 49.98 -10 51 C-11.64302953 52.68997323 -13.31471312 54.35216394 -15 56 C-16.03213388 57.17769122 -17.05269929 58.36560424 -18.0625 59.5625 C-20.27157231 62.1634129 -22.44917688 64.72247935 -25 67 C-25.66 67 -26.32 67 -27 67 C-27.37125 67.8353125 -27.37125 67.8353125 -27.75 68.6875 C-29.88279838 72.63317701 -32.75803677 75.92013493 -36 79 C-34.35 79 -32.7 79 -31 79 C-31 79.66 -31 80.32 -31 81 C-30.04222656 81.10957031 -29.08445312 81.21914062 -28.09765625 81.33203125 C-17.99037198 82.52368622 -8.00517643 84.14260339 2 86 C2 86.66 2 87.32 2 88 C3.03125 88.0825 4.0625 88.165 5.125 88.25 C12.05336397 89.09735387 19.74317509 90.87158755 26 94 C26 94.99 26 95.98 26 97 C26.94875 97.0825 27.8975 97.165 28.875 97.25 C33.88977467 97.93991766 38.38454926 100.00337644 43 102 C43 102.66 43 103.32 43 104 C43.680625 104.0825 44.36125 104.165 45.0625 104.25 C48.80113057 105.20454398 51.95802338 106.59969032 55 109 C56.1875 111.6875 56.1875 111.6875 57 114 C58.96128755 114.8237956 58.96128755 114.8237956 61 115 C61.66 115.33 62.32 115.66 63 116 C64.46125461 124.10332103 64.46125461 124.10332103 63 128 C62.34 128 61.68 128 61 128 C60.67 129.32 60.34 130.64 60 132 C59.21625 132.0825 58.4325 132.165 57.625 132.25 C56.325625 132.62125 56.325625 132.62125 55 133 C54.29848848 134.3153341 53.63474075 135.65117592 53 137 C48.71428571 140 48.71428571 140 46 140 C46 140.66 46 141.32 46 142 C44.56705502 142.84114171 43.12845595 143.67265687 41.6875 144.5 C40.88699219 144.9640625 40.08648437 145.428125 39.26171875 145.90625 C37 147 37 147 34 147 C34 147.99 34 148.98 34 150 C29.38022715 153.3968918 24.70867253 155 19 155 C19 155.66 19 156.32 19 157 C18.40832031 157.19335938 17.81664062 157.38671875 17.20703125 157.5859375 C12.1472778 159.2508429 12.1472778 159.2508429 7.1875 161.1875 C5 162 5 162 1 162 C1 162.66 1 163.32 1 164 C0.34 164 -0.32 164 -1 164 C-1.33 164.99 -1.66 165.98 -2 167 C-8.625 167.125 -8.625 167.125 -12 166 C-13.4046129 162.52191091 -14.26481232 160.11120612 -13.3828125 156.41015625 C-11.55774216 153.22917207 -10.01022646 152.80011292 -6.5625 151.6875 C-5.59441406 151.36136719 -4.62632812 151.03523437 -3.62890625 150.69921875 C-1 150 -1 150 2 150 C2 149.01 2 148.02 2 147 C4.45714547 146.16301614 6.91558857 145.33027576 9.375 144.5 C10.07367188 144.26152344 10.77234375 144.02304687 11.4921875 143.77734375 C16.7734375 142 16.7734375 142 19 142 C19 141.34 19 140.68 19 140 C20.95649397 139.16235732 22.91525556 138.33000941 24.875 137.5 C25.96554687 137.0359375 27.05609375 136.571875 28.1796875 136.09375 C31 135 31 135 33 135 C33.33 134.01 33.66 133.02 34 132 C35.55859375 130.39453125 35.55859375 130.39453125 37.4375 128.8125 C38.05496094 128.28269531 38.67242187 127.75289062 39.30859375 127.20703125 C41 126 41 126 43 126 C43.33 125.01 43.66 124.02 44 123 C44.99 123 45.98 123 47 123 C44.94766315 120.7522025 43.99332739 119.9977758 41 119 C41 118.34 41 117.68 41 117 C37.7 116.01 34.4 115.02 31 114 C31 113.34 31 112.68 31 112 C29.02 111.67 27.04 111.34 25 111 C25 110.34 25 109.68 25 109 C23.72125 108.731875 22.4425 108.46375 21.125 108.1875 C15.99937583 107.0548104 11.00710512 105.56798699 6 104 C6 103.34 6 102.68 6 102 C5.28972656 101.93941406 4.57945312 101.87882812 3.84765625 101.81640625 C2.46900391 101.69072266 2.46900391 101.69072266 1.0625 101.5625 C-0.31228516 101.44068359 -0.31228516 101.44068359 -1.71484375 101.31640625 C-4 101 -4 101 -5 100 C-6.33630117 99.70569228 -7.68419222 99.46338167 -9.03515625 99.24609375 C-10.24848633 99.04790039 -10.24848633 99.04790039 -11.48632812 98.84570312 C-12.33646484 98.71099609 -13.18660156 98.57628906 -14.0625 98.4375 C-14.91650391 98.29892578 -15.77050781 98.16035156 -16.65039062 98.01757812 C-18.76634451 97.67476995 -20.88310118 97.33692384 -23 97 C-23 96.01 -23 95.02 -23 94 C-24.19625 93.896875 -25.3925 93.79375 -26.625 93.6875 C-35.25400057 92.73024162 -43.80799466 90.87155271 -52 88 C-52 87.34 -52 86.68 -52 86 C-53.98 85.34 -55.96 84.68 -58 84 C-58 81.03 -58 78.06 -58 75 C-56.02 74.01 -56.02 74.01 -54 73 C-53.3503125 72.319375 -53.3503125 72.319375 -52.6875 71.625 C-51.01530208 70.01473534 -49.52381041 69.11161075 -47.5 68 C-43.59564717 65.83366077 -41.450438 64.35131399 -40 60 C-38.2578125 58.28125 -38.2578125 58.28125 -36.125 56.5 C-31.41018628 52.76081795 -31.41018628 52.76081795 -28 47.9375 C-27 46 -27 46 -24 44 C-23.855625 43.38125 -23.71125 42.7625 -23.5625 42.125 C-22.79092711 39.21016909 -21.26586448 37.92255168 -19 36 C-18.34 36 -17.68 36 -17 36 C-16.814375 34.9790625 -16.814375 34.9790625 -16.625 33.9375 C-16 31 -16 31 -15 28 C-13.36054299 22.50659553 -13.32514792 16.69008866 -13 11 C-15.31 11 -17.62 11 -20 11 C-20 11.66 -20 12.32 -20 13 C-21.47255249 13.12060791 -21.47255249 13.12060791 -22.97485352 13.24365234 C-26.69343731 13.54924533 -30.41158692 13.85988115 -34.12963867 14.171875 C-35.72458033 14.30504022 -37.31962978 14.43692198 -38.91479492 14.56738281 C-49.3274024 15.42006878 -59.65822805 16.50602868 -70 18 C-69.66923462 19.29429932 -69.66923462 19.29429932 -69.33178711 20.61474609 C-65.47959958 35.68852337 -64.78212058 50.50635249 -65 66 C-64.34 66 -63.68 66 -63 66 C-62.35051881 69.97858003 -61.706085 73.95796229 -61.0625 77.9375 C-60.88009766 79.05447266 -60.69769531 80.17144531 -60.50976562 81.32226562 C-59.50699697 87.53943127 -58.63125398 93.73397362 -58 100 C-57.01 100 -56.02 100 -55 100 C-51.91100301 108.34029187 -49.51511249 117.02958115 -50 126 C-49.34 126 -48.68 126 -48 126 C-47.80354907 129.12450532 -47.61936511 132.24961445 -47.4375 135.375 C-47.35338867 136.70917969 -47.35338867 136.70917969 -47.26757812 138.0703125 C-47.21923828 138.92109375 -47.17089844 139.771875 -47.12109375 140.6484375 C-47.0739624 141.43395996 -47.02683105 142.21948242 -46.97827148 143.02880859 C-47 145 -47 145 -48 147 C-48.66 147 -49.32 147 -50 147 C-50.144375 147.639375 -50.28875 148.27875 -50.4375 148.9375 C-51 151 -51 151 -52 152 C-59.52238806 152.23880597 -59.52238806 152.23880597 -62 151 C-62.40729228 148.67843403 -62.74438677 146.3431213 -63 144 C-63.66 144 -64.32 144 -65 144 C-65.86033267 138.55656538 -66.71464282 133.11223179 -67.56347656 127.66699219 C-67.85285285 125.8161492 -68.14385003 123.96555886 -68.43652344 122.11523438 C-68.85782248 119.44987309 -69.27321248 116.78364647 -69.6875 114.1171875 C-69.81874268 113.29507782 -69.94998535 112.47296814 -70.08520508 111.62594604 C-70.74027808 107.37044289 -71.14589195 103.32204888 -71 99 C-71.99 99 -72.98 99 -74 99 C-74.11593506 98.10692139 -74.23187012 97.21384277 -74.35131836 96.29370117 C-74.78318799 92.97795247 -75.21771741 89.66257492 -75.65405273 86.34741211 C-75.8422944 84.91298144 -76.02947721 83.4784114 -76.21557617 82.04370117 C-76.48337482 79.98058041 -76.75498713 77.91799212 -77.02734375 75.85546875 C-77.27085571 73.99378052 -77.27085571 73.99378052 -77.51928711 72.09448242 C-77.91585401 68.97434939 -77.91585401 68.97434939 -79 66 C-79.12781786 63.32605036 -79.04391871 60.67904143 -79 58 C-79.66 58 -80.32 58 -81 58 C-84.27626612 46.29904959 -85.20766276 34.85526387 -85.3125 22.75 C-85.33006348 21.62988525 -85.34762695 20.50977051 -85.36572266 19.35571289 C-85.36491699 18.30504639 -85.36411133 17.25437988 -85.36328125 16.171875 C-85.36626221 15.2240918 -85.36924316 14.27630859 -85.37231445 13.29980469 C-85.24945068 12.54086914 -85.12658691 11.78193359 -85 11 C-82 9 -82 9 -79 9 C-78.67 8.01 -78.34 7.02 -78 6 C-74.99208089 3.95891203 -72.57804656 3.80121964 -69 4 C-69 3.34 -69 2.68 -69 2 C-8.3601674 -6.77971173 -8.3601674 -6.77971173 0 0 Z " fill="#FDFDFD" transform="translate(452,150)"/>
<path d="M0 0 C1.32 0 2.64 0 4 0 C4 0.66 4 1.32 4 2 C4.639375 2.12375 5.27875 2.2475 5.9375 2.375 C6.9584375 2.684375 6.9584375 2.684375 8 3 C9.60876265 6.21752529 9.39590948 9.71840075 9.62109375 13.2734375 C9.99627889 15.97322338 10.7486866 17.61895831 12 20 C12 20.99 12 21.98 12 23 C12.556875 23.04125 13.11375 23.0825 13.6875 23.125 C16.57667216 24.21820028 17.53210261 25.97567974 19.36328125 28.3671875 C22.5780408 31.57427459 26.88789285 33.19546366 31 35 C31 35.99 31 36.98 31 38 C31.70125 38.268125 32.4025 38.53625 33.125 38.8125 C37.70396105 40.70381 41.55789221 42.40823535 45 46 C45.86625 46.495 46.7325 46.99 47.625 47.5 C50 49 50 49 51 52 C51.66 52 52.32 52 53 52 C54.5078125 53.390625 54.5078125 53.390625 56.125 55.25 C56.66382813 55.85328125 57.20265625 56.4565625 57.7578125 57.078125 C59 59 59 59 59 63 C59.66 63 60.32 63 61 63 C61.495 66.465 61.495 66.465 62 70 C62.66 70 63.32 70 64 70 C67.46163821 81.30801815 67.09677958 93.33827391 67.1875 105.0625 C67.20055176 106.05000244 67.21360352 107.03750488 67.22705078 108.05493164 C67.23413254 113.97073044 66.68278416 118.63443167 64 124 C61.36 124 58.72 124 56 124 C52.11363816 118.18575788 52.65625583 112.42763077 52.8125 105.625 C52.82603516 104.50738281 52.83957031 103.38976562 52.85351562 102.23828125 C52.88872836 99.49168789 52.93797904 96.74609711 53 94 C52.34 94 51.68 94 51 94 C50.67 90.37 50.34 86.74 50 83 C48.948125 83.99 48.948125 83.99 47.875 85 C44.56539771 87.30233203 42.93774177 87.36630156 39 87 C39 87.66 39 88.32 39 89 C36.36 89 33.72 89 31 89 C31 89.66 31 90.32 31 91 C27.87669547 91.65421182 24.75109398 92.29676159 21.625 92.9375 C20.31982422 93.21110352 20.31982422 93.21110352 18.98828125 93.49023438 C13.00808498 94.7084225 7.08286407 95.5096049 1 96 C1 96.66 1 97.32 1 98 C-0.98 98 -2.96 98 -5 98 C-5 99.32 -5 100.64 -5 102 C-4.34 102 -3.68 102 -3 102 C-3 110.91 -3 119.82 -3 129 C-3.66 129 -4.32 129 -5 129 C-5.226875 129.639375 -5.45375 130.27875 -5.6875 130.9375 C-7 133 -7 133 -9.5625 133.625 C-10.366875 133.74875 -11.17125 133.8725 -12 134 C-12.495 134.99 -12.495 134.99 -13 136 C-13 135.34 -13 134.68 -13 134 C-14.2065625 133.6596875 -14.2065625 133.6596875 -15.4375 133.3125 C-16.283125 132.879375 -17.12875 132.44625 -18 132 C-18.97629668 128.61145953 -19.13003034 125.35453989 -19.14526367 121.84375 C-19.15156296 120.83569809 -19.15786224 119.82764618 -19.16435242 118.78904724 C-19.16554581 117.70366165 -19.1667392 116.61827606 -19.16796875 115.5 C-19.17202225 114.36309219 -19.17607574 113.22618439 -19.18025208 112.05482483 C-19.18970751 108.36985467 -19.18965005 104.68498064 -19.1875 101 C-19.1882251 99.75701141 -19.1889502 98.51402283 -19.18969727 97.23336792 C-19.18852052 79.07756758 -18.85429293 61.07195865 -17 43 C-16.34 43 -15.68 43 -15 43 C-14.96261719 42.32839844 -14.92523438 41.65679687 -14.88671875 40.96484375 C-14.38005233 33.26550102 -13.58347143 25.60036614 -12.6875 17.9375 C-12.58203857 16.9261499 -12.47657715 15.9147998 -12.36791992 14.87280273 C-11.48776012 7.68734464 -11.48776012 7.68734464 -9.12890625 4.36328125 C-6.17759982 2.47336209 -3.45173381 2.26551799 0 2 C0 1.34 0 0.68 0 0 Z M1 30 C0.67 34.29 0.34 38.58 0 43 C-0.66 43 -1.32 43 -2 43 C-2.84800767 50.692641 -3.12152487 58.26291674 -3 66 C-3.66 66 -4.32 66 -5 66 C-6.22517308 71.66642551 -6.09228867 77.23708518 -6 83 C-5.01 83 -4.02 83 -3 83 C-3 82.34 -3 81.68 -3 81 C-1.74509766 80.94392578 -1.74509766 80.94392578 -0.46484375 80.88671875 C7.47868775 80.43808076 14.84234591 79.36203763 22.62109375 77.69921875 C26.41338363 76.91445587 30.15036656 76.39281974 34 76 C34 75.34 34 74.68 34 74 C38.62 74 43.24 74 48 74 C48.33 74.66 48.66 75.32 49 76 C48.505 72.535 48.505 72.535 48 69 C47.34 69 46.68 69 46 69 C45.9175 68.236875 45.835 67.47375 45.75 66.6875 C44.84730645 63.45284809 43.86406539 62.64900735 41 61 C40.34 61 39.68 61 39 61 C38.505 59.515 38.505 59.515 38 58 C34.31082874 55.13064457 32.75567676 54 28 54 C27.92652344 53.39285156 27.85304688 52.78570312 27.77734375 52.16015625 C26.71494857 49.20787217 25.34214863 48.78507366 22.5625 47.4375 C19.21598454 45.79915776 18.13553915 45.20330873 16 42 C15.21625 41.731875 14.4325 41.46375 13.625 41.1875 C10.08284844 39.5850981 9.11962449 37.21155226 7 34 C5.07860676 32.44390868 3.13780483 31.26324831 1 30 Z " fill="#FBFBFB" transform="translate(282,262)"/>
<path d="M0 0 C1.35158203 0.15275391 1.35158203 0.15275391 2.73046875 0.30859375 C3.41753906 0.39238281 4.10460937 0.47617187 4.8125 0.5625 C4.8125 1.2225 4.8125 1.8825 4.8125 2.5625 C5.81410156 2.52769531 6.81570313 2.49289062 7.84765625 2.45703125 C20.92602226 2.14012922 20.92602226 2.14012922 26.8125 5.5625 C27.8025 6.0575 27.8025 6.0575 28.8125 6.5625 C29.29442771 13.79141566 29.29442771 13.79141566 27.25 17.0625 C23.99221981 19.06728781 21.56467167 18.85112859 17.8125 18.5625 C17.8125 17.9025 17.8125 17.2425 17.8125 16.5625 C14.04181168 16.475515 10.27138068 16.42211421 6.5 16.375 C4.8922168 16.33729492 4.8922168 16.33729492 3.25195312 16.29882812 C2.22392578 16.28916016 1.19589844 16.27949219 0.13671875 16.26953125 C-0.81114502 16.2538208 -1.75900879 16.23811035 -2.7355957 16.22192383 C-5.65372573 16.62726002 -6.3184012 17.37180675 -8.1875 19.5625 C-11.45835727 21.3719104 -14.50569736 22.85446103 -18.1875 23.5625 C-18.1875 24.5525 -18.1875 25.5425 -18.1875 26.5625 C-18.95835937 26.87703125 -19.72921875 27.1915625 -20.5234375 27.515625 C-21.52632813 27.94359375 -22.52921875 28.3715625 -23.5625 28.8125 C-24.56023437 29.23015625 -25.55796875 29.6478125 -26.5859375 30.078125 C-29.45924408 31.71754917 -29.92800824 32.61976225 -31.1875 35.5625 C-32.1775 36.2225 -33.1675 36.8825 -34.1875 37.5625 C-35.37982613 39.61253955 -35.37982613 39.61253955 -36.1875 41.5625 C-36.8475 41.5625 -37.5075 41.5625 -38.1875 41.5625 C-38.5175 43.2125 -38.8475 44.8625 -39.1875 46.5625 C-39.8475 46.5625 -40.5075 46.5625 -41.1875 46.5625 C-41.290625 47.366875 -41.39375 48.17125 -41.5 49 C-42.03319277 51.76290799 -42.6623592 53.96142511 -43.625 56.5625 C-45.7767732 62.71193028 -46.40877099 69.12195304 -47.1875 75.5625 C-47.8475 75.5625 -48.5075 75.5625 -49.1875 75.5625 C-49.1875 78.8625 -49.1875 82.1625 -49.1875 85.5625 C-48.5275 85.5625 -47.8675 85.5625 -47.1875 85.5625 C-45.20425978 92.43773277 -45.20425978 92.43773277 -44.90625 94.65625 C-44.33456377 96.76305331 -44.33456377 96.76305331 -42.12109375 97.828125 C-41.29738281 98.15296875 -40.47367187 98.4778125 -39.625 98.8125 C-38.38556641 99.31523437 -38.38556641 99.31523437 -37.12109375 99.828125 C-36.16396484 100.19164062 -36.16396484 100.19164062 -35.1875 100.5625 C-35.1875 101.2225 -35.1875 101.8825 -35.1875 102.5625 C-27.48167885 104.55351757 -19.93041133 105.1482633 -12 105.625 C-9.52717942 105.77995147 -7.05451468 105.93741496 -4.58203125 106.09765625 C-3.49768799 106.163479 -2.41334473 106.22930176 -1.29614258 106.29711914 C1.78176135 106.55987588 4.77402053 107.01220173 7.8125 107.5625 C7.8125 108.2225 7.8125 108.8825 7.8125 109.5625 C15.7325 109.5625 23.6525 109.5625 31.8125 109.5625 C31.8125 108.9025 31.8125 108.2425 31.8125 107.5625 C32.45058594 107.35753906 33.08867187 107.15257812 33.74609375 106.94140625 C34.57238281 106.67199219 35.39867187 106.40257812 36.25 106.125 C37.07371094 105.85816406 37.89742188 105.59132813 38.74609375 105.31640625 C40.77469588 104.74094506 40.77469588 104.74094506 41.8125 103.5625 C48.74315998 103.10803049 48.74315998 103.10803049 52.3125 104.625 C53.8125 106.5625 53.8125 106.5625 54.5 109.875 C53.67521597 114.29884164 52.51044668 115.61192437 49.0234375 118.2734375 C44.36515481 120.98939738 39.20504591 122.5625 33.8125 122.5625 C33.8125 123.2225 33.8125 123.8825 33.8125 124.5625 C25.2325 124.5625 16.6525 124.5625 7.8125 124.5625 C7.8125 123.9025 7.8125 123.2425 7.8125 122.5625 C6.84538086 122.51762451 5.87826172 122.47274902 4.88183594 122.42651367 C1.23566464 122.254089 -2.40954475 122.06566146 -6.0546875 121.87280273 C-7.6215314 121.79205248 -9.18859473 121.71543509 -10.75585938 121.64331055 C-20.23181534 121.20404788 -29.05217987 120.36796617 -38.1875 117.5625 C-38.1875 116.9025 -38.1875 116.2425 -38.1875 115.5625 C-39.3321875 115.376875 -39.3321875 115.376875 -40.5 115.1875 C-43.1875 114.5625 -43.1875 114.5625 -46.1875 112.5625 C-46.1875 111.9025 -46.1875 111.2425 -46.1875 110.5625 C-47.0228125 110.4696875 -47.0228125 110.4696875 -47.875 110.375 C-51.13846487 109.22837721 -52.82804906 107.04294843 -55.1875 104.5625 C-56.1775 103.9025 -57.1675 103.2425 -58.1875 102.5625 C-60.74946476 97.63564469 -61.87835979 93.11765589 -62.1875 87.5625 C-62.24035156 86.68464844 -62.29320312 85.80679688 -62.34765625 84.90234375 C-62.56139938 77.70012946 -61.81441388 70.74117335 -60.8125 63.625 C-60.68649414 62.72499268 -60.56048828 61.82498535 -60.43066406 60.89770508 C-59.73594823 56.26294562 -58.85677086 51.96792354 -57.1875 47.5625 C-56.5275 47.5625 -55.8675 47.5625 -55.1875 47.5625 C-54.8575 45.2525 -54.5275 42.9425 -54.1875 40.5625 C-53.5275 40.5625 -52.8675 40.5625 -52.1875 40.5625 C-52.06375 40.005625 -51.94 39.44875 -51.8125 38.875 C-50.3178911 33.34494705 -48.30541208 30.5799752 -44.1875 26.5625 C-43.6925 25.69625 -43.1975 24.83 -42.6875 23.9375 C-40.89435413 21.09835237 -39.18076277 20.02075622 -36.1875 18.5625 C-35.5275 18.5625 -34.8675 18.5625 -34.1875 18.5625 C-33.8575 17.5725 -33.5275 16.5825 -33.1875 15.5625 C-31.19140625 14.39453125 -31.19140625 14.39453125 -28.75 13.375 C-27.94691406 13.03082031 -27.14382813 12.68664062 -26.31640625 12.33203125 C-24.1875 11.5625 -24.1875 11.5625 -22.1875 11.5625 C-21.8575 10.5725 -21.5275 9.5825 -21.1875 8.5625 C-20.1975 8.5625 -19.2075 8.5625 -18.1875 8.5625 C-18.1875 7.9025 -18.1875 7.2425 -18.1875 6.5625 C-17.094375 6.129375 -16.00125 5.69625 -14.875 5.25 C-12.04318573 4.04776094 -10.27039516 2.85368468 -8.1875 0.5625 C-4.98734144 -0.50421952 -3.30205706 -0.38595472 0 0 Z " fill="#FCFCFC" transform="translate(382.1875,395.4375)"/>
<path d="M0 0 C4.35033601 0.97660604 5.57899664 1.92676635 8.0625 5.6875 C8.57543038 8.96503822 8.75687063 12.170239 8.890625 15.484375 C9.0649685 18.73350379 9.64208073 21.48248138 10.51953125 24.58984375 C12.2293544 31.19541953 13.20415452 37.86784674 13.0625 44.6875 C14.0525 44.6875 15.0425 44.6875 16.0625 44.6875 C16.90541786 48.72722867 17.73512865 52.76956109 18.5625 56.8125 C18.80097656 57.95460937 19.03945313 59.09671875 19.28515625 60.2734375 C19.51074219 61.38203125 19.73632812 62.490625 19.96875 63.6328125 C20.17822266 64.64875488 20.38769531 65.66469727 20.60351562 66.71142578 C21.07238982 69.75162599 21.1425787 72.61648194 21.0625 75.6875 C21.7225 75.6875 22.3825 75.6875 23.0625 75.6875 C25.17659642 82.99447404 27.28697196 90.2894665 29.0625 97.6875 C29.7225 97.6875 30.3825 97.6875 31.0625 97.6875 C31.0625 98.3475 31.0625 99.0075 31.0625 99.6875 C31.7225 99.6875 32.3825 99.6875 33.0625 99.6875 C33.22105469 100.35136719 33.37960937 101.01523438 33.54296875 101.69921875 C34.99953999 107.53055122 34.99953999 107.53055122 38.6875 112.125 C42.3942722 116.12441211 41.84687423 120.42623123 42.0625 125.6875 C42.34034279 128.06697413 42.65367181 130.4388171 42.9765625 132.8125 C43.0625 134.6875 43.0625 134.6875 42.0625 137.6875 C39.7525 138.0175 37.4425 138.3475 35.0625 138.6875 C35.0625 139.3475 35.0625 140.0075 35.0625 140.6875 C24.09451326 144.4479526 12.76679384 145.82556104 2.0625 140.6875 C2.0625 140.0275 2.0625 139.3675 2.0625 138.6875 C1.32 138.64625 0.5775 138.605 -0.1875 138.5625 C-4.06554301 137.32857722 -5.02043561 135.16661685 -6.9375 131.6875 C-6.9375 131.0275 -6.9375 130.3675 -6.9375 129.6875 C-8.2575 129.0275 -9.5775 128.3675 -10.9375 127.6875 C-10.99622928 123.8750662 -11.03133916 120.06275094 -11.0625 116.25 C-11.07925781 115.18072266 -11.09601562 114.11144531 -11.11328125 113.00976562 C-11.20429104 98.12966418 -11.20429104 98.12966418 -7.25 92.125 C-4.03554316 90.12682412 -1.64822424 90.34391442 2.0625 90.6875 C2.7225 91.0175 3.3825 91.3475 4.0625 91.6875 C4.0625 92.3475 4.0625 93.0075 4.0625 93.6875 C7.0325 94.0175 10.0025 94.3475 13.0625 94.6875 C12.60875 93.759375 12.155 92.83125 11.6875 91.875 C9.85647449 87.68857078 9.23377581 83.44670427 8.58984375 78.9453125 C8.41582031 78.20023437 8.24179687 77.45515625 8.0625 76.6875 C7.4025 76.3575 6.7425 76.0275 6.0625 75.6875 C4.88208555 72.10508917 4.21770335 68.37532163 3.4375 64.6875 C3.20804688 63.67042969 2.97859375 62.65335938 2.7421875 61.60546875 C1.42432824 55.49468089 0.81516793 49.93588923 1.0625 43.6875 C0.0725 43.6875 -0.9175 43.6875 -1.9375 43.6875 C-3.61688332 39.14824635 -4.42760299 34.86293879 -5 30.0625 C-5.52980889 25.2899465 -5.52980889 25.2899465 -6.4765625 20.59375 C-7.80403096 15.10388043 -8.20369609 7.95210567 -5.3125 2.9375 C-2.9375 0.6875 -2.9375 0.6875 0 0 Z M3.0625 107.6875 C2.9810778 109.91605574 2.92311921 112.14547655 2.875 114.375 C2.84019531 115.61636719 2.80539062 116.85773438 2.76953125 118.13671875 C3.08122447 121.91444058 3.76747615 123.71489768 6.0625 126.6875 C11.31733861 129.51702848 18.23194838 129.49923847 24.0625 128.6875 C26.36105687 125.92429783 26.36105687 125.92429783 25.8125 123.09375 C24.39845361 117.0311802 24.39845361 117.0311802 20.3125 112.625 C19.24 112.315625 18.1675 112.00625 17.0625 111.6875 C15.268125 111.0996875 15.268125 111.0996875 13.4375 110.5 C9.9929215 109.53146411 9.9929215 109.53146411 6.0625 109.6875 C6.0625 109.0275 6.0625 108.3675 6.0625 107.6875 C5.0725 107.6875 4.0825 107.6875 3.0625 107.6875 Z " fill="#FCFCFC" transform="translate(632.9375,144.3125)"/>
<path d="M0 0 C1.07958984 -0.00644531 2.15917969 -0.01289063 3.27148438 -0.01953125 C11.1564765 0.0881471 11.1564765 0.0881471 14.13891602 2.52880859 C15.8125 4.625 15.8125 4.625 15.984375 6.765625 C15.59375 8.71875 15.203125 10.671875 14.8125 12.625 C13.1625 13.285 11.5125 13.945 9.8125 14.625 C9.8125 15.285 9.8125 15.945 9.8125 16.625 C10.41191406 16.67398437 11.01132812 16.72296875 11.62890625 16.7734375 C13.6330305 16.93878488 15.63690468 17.10717133 17.640625 17.27734375 C20.92082789 17.55455565 24.20238161 17.81132063 27.484375 18.06640625 C29.5312683 18.23154422 31.57814315 18.39691085 33.625 18.5625 C34.61508057 18.63710449 35.60516113 18.71170898 36.62524414 18.78857422 C41.9446843 19.22741121 46.74433587 19.93561196 51.8125 21.625 C51.8125 22.285 51.8125 22.945 51.8125 23.625 C53.7925 23.955 55.7725 24.285 57.8125 24.625 C57.8125 25.285 57.8125 25.945 57.8125 26.625 C58.43125 26.74875 59.05 26.8725 59.6875 27 C61.8125 27.625 61.8125 27.625 63.8125 29.625 C64.28591984 34.64325028 63.84427814 37.58262915 60.8125 41.625 C58.74782144 44.03379165 57.92255341 44.58831553 54.8125 45.625 C54.3175 46.615 54.3175 46.615 53.8125 47.625 C44.56123752 51.1780211 35.66958119 52.79793125 25.8125 52.625 C25.8125 53.285 25.8125 53.945 25.8125 54.625 C5.3525 54.625 -15.1075 54.625 -36.1875 54.625 C-36.1875 53.965 -36.1875 53.305 -36.1875 52.625 C-38.4975 51.965 -40.8075 51.305 -43.1875 50.625 C-43.1875 49.965 -43.1875 49.305 -43.1875 48.625 C-43.8475 48.625 -44.5075 48.625 -45.1875 48.625 C-45.1875 46.645 -45.1875 44.665 -45.1875 42.625 C-44.5275 42.625 -43.8675 42.625 -43.1875 42.625 C-43.1875 41.965 -43.1875 41.305 -43.1875 40.625 C-40.25673654 39.15961827 -37.29048643 39.44633424 -34.07568359 39.41967773 C-33.34387375 39.40977814 -32.6120639 39.39987854 -31.858078 39.38967896 C-29.43406432 39.35803801 -27.01003102 39.33329634 -24.5859375 39.30859375 C-22.90727218 39.28802646 -21.22861207 39.26703005 -19.54995728 39.24562073 C-15.12768769 39.19037682 -10.70537119 39.14097779 -6.28302002 39.09277344 C-1.77197078 39.04257533 2.73901018 38.98688045 7.25 38.93164062 C16.10410836 38.8240307 24.95827596 38.72259203 33.8125 38.625 C33.8125 37.965 33.8125 37.305 33.8125 36.625 C37.2775 36.13 37.2775 36.13 40.8125 35.625 C37.80780936 34.79060515 34.92581582 34.38490388 31.8203125 34.125 C30.86769531 34.0425 29.91507813 33.96 28.93359375 33.875 C27.94488281 33.7925 26.95617187 33.71 25.9375 33.625 C14.10698938 32.63005561 14.10698938 32.63005561 8.8125 31.625 C8.8125 30.965 8.8125 30.305 8.8125 29.625 C7.92046875 29.57601563 7.0284375 29.52703125 6.109375 29.4765625 C4.93890625 29.40179688 3.7684375 29.32703125 2.5625 29.25 C1.40234375 29.18039062 0.2421875 29.11078125 -0.953125 29.0390625 C-3.89444334 28.66251692 -5.68699011 28.1475877 -8.1875 26.625 C-8.1875 25.965 -8.1875 25.305 -8.1875 24.625 C-9.8375 24.295 -11.4875 23.965 -13.1875 23.625 C-13.1875 22.965 -13.1875 22.305 -13.1875 21.625 C-13.991875 21.315625 -14.79625 21.00625 -15.625 20.6875 C-18.1875 19.625 -18.1875 19.625 -19.1875 18.625 C-19.53125 16.11328125 -19.53125 16.11328125 -19.6875 12.9375 C-19.7596875 11.90238281 -19.831875 10.86726563 -19.90625 9.80078125 C-19.00680102 5.82658549 -17.67964601 4.24321348 -14.49169922 1.78295898 C-9.88723756 -0.53098058 -5.0428226 -0.15216725 0 0 Z " fill="#FCFCFC" transform="translate(642.1875,359.375)"/>
<path d="M0 0 C2.55795831 5.7724306 2.98686118 11.58958475 3.6875 17.8125 C3.82994141 18.96298828 3.97238281 20.11347656 4.11914062 21.29882812 C4.8223473 27.40378159 5.36397939 32.97278218 4 39 C-0.02116883 41.96800557 -4.09353504 42.5093535 -9 43 C-9 43.66 -9 44.32 -9 45 C-12.64501224 45.6505237 -16.291145 46.29454906 -19.9375 46.9375 C-20.95908203 47.11990234 -21.98066406 47.30230469 -23.03320312 47.49023438 C-33.42407829 49.31610701 -43.62025724 50.18309912 -54.15524292 50.75827026 C-67.56048967 51.50527379 -80.75543733 52.75045172 -94 55 C-95.62624098 55.26339836 -97.25254303 55.52641999 -98.87890625 55.7890625 C-100.41956313 56.04512251 -101.95994344 56.30285383 -103.5 56.5625 C-104.53338501 56.73446899 -104.53338501 56.73446899 -105.58764648 56.90991211 C-108.41871552 57.41097683 -111.00172809 58.00069124 -113.67578125 59.0703125 C-116.16217438 60.06486975 -118.02144911 60.29892079 -120.6875 60.3125 C-121.45449219 60.32925781 -122.22148438 60.34601563 -123.01171875 60.36328125 C-123.66785156 60.24339844 -124.32398438 60.12351562 -125 60 C-127 57 -127 57 -126.75 54.5625 C-125.68920536 50.9381183 -125.01246594 48.76701965 -121.9375 46.4375 C-117.30797417 44.17198736 -112.47795792 42.67686763 -107.51171875 41.3203125 C-102.25883087 39.86616935 -97.92532654 37.97148533 -93.23828125 35.19921875 C-90.25095072 33.59867691 -87.18996516 32.62359197 -83.9453125 31.67578125 C-81.71793163 30.99319168 -81.71793163 30.99319168 -79 29 C-77.6378563 28.56196624 -76.25994208 28.17200587 -74.875 27.8125 C-69.97538993 26.41056778 -65.37114254 24.54648515 -60.6875 22.5625 C-54.61947695 20.00603977 -48.57442338 17.81483062 -42.25 15.95703125 C-30.60222463 12.5270974 -18.82878304 8.93301765 -8.625 2.1875 C-5.64104426 0.22275548 -3.6607142 -0.57198659 0 0 Z M-14.6875 15.8125 C-18.19131371 17.77073421 -21.78810949 18.95605712 -25.58959961 20.19018555 C-29.43016936 21.48048939 -33.1756127 22.99866831 -36.9375 24.5 C-43.2252941 26.9787489 -49.48873682 29.17684631 -56 31 C-62.00857623 32.80469604 -67.58659225 35.13986183 -73.26953125 37.79296875 C-77.10439301 39.48820807 -80.99875151 40.75370949 -85 42 C-80.97955828 43.34014724 -77.44390451 42.65383551 -73.3125 42.1875 C-66.55416552 41.46611154 -59.80791094 40.90168785 -53.01953125 40.55859375 C-52.32803482 40.52209213 -51.63653839 40.48559052 -50.92408752 40.44798279 C-47.49433781 40.26757946 -44.06577744 40.10211385 -40.6340332 39.96166992 C-32.44358105 39.53436423 -25.13944404 38.25221555 -17.31176758 35.95751953 C-12.92354192 34.68876752 -8.4932567 33.80350002 -4 33 C-4.11465421 30.77027727 -4.24214766 28.54121247 -4.375 26.3125 C-4.47941406 24.45044922 -4.47941406 24.45044922 -4.5859375 22.55078125 C-4.96422094 19.30682228 -5.61979976 16.93432815 -7 14 C-10.79994652 14 -11.62373161 14.09756046 -14.6875 15.8125 Z " fill="#FDFDFD" transform="translate(954,305)"/>
<path d="M0 0 C2.58984375 1.0390625 2.58984375 1.0390625 5 3 C5.85234936 5.67109482 6.37151899 7.88862942 6.75 10.625 C6.86577393 11.33978516 6.98154785 12.05457031 7.10083008 12.79101562 C7.89928795 17.8416194 8.54525788 22.90688829 9 28 C9.66 28 10.32 28 11 28 C11.33872513 29.41538717 11.67074624 30.83237963 12 32.25 C12.185625 33.03890625 12.37125 33.8278125 12.5625 34.640625 C13 37 13 37 13 41 C13.66 41 14.32 41 15 41 C15 42.32 15 43.64 15 45 C15.99 44.505 15.99 44.505 17 44 C36.52357008 41.16593338 36.52357008 41.16593338 44 45 C46.47730384 47.55988064 47 48.38813866 47 52 C47.99 52 48.98 52 50 52 C52.6024538 58.00830362 53.44748201 62.7955684 53.3125 69.3125 C53.31572266 70.10978516 53.31894531 70.90707031 53.32226562 71.72851562 C53.28603055 75.64519759 53.2161613 77.67575805 51 81 C49.66923011 81.34342449 48.33568021 81.67619874 47 82 C46.5875 82.474375 46.175 82.94875 45.75 83.4375 C42.92953427 85.95577298 39.6600948 86.2199798 36 87 C36 87.66 36 88.32 36 89 C31.23278499 89.38521412 26.46459638 89.74250785 21.69335938 90.07421875 C20.07104717 90.19093186 18.44926138 90.31522145 16.828125 90.44726562 C14.49576707 90.63591222 12.16286449 90.79710737 9.828125 90.953125 C9.10506165 91.0175177 8.38199829 91.0819104 7.63702393 91.14825439 C4.11685483 91.3569782 2.39385234 91.29958437 -0.45825195 89.13012695 C-3.02996572 85.5769674 -2.47839057 83.30551513 -2 79 C-0.75 77 -0.75 77 1 76 C2.32 76 3.64 76 5 76 C4.67 70.39 4.34 64.78 4 59 C3.34 59 2.68 59 2 59 C1.87882813 57.96101563 1.75765625 56.92203125 1.6328125 55.8515625 C0.54755673 44.27453756 0.54755673 44.27453756 -2 33 C-2.66 32.67 -3.32 32.34 -4 32 C-4 31.01 -4 30.02 -4 29 C-4.66 29 -5.32 29 -6 29 C-12.20430406 9.17744363 -12.20430406 9.17744363 -8 1 C-5.17998673 -0.41000664 -3.12992745 -0.24548451 0 0 Z M28 57 C28 57.66 28 58.32 28 59 C26.01432292 58.93489583 24.02864583 58.86979167 22.04296875 58.8046875 C19.68640281 58.86745538 19.68640281 58.86745538 17 61 C17.66 61 18.32 61 19 61 C19 65.62 19 70.24 19 75 C26.5678863 75.19900853 26.5678863 75.19900853 34 74 C34 73.34 34 72.68 34 72 C35.65 71.34 37.3 70.68 39 70 C39.38281159 64.76824163 38.21854707 61.62197306 36 57 C33.36 57 30.72 57 28 57 Z " fill="#FCFCFC" transform="translate(584,424)"/>
<path d="M0 0 C1.3125 2 1.3125 2 2 4 C2.66 4.33 3.32 4.66 4 5 C5.88310432 16.81381482 5.91452037 30.22418024 4 42 C6.64 42 9.28 42 12 42 C12 41.34 12 40.68 12 40 C13.10408203 39.81824219 13.10408203 39.81824219 14.23046875 39.6328125 C15.69419922 39.38144531 15.69419922 39.38144531 17.1875 39.125 C18.63189453 38.88136719 18.63189453 38.88136719 20.10546875 38.6328125 C23.01162673 38.08363052 23.01162673 38.08363052 25.66796875 36.9140625 C28.79916734 35.68675853 30.78561538 36.16146488 34 37 C34.99 37.66 35.98 38.32 37 39 C37.5625 42.3125 37.5625 42.3125 37 46 C31.22322453 52.86967894 21.57372007 54.19115848 13 55 C10.32693102 55.06635278 7.67477264 55.04692584 5 55 C5.33 55.99 5.66 56.98 6 58 C6.03954234 60.33299825 6.04401732 62.66708189 6 65 C6.66 65 7.32 65 8 65 C10.42488005 80.6597709 12.60947335 96.14461811 13 112 C13.66 112 14.32 112 15 112 C15.61507629 117.67847221 16.09890731 123.35119614 16.25 129.0625 C16.27578125 129.96097656 16.3015625 130.85945312 16.328125 131.78515625 C16.21984375 132.51605469 16.1115625 133.24695313 16 134 C12.32653229 136.44897847 10.33643601 136.31537716 6 136 C5.34 135.34 4.68 134.68 4 134 C4 133.01 4 132.02 4 131 C3.34 131 2.68 131 2 131 C0.74158054 124.25846717 -0.26404456 117.86515862 0 111 C-0.66 111 -1.32 111 -2 111 C-2.11069824 110.06841064 -2.22139648 109.13682129 -2.33544922 108.17700195 C-2.75490884 104.65611636 -3.1763767 101.13548237 -3.59912109 97.61499023 C-3.78024046 96.10336484 -3.96060357 94.59164859 -4.14013672 93.07983398 C-5.15045583 84.57678512 -6.23101998 76.1072539 -7.625 67.65625 C-8.08749793 64.38022302 -8.15348406 61.29990738 -8 58 C-8.66 58 -9.32 58 -10 58 C-11.4487362 49.31890107 -11.06328544 40.56062267 -10.97949219 31.79125977 C-10.89262987 21.80552237 -11.1890366 11.95692894 -12 2 C-7.54495737 -0.95213668 -5.2671119 -1.49069205 0 0 Z " fill="#FCFCFC" transform="translate(427,288)"/>
<path d="M0 0 C1.3303125 0.4640625 1.3303125 0.4640625 2.6875 0.9375 C2.6875 1.9275 2.6875 2.9175 2.6875 3.9375 C3.3475 4.02 4.0075 4.1025 4.6875 4.1875 C8.67789163 5.18509791 12.07299643 7.00916683 15.6875 8.9375 C15.6875 9.5975 15.6875 10.2575 15.6875 10.9375 C16.43 11.205625 17.1725 11.47375 17.9375 11.75 C20.70592295 12.94545536 22.55638777 13.80638777 24.6875 15.9375 C26.36156075 20.37376098 26.91790675 24.21416171 26.6875 28.9375 C28.0075 29.5975 29.3275 30.2575 30.6875 30.9375 C30.6875 31.5975 30.6875 32.2575 30.6875 32.9375 C31.6775 33.2675 32.6675 33.5975 33.6875 33.9375 C33.81125 34.576875 33.935 35.21625 34.0625 35.875 C34.26875 36.555625 34.475 37.23625 34.6875 37.9375 C36.34822849 38.61882451 38.015267 39.28492127 39.6875 39.9375 C41.85609575 42.59895842 41.68259968 44.07960914 41.5625 47.5625 C40.6875 50.9375 40.6875 50.9375 39.0625 52.4375 C35.51468386 53.18440866 33.20572274 52.8915943 29.6875 51.9375 C26.47841084 49.75786123 23.44161302 47.44572604 21.6875 43.9375 C21.17268066 44.14971191 20.65786133 44.36192383 20.12744141 44.58056641 C13.68854812 47.00527209 7.8998275 47.39262493 1.0625 47.3125 C0.06476562 47.32410156 -0.93296875 47.33570313 -1.9609375 47.34765625 C-9.39179318 47.31816873 -14.52080579 46.54308127 -20.125 41.3125 C-20.846875 40.52875 -21.56875 39.745 -22.3125 38.9375 C-22.9725 38.6075 -23.6325 38.2775 -24.3125 37.9375 C-28.55050883 30.1420385 -29.37383211 23.11983869 -27.4375 14.5625 C-26.3125 10.9375 -26.3125 10.9375 -24.3125 7.9375 C-23.6525 7.9375 -22.9925 7.9375 -22.3125 7.9375 C-22.3125 6.6175 -22.3125 5.2975 -22.3125 3.9375 C-21.6525 3.9375 -20.9925 3.9375 -20.3125 3.9375 C-20.18875 3.133125 -20.065 2.32875 -19.9375 1.5 C-19.73125 0.654375 -19.525 -0.19125 -19.3125 -1.0625 C-14.14682309 -3.64533846 -5.42342478 -1.56230343 0 0 Z M-11.5 17.4375 C-13.69927057 21.6843673 -13.71412963 23.40281591 -12.3125 27.9375 C-10.83633326 30.9078869 -10.83633326 30.9078869 -8.3125 32.9375 C-2.43810058 34.43489593 5.85199369 35.14965272 11.6875 32.9375 C12.0175 31.9475 12.3475 30.9575 12.6875 29.9375 C11.0375 29.2775 9.3875 28.6175 7.6875 27.9375 C7.3575 25.6275 7.0275 23.3175 6.6875 20.9375 C6.0275 20.9375 5.3675 20.9375 4.6875 20.9375 C4.3575 19.9475 4.0275 18.9575 3.6875 17.9375 C3.0275 17.9375 2.3675 17.9375 1.6875 17.9375 C1.6875 17.2775 1.6875 16.6175 1.6875 15.9375 C-5.47435556 14.1943223 -5.47435556 14.1943223 -11.5 17.4375 Z " fill="#FDFDFD" transform="translate(570.3125,243.0625)"/>
<path d="M0 0 C0.680625 -0.02835937 1.36125 -0.05671875 2.0625 -0.0859375 C4 0.375 4 0.375 5.70703125 2.0703125 C7.19233086 4.71782541 7.48911104 6.60948783 7.6875 9.625 C7.78611328 10.96304687 7.78611328 10.96304687 7.88671875 12.328125 C7.92410156 13.00359375 7.96148437 13.6790625 8 14.375 C8.66 14.375 9.32 14.375 10 14.375 C10 16.025 10 17.675 10 19.375 C10.66 19.375 11.32 19.375 12 19.375 C14.33922535 39.07906755 15.617886 58.54096102 16 78.375 C21.09733208 80.03432569 25.75038626 80.7013859 31.12109375 80.7890625 C31.86585464 80.80842865 32.61061554 80.8277948 33.37794495 80.8477478 C35.73101749 80.90700156 38.08414043 80.95370914 40.4375 81 C42.04363983 81.03822985 43.64976025 81.07728442 45.25585938 81.1171875 C49.17041325 81.2126575 53.08506291 81.29688543 57 81.375 C57 82.035 57 82.695 57 83.375 C58.98 83.87 58.98 83.87 61 84.375 C62.125 90 62.125 90 61 93.375 C54.21391428 98.07305934 43.47741128 96.59346421 35.625 96.625 C33.71074219 96.6559375 33.71074219 96.6559375 31.7578125 96.6875 C24.48433525 96.71755569 18.737716 96.16403277 12 93.375 C12 92.715 12 92.055 12 91.375 C11.05125 91.395625 10.1025 91.41625 9.125 91.4375 C6 91.375 6 91.375 4 90.375 C4 89.715 4 89.055 4 88.375 C2.68 88.045 1.36 87.715 0 87.375 C0.01571045 86.46548584 0.0314209 85.55597168 0.04760742 84.61889648 C0.30979558 67.06999031 0.09007642 50.12940122 -2.65820312 32.74755859 C-3.43991773 27.32134249 -3.72496272 21.84729354 -4 16.375 C-4.66 16.375 -5.32 16.375 -6 16.375 C-6.88863453 13.29344479 -7.19260482 10.45456404 -7.25 7.25 C-7.27578125 6.38117188 -7.3015625 5.51234375 -7.328125 4.6171875 C-7.21984375 3.87726563 -7.1115625 3.13734375 -7 2.375 C-4.05916436 0.41444291 -3.31872048 0.06285455 0 0 Z " fill="#FCFCFC" transform="translate(454,414.625)"/>
<path d="M0 0 C2.62924467 6.69713266 3.54572488 12.82245308 4 20 C14.395 19.505 14.395 19.505 25 19 C25 18.34 25 17.68 25 17 C30.61079614 16.21251984 36.21212036 15.79442866 41.875 15.625 C43.15117188 15.57601563 44.42734375 15.52703125 45.7421875 15.4765625 C49 16 49 16 50.953125 18.32421875 C52.27327769 21.69848961 52.06938683 23.56268519 51 27 C47.39821412 29.40119059 44.49133631 29.43771322 40.3125 29.625 C39.2596582 29.68300781 39.2596582 29.68300781 38.18554688 29.7421875 C36.45745345 29.8362334 34.72876325 29.9191968 33 30 C33 30.66 33 31.32 33 32 C30.03 32 27.06 32 24 32 C24 32.66 24 33.32 24 34 C19.38 34.33 14.76 34.66 10 35 C10.33 35.99 10.66 36.98 11 38 C11.20124115 39.56625704 11.36354211 41.13771203 11.5 42.7109375 C11.5825 43.62617188 11.665 44.54140625 11.75 45.484375 C11.8325 46.43828125 11.915 47.3921875 12 48.375 C12.16418793 50.25803027 12.33077891 52.14085286 12.5 54.0234375 C12.5721875 54.85794434 12.644375 55.69245117 12.71875 56.55224609 C12.96319101 59.0146414 12.96319101 59.0146414 13.51855469 61.46118164 C14.4316111 66.27602626 14.2267734 71.1762035 14.25 76.0625 C14.270625 77.15111328 14.29125 78.23972656 14.3125 79.36132812 C14.31765625 80.40869141 14.3228125 81.45605469 14.328125 82.53515625 C14.34214355 83.96420288 14.34214355 83.96420288 14.35644531 85.42211914 C13.93405665 88.47691495 13.1796689 89.83631199 11 92 C7.60929308 92.42383837 5.19037173 92.63486492 2.125 91 C-0.8927087 85.63518453 -0.1302696 78.01585518 -0.0625 72 C-0.05798828 71.22527344 -0.05347656 70.45054687 -0.04882812 69.65234375 C-0.03719758 67.76819476 -0.01926906 65.88408635 0 64 C-0.66 64 -1.32 64 -2 64 C-2.08040527 63.23333008 -2.16081055 62.46666016 -2.24365234 61.67675781 C-2.61278559 58.20027033 -2.99375669 54.7251794 -3.375 51.25 C-3.50132812 50.0434375 -3.62765625 48.836875 -3.7578125 47.59375 C-3.88671875 46.43359375 -4.015625 45.2734375 -4.1484375 44.078125 C-4.26364746 43.00981445 -4.37885742 41.94150391 -4.49755859 40.84082031 C-4.97485221 38.14218644 -5.77958708 36.41061449 -7 34 C-7 32.68 -7 31.36 -7 30 C-7.99 30 -8.98 30 -10 30 C-10 27.69 -10 25.38 -10 23 C-9.01 23 -8.02 23 -7 23 C-7 22.34 -7 21.68 -7 21 C-7.99 21 -8.98 21 -10 21 C-11.73899822 14.29243545 -13.25467791 7.76403372 -11 1 C-7.50970582 -0.47666292 -3.72563614 -0.07164685 0 0 Z " fill="#FCFCFC" transform="translate(572,319)"/>
<path d="M0 0 C3.3 0 6.6 0 10 0 C10 0.66 10 1.32 10 2 C10.99 2.33 11.98 2.66 13 3 C14.16963052 5.51920419 14.02072795 6.90326956 13.4375 9.625 C12 12 12 12 8.875 13.3125 C7.451875 13.6528125 7.451875 13.6528125 6 14 C6 15.98 6 17.96 6 20 C8.31 20.99 10.62 21.98 13 23 C13 23.66 13 24.32 13 25 C15.64 25.33 18.28 25.66 21 26 C21 26.66 21 27.32 21 28 C22.134375 27.938125 23.26875 27.87625 24.4375 27.8125 C29.33847991 27.78619778 33.473967 29.23987606 38 31 C38 31.66 38 32.32 38 33 C38.804375 33.144375 39.60875 33.28875 40.4375 33.4375 C43 34 43 34 44 35 C44.23529412 42.29411765 44.23529412 42.29411765 43 46 C40.9375 46.6875 40.9375 46.6875 39 47 C39 47.66 39 48.32 39 49 C25.07359029 52.70383237 12.35750346 54.30620268 -2 54 C-2 54.66 -2 55.32 -2 56 C-6.06901169 57.35633723 -9.76157566 57.40365946 -14 57 C-16.0625 54.8125 -16.0625 54.8125 -17 52 C-16.8125 49.4375 -16.8125 49.4375 -16 47 C-15.79632813 46.32582031 -15.59265625 45.65164063 -15.3828125 44.95703125 C-13.20894671 41.88045847 -10.68333417 41.91167528 -7.0625 41.25 C-6.06174438 41.06570435 -6.06174438 41.06570435 -5.04077148 40.87768555 C0.65117531 39.90054191 6.2308644 39.67616079 12 40 C12 39.34 12 38.68 12 38 C11.33613281 37.89042969 10.67226563 37.78085937 9.98828125 37.66796875 C0.76470588 36.01176471 0.76470588 36.01176471 -3 33 C-3 32.34 -3 31.68 -3 31 C-3.639375 30.731875 -4.27875 30.46375 -4.9375 30.1875 C-7 29 -7 29 -8 26 C-8.90265487 9.80530973 -8.90265487 9.80530973 -6 4 C-4.02111039 3.27306096 -2.02045442 2.60183749 0 2 C0 1.34 0 0.68 0 0 Z " fill="#FCFCFC" transform="translate(507,358)"/>
<path d="M0 0 C0.83787199 2.74212651 1.30670756 4.3299822 0.08984375 6.98828125 C-3.13991884 10.09730505 -6.85741953 10.80605127 -11.125 11.9375 C-12.03991211 12.18983398 -12.95482422 12.44216797 -13.89746094 12.70214844 C-24.24044341 15.47116323 -34.73675469 17.4746927 -45.25195312 19.46289062 C-49.18652038 20.23190697 -53.09161148 21.10804411 -57 22 C-56.505 23.485 -56.505 23.485 -56 25 C-55.47951458 31.76631041 -57.27209423 36.40814134 -61 42 C-65.39241756 44.83381778 -69.95740925 44.37716939 -75 44 C-78.8173448 43.17014243 -79.74994668 42.30562073 -82.25 39.25 C-83.98358814 36.03047917 -84.65585073 33.61356735 -85 30 C-85.82951172 30.24363281 -85.82951172 30.24363281 -86.67578125 30.4921875 C-89.2417004 31.05280849 -91.56299677 31.13275333 -94.1875 31.125 C-95.06792969 31.12757813 -95.94835937 31.13015625 -96.85546875 31.1328125 C-99 31 -99 31 -100 30 C-100.1875 27.0625 -100.1875 27.0625 -100 24 C-97.05533887 21.05533887 -93.45432612 20.86289372 -89.5 20.0625 C-81.21716177 18.30019399 -73.23945637 16.42300552 -65.44921875 13.0390625 C-59.84023809 10.77892762 -54.27030901 9.77473478 -48.3125 8.875 C-42.06575831 7.89400617 -36.04993586 6.84730866 -30 5 C-28.52549002 4.68563747 -27.04634979 4.3918207 -25.5625 4.125 C-22.3199865 3.51047125 -19.13137149 2.79008207 -15.94140625 1.94921875 C-14.87394165 1.66957275 -14.87394165 1.66957275 -13.78491211 1.38427734 C-12.36559772 1.00855288 -10.94833129 0.62498844 -9.53344727 0.23291016 C-6.05641506 -0.68391288 -3.41485946 -1.37469983 0 0 Z " fill="#FCFCFC" transform="translate(844,251)"/>
<path d="M0 0 C2.25 -0.3125 2.25 -0.3125 5 0 C8.40679831 2.93363187 9.25884117 5.48757367 9.75 9.8125 C9.85011115 11.2072304 9.93912884 12.60300686 10 14 C10.66 14 11.32 14 12 14 C12 18.62 12 23.24 12 28 C11.34 28 10.68 28 10 28 C9.80664062 28.58007812 9.61328125 29.16015625 9.4140625 29.7578125 C7.94270833 34.171875 6.47135417 38.5859375 5 43 C4.01 43 3.02 43 2 43 C1.67 43.99 1.34 44.98 1 46 C0.34 46 -0.32 46 -1 46 C-1 46.66 -1 47.32 -1 48 C-5.62 48 -10.24 48 -15 48 C-15 47.34 -15 46.68 -15 46 C-15.721875 45.835 -16.44375 45.67 -17.1875 45.5 C-22.00693666 42.92963378 -24.30947628 38.07157115 -26 33 C-26.66 33 -27.32 33 -28 33 C-28 32.01 -28 31.02 -28 30 C-28.61875 29.773125 -29.2375 29.54625 -29.875 29.3125 C-32.64128237 27.60391383 -32.90241056 26.00007779 -34 23 C-35.49985609 21.33289654 -35.49985609 21.33289654 -37 20 C-39.1101445 15.77971101 -38.24871787 10.42006486 -37 6 C-35.56359829 5.80426392 -34.12580496 5.61872184 -32.6875 5.4375 C-31.88699219 5.33308594 -31.08648438 5.22867187 -30.26171875 5.12109375 C-28 5 -28 5 -25 6 C-24.12109375 7.92578125 -24.12109375 7.92578125 -23.4375 10.3125 C-21.86470322 15.87064942 -21.86470322 15.87064942 -18.5 20.4375 C-17 22 -17 22 -16.1875 24.4375 C-14.58122187 27.90367912 -12.17421882 28.99886205 -9 31 C-9 31.66 -9 32.32 -9 33 C-8.34 33 -7.68 33 -7 33 C-6.34 31.02 -5.68 29.04 -5 27 C-4.34 27 -3.68 27 -3 27 C-3 22.05 -3 17.1 -3 12 C-3.66 12 -4.32 12 -5 12 C-5 9.69 -5 7.38 -5 5 C-4.34 5 -3.68 5 -3 5 C-2.67 4.01 -2.34 3.02 -2 2 C-1.34 2 -0.68 2 0 2 C0 1.34 0 0.68 0 0 Z " fill="#FDFDFD" transform="translate(560,465)"/>
<path d="M0 0 C0.6875 2.3125 0.6875 2.3125 1 5 C-2.75248103 11.09778167 -14.66488019 12.93817623 -21 15 C-22.50049776 15.49850424 -24.00054615 15.99836453 -25.5 16.5 C-26.20511719 16.73332031 -26.91023437 16.96664062 -27.63671875 17.20703125 C-29.45589197 17.81743152 -31.27008808 18.44267962 -33.08203125 19.07421875 C-34.14808594 19.44160156 -35.21414063 19.80898437 -36.3125 20.1875 C-37.29863281 20.53167969 -38.28476562 20.87585938 -39.30078125 21.23046875 C-42 22 -42 22 -46 22 C-45.9175 23.27875 -45.835 24.5575 -45.75 25.875 C-45.76964555 32.10264051 -47.50073299 37.78768563 -51.35546875 42.7421875 C-53.97492437 45.2282124 -56.01490006 46.00235264 -59.5625 46.5625 C-63.84298313 45.86205731 -65.27702876 45.42316385 -68 42 C-69.01312104 38.0319426 -69.57131613 34.06929762 -70 30 C-70.88042969 30.31195313 -71.76085937 30.62390625 -72.66796875 30.9453125 C-73.82941406 31.33460938 -74.99085938 31.72390625 -76.1875 32.125 C-77.91033203 32.71667969 -77.91033203 32.71667969 -79.66796875 33.3203125 C-83.33791295 34.06892949 -84.81056073 33.88917427 -88 32 C-89 29.625 -89 29.625 -89 27 C-87.84375 24.8984375 -87.84375 24.8984375 -86 23 C-83.46875 22.3125 -83.46875 22.3125 -80.5 22 C-75.2399648 21.28013924 -70.73515189 19.96275984 -65.796875 18.05859375 C-58.74186022 15.38832978 -51.43522262 13.40728345 -44.1875 11.33203125 C-43.14037842 11.03079346 -42.09325684 10.72955566 -41.0144043 10.41918945 C-38.92871071 9.82043716 -36.84168826 9.22628857 -34.75317383 8.63745117 C-28.3203188 6.79144654 -22.1746187 4.57219445 -16 2 C-10.14092338 -0.30309254 -6.22440214 -1.45677497 0 0 Z " fill="#FCFCFC" transform="translate(992,208)"/>
<path d="M0 0 C2 2 2 2 2.125 4.625 C2.08375 5.40875 2.0425 6.1925 2 7 C3.98 6.67 5.96 6.34 8 6 C8.33 5.01 8.66 4.02 9 3 C24.07032696 -0.52375077 24.07032696 -0.52375077 31.0625 2.1875 C33 4 33 4 33.3125 6.6875 C33.209375 7.450625 33.10625 8.21375 33 9 C32.34 9 31.68 9 31 9 C30.67 10.65 30.34 12.3 30 14 C25.65623946 15.58918069 21.56908859 16.35872441 17 17 C14.69 17.66 12.38 18.32 10 19 C10 25.27 10 31.54 10 38 C5.65369489 40.17315255 3.7648384 40.38658049 -0.875 39.72265625 C-3 39 -3 39 -5.5 36 C-7.40119135 31.84330436 -7.79482626 27.52408092 -8 23 C-8.66 23 -9.32 23 -10 23 C-11.77350872 18.42953484 -12.24473867 14.64130433 -12.1875 9.75 C-12.18105469 8.52796875 -12.17460937 7.3059375 -12.16796875 6.046875 C-12 3 -12 3 -11 1 C-7.07703567 -0.30765478 -4.13997567 -0.1971417 0 0 Z " fill="#FBFBFB" transform="translate(381,339)"/>
<path d="M0 0 C2.125 1.875 2.125 1.875 3 4 C2.77962372 7.67293796 2.63033454 9.36966546 0 12 C-2.72869407 11.96712417 -5.2966618 11.43602229 -8 11 C-8.495 9.515 -8.495 9.515 -9 8 C-10.216875 8.020625 -11.43375 8.04125 -12.6875 8.0625 C-15.91977322 8.06824116 -18.84934741 7.78766315 -22 7 C-22.103125 7.928125 -22.20625 8.85625 -22.3125 9.8125 C-23.00531495 13.02464205 -23.3879169 14.11930017 -26 16 C-26.66 16 -27.32 16 -28 16 C-28.33 16.99 -28.66 17.98 -29 19 C-38.41002278 20.51708428 -38.41002278 20.51708428 -43 18 C-43 17.34 -43 16.68 -43 16 C-43.99 16 -44.98 16 -46 16 C-47.60725635 12.78548731 -47.05748185 9.56387464 -47 6 C-47.61488281 6.02320313 -48.22976562 6.04640625 -48.86328125 6.0703125 C-50.07564453 6.09738281 -50.07564453 6.09738281 -51.3125 6.125 C-52.11300781 6.14820313 -52.91351563 6.17140625 -53.73828125 6.1953125 C-56 6 -56 6 -59 4 C-60.08929596 1.04333953 -60.28953237 -0.34855218 -59 -3.25 C-48.93070712 -12.06063127 -10.60090802 -7.31839336 0 0 Z " fill="#FCFCFC" transform="translate(200,329)"/>
<path d="M0 0 C2.4375 0.875 2.4375 0.875 4.4375 3.875 C5.4344879 10.25955712 5.19217573 15.54663354 1.5625 21 C-0.04927719 23.12567716 -1.67528107 24.98778107 -3.5625 26.875 C-6.49992748 27.10231851 -9.31272582 27.19918367 -12.25 27.1875 C-13.04083984 27.20361328 -13.83167969 27.21972656 -14.64648438 27.23632812 C-20.02881731 27.24077266 -23.80415115 26.43338497 -28.5625 23.875 C-30 21.6875 -30 21.6875 -30.5625 19.875 C-33.92240597 20.27028305 -35.55979624 20.87297218 -38.3125 22.9375 C-42.55323761 25.46563204 -45.74087397 25.58931497 -50.5625 24.875 C-56.29214224 22.71046849 -57.95136458 18.09727084 -60.5625 12.875 C-60.63283769 11.00120395 -60.6468022 9.12498898 -60.625 7.25 C-60.61597656 6.24710937 -60.60695313 5.24421875 -60.59765625 4.2109375 C-60.58605469 3.44007812 -60.57445312 2.66921875 -60.5625 1.875 C-57.99827406 0.92528669 -56.65221303 0.85374864 -53.95703125 1.4921875 C-50.89118515 3.26267611 -50.39415215 4.69467157 -49.25 8 C-48.92386719 8.91007813 -48.59773438 9.82015625 -48.26171875 10.7578125 C-48.03097656 11.45648438 -47.80023438 12.15515625 -47.5625 12.875 C-42.26560774 12.22106268 -39.65184469 9.69858477 -35.74609375 6.2734375 C-33.5625 4.875 -33.5625 4.875 -31.55078125 4.95703125 C-29.1245036 6.07721838 -27.33430564 7.43901253 -25.3125 9.1875 C-24.60609375 9.78175781 -23.8996875 10.37601563 -23.171875 10.98828125 C-21.5625 12.875 -21.5625 12.875 -21.5625 16.875 C-19.6037957 16.73423685 -17.64553907 16.5872324 -15.6875 16.4375 C-14.59695313 16.35628906 -13.50640625 16.27507812 -12.3828125 16.19140625 C-9.61521029 16.04498297 -9.61521029 16.04498297 -7.5625 14.875 C-6.95282729 11.8492169 -6.60270073 8.82030688 -6.22265625 5.7578125 C-5.313186 1.78627969 -4.25236931 -0.20743265 0 0 Z " fill="#FDFDFD" transform="translate(558.5625,121.125)"/>
<path d="M0 0 C0.73734375 0.02449219 1.4746875 0.04898437 2.234375 0.07421875 C4.25 0.3125 4.25 0.3125 7.25 1.3125 C8.28291676 3.29570018 9.2837499 5.29597806 10.25 7.3125 C10.91 7.6425 11.57 7.9725 12.25 8.3125 C12.25 8.9725 12.25 9.6325 12.25 10.3125 C13.24 10.6425 14.23 10.9725 15.25 11.3125 C15.745 12.7975 15.745 12.7975 16.25 14.3125 C17.260625 15.116875 18.27125 15.92125 19.3125 16.75 C20.281875 17.595625 21.25125 18.44125 22.25 19.3125 C22.25 20.6325 22.25 21.9525 22.25 23.3125 C23.735 23.8075 23.735 23.8075 25.25 24.3125 C25.745 27.7775 25.745 27.7775 26.25 31.3125 C24.5625 32.875 24.5625 32.875 22.25 34.3125 C18.83550448 34.15602557 17.55001301 33.61416143 15.1171875 31.16796875 C14.45976562 30.28753906 13.80234375 29.40710938 13.125 28.5 C12.46242187 27.62730469 11.79984375 26.75460937 11.1171875 25.85546875 C10.19292969 24.59669922 10.19292969 24.59669922 9.25 23.3125 C8.67507812 22.58675781 8.10015625 21.86101562 7.5078125 21.11328125 C6.25 19.3125 6.25 19.3125 6.25 17.3125 C3.775 16.3225 3.775 16.3225 1.25 15.3125 C1.25 14.6525 1.25 13.9925 1.25 13.3125 C-5.41742175 14.80692212 -10.72189095 16.72290813 -16.1875 20.9375 C-19.69834997 23.54712732 -22.41990698 24.04739226 -26.75 24.3125 C-27.08 25.3025 -27.41 26.2925 -27.75 27.3125 C-31.88882923 30.29245705 -33.5315561 31.38986152 -38.6875 31.0625 C-39.698125 30.815 -40.70875 30.5675 -41.75 30.3125 C-42.5625 27.0625 -42.5625 27.0625 -42.75 23.3125 C-40.625 21.125 -40.625 21.125 -37.75 19.3125 C-36.945625 18.590625 -36.14125 17.86875 -35.3125 17.125 C-32.39949941 15.06458495 -30.26745172 14.63970481 -26.75 14.3125 C-26.75 13.6525 -26.75 12.9925 -26.75 12.3125 C-25.74839844 11.78140625 -24.74679688 11.2503125 -23.71484375 10.703125 C-22.37236564 9.98964013 -21.02991943 9.27609525 -19.6875 8.5625 C-19.03072266 8.21445312 -18.37394531 7.86640625 -17.69726562 7.5078125 C-17.04306641 7.15976562 -16.38886719 6.81171875 -15.71484375 6.453125 C-14.72508545 5.92755005 -14.72508545 5.92755005 -13.71533203 5.39135742 C-11.79126868 4.3351542 -9.92615205 3.20616374 -8.05078125 2.06640625 C-4.93449104 0.41053134 -3.43885487 -0.17682055 0 0 Z " fill="#FCFCFC" transform="translate(184.75,268.6875)"/>
<path d="M0 0 C5.22904759 -0.30642812 7.96981796 0.70494813 12.06640625 4.19140625 C15.62289392 7.77902292 18.77940333 11.42448151 21.19140625 15.87890625 C22.92986015 19.29408795 22.92986015 19.29408795 25.75390625 21.87890625 C28.00121583 24.12621583 28.72331378 25.10357399 29.06640625 28.19140625 C29.72640625 28.19140625 30.38640625 28.19140625 31.06640625 28.19140625 C31.56140625 31.16140625 31.56140625 31.16140625 32.06640625 34.19140625 C30.44140625 35.81640625 30.44140625 35.81640625 28.06640625 37.19140625 C25.06640625 36.75390625 25.06640625 36.75390625 22.06640625 35.19140625 C20.68516662 33.22418617 19.35152499 31.22272297 18.06640625 29.19140625 C17.28007813 28.77117187 16.49375 28.3509375 15.68359375 27.91796875 C10.64357664 24.59306194 8.7184937 18.44357943 6.06640625 13.19140625 C1.11640625 13.19140625 -3.83359375 13.19140625 -8.93359375 13.19140625 C-9.59359375 14.51140625 -10.25359375 15.83140625 -10.93359375 17.19140625 C-12.73828125 18.421875 -12.73828125 18.421875 -14.80859375 19.37890625 C-15.82566406 19.86423828 -15.82566406 19.86423828 -16.86328125 20.359375 C-18.93359375 21.19140625 -18.93359375 21.19140625 -21.125 21.68359375 C-21.72183594 21.85117187 -22.31867187 22.01875 -22.93359375 22.19140625 C-24.0252565 24.12471228 -24.0252565 24.12471228 -24.93359375 26.19140625 C-27.93359375 28.19140625 -27.93359375 28.19140625 -31.49609375 27.94140625 C-34.93359375 27.19140625 -34.93359375 27.19140625 -36.93359375 25.19140625 C-37.3046875 22.78125 -37.3046875 22.78125 -36.93359375 20.19140625 C-35.28125 18.3828125 -35.28125 18.3828125 -32.99609375 16.75390625 C-32.18140625 16.16609375 -31.36671875 15.57828125 -30.52734375 14.97265625 C-29.67140625 14.38484375 -28.81546875 13.79703125 -27.93359375 13.19140625 C-27.09828125 12.60359375 -26.26296875 12.01578125 -25.40234375 11.41015625 C-19.27321639 7.19140625 -19.27321639 7.19140625 -16.93359375 7.19140625 C-16.93359375 6.53140625 -16.93359375 5.87140625 -16.93359375 5.19140625 C-11.22693023 2.46488924 -6.32599861 0.62620996 0 0 Z " fill="#FCFCFC" transform="translate(74.93359375,271.80859375)"/>
<path d="M0 0 C0.6875 2.0625 0.6875 2.0625 1 4 C2.32 4.33 3.64 4.66 5 5 C7.28571429 13.42857143 7.28571429 13.42857143 7 18 C6.34 18 5.68 18 5 18 C4.81824219 18.93972656 4.81824219 18.93972656 4.6328125 19.8984375 C4.46523438 20.71570313 4.29765625 21.53296875 4.125 22.375 C3.96257813 23.18710938 3.80015625 23.99921875 3.6328125 24.8359375 C3 27 3 27 1 29 C-1.125 29.625 -1.125 29.625 -3 30 C-2.505 31.98 -2.505 31.98 -2 34 C-4.39256249 34.70121643 -6.78790489 35.38614901 -9.1875 36.0625 C-9.86103516 36.26166016 -10.53457031 36.46082031 -11.22851562 36.66601562 C-16.17775101 38.04214449 -19.39500765 38.25462881 -24.01953125 36.02734375 C-25.6796875 35.01822917 -27.33984375 34.00911458 -29 33 C-29 32.34 -29 31.68 -29 31 C-30.32 30.67 -31.64 30.34 -33 30 C-34.65 23.4 -36.3 16.8 -38 10 C-33.69521508 7.41712905 -30.78734412 6.19457505 -26.0546875 4.921875 C-25.40299591 4.74617981 -24.75130432 4.57048462 -24.0798645 4.38946533 C-22.71100524 4.02272713 -21.34109525 3.65989056 -19.97021484 3.30078125 C-17.87125515 2.74901557 -15.77748531 2.18003521 -13.68359375 1.609375 C-12.34923492 1.25416768 -11.01460802 0.89996552 -9.6796875 0.546875 C-8.47038574 0.22557617 -7.26108398 -0.09572266 -6.01513672 -0.42675781 C-3 -1 -3 -1 0 0 Z M-14.23046875 10.09375 C-15.43413086 10.43212891 -15.43413086 10.43212891 -16.66210938 10.77734375 C-17.91217773 11.13505859 -17.91217773 11.13505859 -19.1875 11.5 C-20.03248047 11.73847656 -20.87746094 11.97695312 -21.74804688 12.22265625 C-23.83301564 12.81163048 -25.91663977 13.40536099 -28 14 C-27.69078116 15.45903258 -27.37751201 16.91720722 -27.0625 18.375 C-26.88847656 19.18710938 -26.71445312 19.99921875 -26.53515625 20.8359375 C-26.07669307 23.029463 -26.07669307 23.029463 -25 25 C-23.68 25 -22.36 25 -21 25 C-21 25.66 -21 26.32 -21 27 C-19.3954444 26.85851011 -17.79136233 26.71164314 -16.1875 26.5625 C-14.84751953 26.44068359 -14.84751953 26.44068359 -13.48046875 26.31640625 C-10.87256441 26.06510233 -10.87256441 26.06510233 -8 25 C-8 24.34 -8 23.68 -8 23 C-7.01 23 -6.02 23 -5 23 C-4.63597631 21.56496445 -4.28413409 20.12683494 -3.9375 18.6875 C-3.64166016 17.48673828 -3.64166016 17.48673828 -3.33984375 16.26171875 C-2.80114446 13.84042821 -2.80114446 13.84042821 -4 11 C-7.91030787 8.39312809 -9.94560198 8.87818496 -14.23046875 10.09375 Z " fill="#FFFFFF" transform="translate(875,139)"/>
<path d="M0 0 C4.00253544 0.23825984 8.00428829 0.48684973 12.00561523 0.74462891 C13.36416613 0.83073765 14.72289265 0.91412373 16.08178711 0.99462891 C18.04586042 1.11147792 20.00927419 1.23924782 21.97265625 1.3671875 C23.74008179 1.47716064 23.74008179 1.47716064 25.54321289 1.58935547 C29.24693136 2.02933389 32.44921773 2.88579585 36 4 C36 4.66 36 5.32 36 6 C36.7425 6.103125 37.485 6.20625 38.25 6.3125 C41.1973519 7.04933797 42.78383074 7.94799142 45 10 C45 10.66 45 11.32 45 12 C45.66 12 46.32 12 47 12 C49.19568646 16.39137292 47.85874796 22.31750268 47 27 C45.08919256 30.42699161 42.71990268 31.76003244 39 33 C37.16943607 33.11854556 35.33435694 33.17517233 33.5 33.1875 C32.5409375 33.20167969 31.581875 33.21585938 30.59375 33.23046875 C28 33 28 33 25 31 C25 30.01 25 29.02 25 28 C24.34 28 23.68 28 23 28 C20.35177703 21.82081307 19.88732447 16.64785644 20 10 C17.525 9.505 17.525 9.505 15 9 C15 8.34 15 7.68 15 7 C14.02160156 7.03480469 14.02160156 7.03480469 13.0234375 7.0703125 C7.91301097 7.17583753 3.79574967 7.01926302 -1 5 C-0.67 3.35 -0.34 1.7 0 0 Z " fill="#FEFEFE" transform="translate(123,133)"/>
<path d="M0 0 C2.57219491 2.24405482 3.8674503 4.41600451 4.8984375 7.65625 C4.8984375 8.31625 4.8984375 8.97625 4.8984375 9.65625 C5.8884375 9.98625 6.8784375 10.31625 7.8984375 10.65625 C8.5234375 13.46875 8.5234375 13.46875 8.8984375 16.65625 C8.2384375 17.64625 7.5784375 18.63625 6.8984375 19.65625 C5.5784375 19.32625 4.2584375 18.99625 2.8984375 18.65625 C2.8984375 17.99625 2.8984375 17.33625 2.8984375 16.65625 C2.2384375 16.65625 1.5784375 16.65625 0.8984375 16.65625 C-0.0915625 14.67625 -1.0815625 12.69625 -2.1015625 10.65625 C-3.0915625 10.65625 -4.0815625 10.65625 -5.1015625 10.65625 C-5.28332031 11.34332031 -5.46507812 12.03039062 -5.65234375 12.73828125 C-5.90371094 13.63933594 -6.15507812 14.54039062 -6.4140625 15.46875 C-6.77951172 16.80873047 -6.77951172 16.80873047 -7.15234375 18.17578125 C-8.14515937 20.77017598 -8.8822208 22.01170183 -11.1015625 23.65625 C-15.94322376 24.30180484 -18.87256405 24.19043935 -22.9765625 21.46875 C-25.84119334 19.12079915 -27.4205105 17.402036 -28.1015625 13.65625 C-27.94808542 10.62251979 -27.58485872 7.65399276 -27.1015625 4.65625 C-28.0296875 4.8625 -28.9578125 5.06875 -29.9140625 5.28125 C-33.1015625 5.65625 -33.1015625 5.65625 -36.1015625 3.65625 C-36.1015625 0.84375 -36.1015625 0.84375 -35.1015625 -2.34375 C-32.5821992 -3.86574522 -29.93864245 -4.61210972 -27.1015625 -5.34375 C-26.50214844 -5.54484375 -25.90273437 -5.7459375 -25.28515625 -5.953125 C-16.75138606 -7.47973863 -7.02996615 -4.76449533 0 0 Z " fill="#FEFEFE" transform="translate(253.1015625,157.34375)"/>
<path d="M0 0 C3.54044496 4.01250429 4 8.80759112 4 14 C3.67341572 16.99028729 3.05972995 19.12359013 2 22 C-0.0625 23.375 -0.0625 23.375 -2 24 C-2.33 24.66 -2.66 25.32 -3 26 C-9.06465135 28.51461153 -15.09528909 30.0935153 -21.375 27.75 C-23.95508501 26.28289284 -24.83588506 25.41096552 -25.9453125 22.6328125 C-27.18166586 16.48587257 -27.24399235 10.2489153 -27 4 C-26.34 4 -25.68 4 -25 4 C-24.979375 3.401875 -24.95875 2.80375 -24.9375 2.1875 C-24 0 -24 0 -21.0625 -1.75 C-13.9172145 -4.42031204 -6.51760327 -3.85735704 0 0 Z " fill="#FEFEFE" transform="translate(241,502)"/>
<path d="M0 0 C1.2828186 0.0774646 1.2828186 0.0774646 2.59155273 0.15649414 C29.8283937 2.11476247 29.8283937 2.11476247 37.0625 6.9375 C39.39260909 7.61534992 41.72609824 8.28166793 44.0625 8.9375 C47.07149111 9.99471309 47.80922447 10.45627649 49.3125 13.3125 C50.0625 15.9375 50.0625 15.9375 50.0625 19.9375 C46.83458445 22.0894437 45.77849191 22.13836443 42.0625 21.9375 C42.0625 20.9475 42.0625 19.9575 42.0625 18.9375 C41.0725 18.9375 40.0825 18.9375 39.0625 18.9375 C39.0625 18.2775 39.0625 17.6175 39.0625 16.9375 C38.505625 16.81375 37.94875 16.69 37.375 16.5625 C35.0625 15.9375 35.0625 15.9375 33.0078125 15 C28.95001495 13.53617913 24.88296017 12.93880017 20.625 12.3125 C19.74062256 12.18133789 18.85624512 12.05017578 17.94506836 11.91503906 C4.14450686 9.98978635 -7.90549845 10.65425613 -20.9375 15.9375 C-23.95065031 16.94188344 -25.97007005 17.22338631 -28.9375 15.9375 C-30.65851535 13.35597698 -30.9375 12.08831975 -30.9375 8.9375 C-27.47205241 5.74855089 -23.49959888 3.74682577 -18.8125 3.3125 C-14.98917595 3.20887563 -14.98917595 3.20887563 -12.25390625 1.41015625 C-7.9323572 -0.5088355 -4.64701481 -0.32821412 0 0 Z " fill="#FDFDFD" transform="translate(769.9375,498.0625)"/>
<path d="M0 0 C1.98 0 3.96 0 6 0 C7.43121994 3.3395132 8.14101713 5.33721948 7.375 8.9375 C5.79398447 12.45885278 3.98580771 15.69032048 2 19 C1.34 19 0.68 19 0 19 C-0.103125 19.598125 -0.20625 20.19625 -0.3125 20.8125 C-1.09824033 23.31258286 -1.96918853 24.37535082 -4 26 C-4.66 26 -5.32 26 -6 26 C-6 26.66 -6 27.32 -6 28 C-8.35344806 28.33923576 -10.7075484 28.67150534 -13.0625 29 C-13.71927734 29.09539062 -14.37605469 29.19078125 -15.05273438 29.2890625 C-20.19568734 29.99843532 -25.31524059 30.55071988 -30.4375 29.5 C-32.82560419 29.03402845 -34.77044479 28.99729168 -37.1875 29.0625 C-41 29 -41 29 -43 27 C-45.40744096 26.79492953 -45.40744096 26.79492953 -48.0625 26.9375 C-49.70756977 26.99178494 -51.35416024 27.02031901 -53 27 C-53.33 26.67 -53.66 26.34 -54 26 C-54.969375 26.04125 -55.93875 26.0825 -56.9375 26.125 C-57.948125 26.08375 -58.95875 26.0425 -60 26 C-62 23 -62 23 -61.6875 19.375 C-61 16 -61 16 -60 15 C-56.97671037 15.25621099 -54.00562838 15.59760713 -51 16 C-49.89140625 16.14695312 -48.7828125 16.29390625 -47.640625 16.4453125 C-42.38808971 17.16782281 -37.2992093 17.89936535 -32.1875 19.3125 C-27.34107604 20.33365288 -22.89685417 19.70449618 -18.0625 18.9375 C-17.31572998 18.82897705 -16.56895996 18.7204541 -15.79956055 18.60864258 C-12.23500353 17.95251677 -10.3916877 17.52477728 -8.18359375 14.56640625 C-7.79300781 13.71949219 -7.40242188 12.87257813 -7 12 C-6.23236328 11.24783203 -6.23236328 11.24783203 -5.44921875 10.48046875 C-3.61503416 8.60673301 -2.82504673 6.72166291 -1.8125 4.3125 C-1.46832031 3.50425781 -1.12414062 2.69601562 -0.76953125 1.86328125 C-0.51558594 1.24839844 -0.26164062 0.63351562 0 0 Z " fill="#FDFDFD" transform="translate(249,463)"/>
<path d="M0 0 C0.66 0.99 1.32 1.98 2 3 C2.99 3.33 3.98 3.66 5 4 C5.495 6.475 5.495 6.475 6 9 C6.66 9 7.32 9 8 9 C9.95627529 13.71807569 10.40288656 17.04313417 9 22 C4.95273344 25.91670957 -0.64344863 25.69836895 -6 26 C-6 25.34 -6 24.68 -6 24 C-6.57621094 24.19078125 -7.15242188 24.3815625 -7.74609375 24.578125 C-10.38310197 25.07170713 -11.5772148 24.69766015 -14.0625 23.75 C-19.29806648 21.85647012 -24.61908398 20.41814796 -30 19 C-30 15.7 -30 12.4 -30 9 C-28.68 8.67 -27.36 8.34 -26 8 C-26 7.01 -26 6.02 -26 5 C-25.41992188 4.81824219 -24.83984375 4.63648438 -24.2421875 4.44921875 C-20.60822606 3.27987472 -17.29306129 2.16148275 -13.9375 0.3125 C-9.2476313 -1.78297325 -4.90665017 -1.63555006 0 0 Z M-12 11 C-12 11.99 -12 12.98 -12 14 C-11.21625 13.95875 -10.4325 13.9175 -9.625 13.875 C-7 14 -7 14 -5 16 C-3.68 16 -2.36 16 -1 16 C-1.50603992 13.83125748 -1.99983813 12.00032373 -3 10 C-7.65052872 9.73067479 -7.65052872 9.73067479 -12 11 Z " fill="#FDFDFD" transform="translate(197,540)"/>
<path d="M0 0 C4.07846015 0.09518848 6.63881155 1.39635919 10.25 3.3125 C12.27857994 3.77807572 14.30878853 4.23802072 16.34765625 4.65625 C20.26899592 5.54290554 24.13158422 6.59494115 28 7.6875 C28.73323486 7.88456543 29.46646973 8.08163086 30.22192383 8.28466797 C34.69380435 9.56876936 37.76294684 11.0862894 41.25 14.3125 C40.70276317 17.68712715 40.1951 19.39485 38.25 22.3125 C35.125 22.5 35.125 22.5 32.25 22.3125 C31.755 20.8275 31.755 20.8275 31.25 19.3125 C29.48050905 19.20434775 27.70912513 19.12683917 25.9375 19.0625 C24.45830078 18.99289062 24.45830078 18.99289062 22.94921875 18.921875 C20.12153678 19.02814976 20.12153678 19.02814976 18.58203125 21.265625 C18.14246094 21.94109375 17.70289062 22.6165625 17.25 23.3125 C10.16995671 25.67251443 3.88082263 24.39109622 -2.75 21.3125 C-4.2976555 18.21718901 -4.19409451 14.9458237 -4.46875 11.52734375 C-4.5165741 9.34179332 -4.5165741 9.34179332 -5.75 8.3125 C-5.9375 5.375 -5.9375 5.375 -5.75 2.3125 C-3.75 0.3125 -3.75 0.3125 0 0 Z " fill="#FDFDFD" transform="translate(54.75,317.6875)"/>
<path d="M0 0 C2.375 2.125 2.375 2.125 4 4 C4.99 4.33 5.98 4.66 7 5 C7.495 8.465 7.495 8.465 8 12 C2.70769231 14.21538462 2.70769231 14.21538462 -0.875 13.125 C-1.57625 12.75375 -2.2775 12.3825 -3 12 C-3 11.34 -3 10.68 -3 10 C-4.98 9.67 -6.96 9.34 -9 9 C-9 8.34 -9 7.68 -9 7 C-9.556875 7.15984375 -10.11375 7.3196875 -10.6875 7.484375 C-13.16493411 8.03677585 -15.46549335 8.14439556 -18 8.25 C-24.50777131 8.78500546 -30.26056278 10.91913153 -36 14 C-36.33 14.66 -36.66 15.32 -37 16 C-38.98 16 -40.96 16 -43 16 C-43 16.66 -43 17.32 -43 18 C-43.81404297 18.38091797 -43.81404297 18.38091797 -44.64453125 18.76953125 C-45.35996094 19.11371094 -46.07539062 19.45789063 -46.8125 19.8125 C-47.52019531 20.14894531 -48.22789063 20.48539062 -48.95703125 20.83203125 C-51.04478569 21.9068218 -51.04478569 21.9068218 -52.57421875 23.57421875 C-54 25 -54 25 -57 26 C-57.99 25.34 -58.98 24.68 -60 24 C-60.40843923 21.28796348 -60.13336867 18.7562858 -60 16 C-59.01 15.67 -58.02 15.34 -57 15 C-57 14.34 -57 13.68 -57 13 C-55.865625 12.54625 -54.73125 12.0925 -53.5625 11.625 C-49.95278308 10.42904194 -49.95278308 10.42904194 -49 8 C-47.34302621 7.30959426 -45.6744239 6.6469365 -44 6 C-43.113125 5.46375 -42.22625 4.9275 -41.3125 4.375 C-39 3 -39 3 -37 3 C-37 2.34 -37 1.68 -37 1 C-34.02307914 0.32163757 -31.04411189 -0.34284652 -28.0625 -1 C-27.23169922 -1.19078125 -26.40089844 -1.3815625 -25.54492188 -1.578125 C-16.58204486 -3.53112544 -8.45567019 -4.04919417 0 0 Z " fill="#FCFCFC" transform="translate(161,483)"/>
<path d="M0 0 C3.21486373 0.41040814 5.2061143 1.27884932 7.60546875 3.48828125 C11.06174378 8.38382624 12.27435915 14.82449497 11.5 20.6875 C7.24419496 28.00748468 7.24419496 28.00748468 3.9375 30.375 C-1.13308468 31.68850891 -6.02707844 31.88799052 -11.0625 30.375 C-11.3925 29.055 -11.7225 27.735 -12.0625 26.375 C-13.0525 26.375 -14.0425 26.375 -15.0625 26.375 C-17.39121187 20.47559659 -19.31851789 13.5848235 -16.9375 7.5 C-11.6371109 1.49289235 -7.71014536 0.94409943 0 0 Z " fill="#FEFEFE" transform="translate(141.0625,503.625)"/>
<path d="M0 0 C3.50874225 3.31565109 6.18599354 7.09542478 9 11 C9.99189385 12.00804096 10.98959193 13.01051754 12 14 C13.49687963 16.84407129 14.04937307 18.46923949 13.75 21.6875 C13 24 13 24 11 26 C8.375 26.125 8.375 26.125 6 26 C5.505 24.515 5.505 24.515 5 23 C4.01 22.67 3.02 22.34 2 22 C2 21.34 2 20.68 2 20 C1.401875 19.773125 0.80375 19.54625 0.1875 19.3125 C-2.56351888 17.66188867 -3.52484637 15.8027919 -5 13 C-11.76796147 13.3562085 -18.26347226 17.26347226 -23 22 C-26.5 22.3125 -26.5 22.3125 -30 22 C-32 19 -32 19 -31.9375 16.0625 C-30.14323281 10.20122717 -23.96754237 7.6696843 -18.875 4.8125 C-18.25496094 4.45736328 -17.63492188 4.10222656 -16.99609375 3.73632812 C-11.56891097 0.66092455 -6.2372794 -1.89275931 0 0 Z " fill="#FDFDFD" transform="translate(131,378)"/>
<path d="M0 0 C5.50397007 1.27242319 9.48103005 3.35124068 14.01171875 6.7265625 C16.062327 8.07141648 17.65984299 8.63049073 20.0546875 9.06640625 C20.0546875 9.72640625 20.0546875 10.38640625 20.0546875 11.06640625 C22.0346875 11.06640625 24.0146875 11.06640625 26.0546875 11.06640625 C26.0546875 11.72640625 26.0546875 12.38640625 26.0546875 13.06640625 C26.7146875 13.14890625 27.3746875 13.23140625 28.0546875 13.31640625 C31.98578037 14.29917947 35.68717314 15.78467923 39.0546875 18.06640625 C39.5496875 19.55140625 39.5496875 19.55140625 40.0546875 21.06640625 C40.7146875 21.39640625 41.3746875 21.72640625 42.0546875 22.06640625 C41.7246875 24.04640625 41.3946875 26.02640625 41.0546875 28.06640625 C37.57645635 29.22581663 35.59573172 28.77461509 32.0546875 28.06640625 C32.0546875 27.40640625 32.0546875 26.74640625 32.0546875 26.06640625 C30.4046875 26.06640625 28.7546875 26.06640625 27.0546875 26.06640625 C26.5596875 24.58140625 26.5596875 24.58140625 26.0546875 23.06640625 C25.2709375 23.00453125 24.4871875 22.94265625 23.6796875 22.87890625 C19.58575315 21.96130027 16.43183425 20.34317446 12.734375 18.41015625 C8.61961767 16.3467794 4.35326644 14.70352461 0.0546875 13.06640625 C0.0546875 12.40640625 0.0546875 11.74640625 0.0546875 11.06640625 C-0.8734375 10.63328125 -0.8734375 10.63328125 -1.8203125 10.19140625 C-3.9453125 9.06640625 -3.9453125 9.06640625 -5.9453125 7.06640625 C-5.71106017 4.64579885 -5.14935945 3.32778362 -3.65234375 1.41015625 C-1.9453125 0.06640625 -1.9453125 0.06640625 0 0 Z " fill="#FCFCFC" transform="translate(732.9453125,426.93359375)"/>
<path d="M0 0 C2 3 2 3 1.9375 5 C0.58273563 7.89016398 -1.17926614 8.56434373 -4 10 C-7.015625 10.66015625 -7.015625 10.66015625 -10.25 11.0625 C-16.70300842 11.94477573 -22.98201123 12.91352404 -29.125 15.125 C-32.52571078 16.15999893 -35.46106483 16.06553584 -39 16 C-39.721875 16.185625 -40.44375 16.37125 -41.1875 16.5625 C-43.49409363 17.11926398 -44.8052476 16.87790096 -47 16 C-49 13 -49 13 -49 9 C-48.34 9 -47.68 9 -47 9 C-46.67 8.01 -46.34 7.02 -46 6 C-45.21496094 5.95101563 -44.42992187 5.90203125 -43.62109375 5.8515625 C-37.78655917 5.43634409 -32.6149839 4.69508948 -27 3 C-25.50322229 2.80652065 -24.00259046 2.64142028 -22.5 2.5 C-18.48862106 2.11796391 -14.85867256 1.18728386 -11 0 C-7.01568632 -1.06896221 -4.01433507 -1.07048935 0 0 Z " fill="#FDFDFD" transform="translate(847,438)"/>
<path d="M0 0 C1.68359375 1.4921875 1.68359375 1.4921875 3 3 C3.66 3.268125 4.32 3.53625 5 3.8125 C7.90383006 5.5366491 8.59717855 8.00306327 10 11 C10.66 11.33 11.32 11.66 12 12 C13.75983132 16.07539885 14.25792333 18.72306069 13 23 C11.35 22.67 9.7 22.34 8 22 C7.731875 21.030625 7.46375 20.06125 7.1875 19.0625 C6.5996875 17.5465625 6.5996875 17.5465625 6 16 C5.01 15.67 4.02 15.34 3 15 C0 10.66666667 0 10.66666667 0 8 C-7.92 8 -15.84 8 -24 8 C-25.32 10.64 -26.64 13.28 -28 16 C-30.6875 17.0625 -30.6875 17.0625 -33 17 C-34 16 -34 16 -34.0546875 13.890625 C-33.74650356 9.36166108 -33.52991635 6.70655513 -30.75 3 C-22.45942634 -3.02950812 -9.71120456 -2.182106 0 0 Z " fill="#FCFCFC" transform="translate(256,124)"/>
<path d="M0 0 C0.99 0.66 1.98 1.32 3 2 C3.34057617 4.70556641 3.34057617 4.70556641 3.29296875 8.1015625 C3.28330078 9.31328125 3.27363281 10.525 3.26367188 11.7734375 C3.23853516 13.04445313 3.21339844 14.31546875 3.1875 15.625 C3.17396484 16.90375 3.16042969 18.1825 3.14648438 19.5 C3.11103196 22.66708282 3.06161441 25.83333541 3 29 C2.34 29 1.68 29 1 29 C1 29.99 1 30.98 1 32 C-2.0832635 33.54163175 -4.60878099 33.29747535 -8 33 C-10.32764073 30.75592076 -10.95243071 29.32681765 -11.41992188 26.11499023 C-11.47249502 22.55499955 -11.5073983 18.9979339 -11.5 15.4375 C-11.52835937 14.19291016 -11.55671875 12.94832031 -11.5859375 11.66601562 C-11.58851563 10.47556641 -11.59109375 9.28511719 -11.59375 8.05859375 C-11.60083984 6.96861084 -11.60792969 5.87862793 -11.61523438 4.75561523 C-11 2 -11 2 -8.65820312 0.10961914 C-5.2922334 -1.29544445 -3.47601978 -0.98235342 0 0 Z " fill="#FBFBFB" transform="translate(470,372)"/>
<path d="M0 0 C8.07912708 0.62605782 14.81893378 3.46273889 22 7 C23.57959867 7.71662304 25.16273281 8.42552632 26.75 9.125 C27.46542969 9.44210938 28.18085938 9.75921875 28.91796875 10.0859375 C31.93668396 11.4112271 34.96642232 12.70911588 38 14 C38 14.66 38 15.32 38 16 C39.051875 16.268125 40.10375 16.53625 41.1875 16.8125 C44.59072912 17.87252219 47.13158918 18.91388304 50 21 C50 21.66 50 22.32 50 23 C51.98 23.33 53.96 23.66 56 24 C56.495 26.475 56.495 26.475 57 29 C53.85088521 30.57455739 51.47991184 30.34799118 48 30 C46.57331054 28.83270863 45.15074964 27.65481728 43.8203125 26.37890625 C40.09637556 23.55798406 35.40909097 22.40431901 31 21 C31 20.34 31 19.68 31 19 C29.68 19 28.36 19 27 19 C27 18.34 27 17.68 27 17 C26.01 17 25.02 17 24 17 C24 16.34 24 15.68 24 15 C23.42765625 14.85691406 22.8553125 14.71382812 22.265625 14.56640625 C17.1328125 13.28320312 17.1328125 13.28320312 12 12 C12 11.34 12 10.68 12 10 C11.13375 9.9175 10.2675 9.835 9.375 9.75 C5.44331356 8.8762919 3.11438378 7.53496354 0 5 C-0.9375 2.8125 -0.9375 2.8125 -1 1 C-0.67 0.67 -0.34 0.34 0 0 Z " fill="#FDFDFD" transform="translate(128,103)"/>
<path d="M0 0 C0.886875 0.2475 1.77375 0.495 2.6875 0.75 C2.6875 2.07 2.6875 3.39 2.6875 4.75 C2.0275 4.75 1.3675 4.75 0.6875 4.75 C0.0275 6.4 -0.6325 8.05 -1.3125 9.75 C-1.9725 9.75 -2.6325 9.75 -3.3125 9.75 C-3.3125 10.41 -3.3125 11.07 -3.3125 11.75 C-4.09496094 11.95496094 -4.87742187 12.15992188 -5.68359375 12.37109375 C-6.69550781 12.64050781 -7.70742188 12.90992188 -8.75 13.1875 C-9.75933594 13.45433594 -10.76867187 13.72117187 -11.80859375 13.99609375 C-14.23002001 14.50978077 -14.23002001 14.50978077 -15.3125 15.75 C-19.59294697 16.24700561 -23.8939229 16.50505771 -28.19311523 16.78979492 C-30.34273107 16.93531552 -32.49044198 17.0991087 -34.63867188 17.26367188 C-41.56741214 17.75236329 -47.68784542 18.06733691 -54.3125 15.75 C-54.3125 13.44 -54.3125 11.13 -54.3125 8.75 C-52.52091511 8.72303635 -50.72921527 8.70362083 -48.9375 8.6875 C-47.93976563 8.67589844 -46.94203125 8.66429687 -45.9140625 8.65234375 C-43.3125 8.75 -43.3125 8.75 -41.3125 9.75 C-32.56428018 10.45842458 -23.9360725 9.05342796 -15.3125 7.75 C-15.3125 7.09 -15.3125 6.43 -15.3125 5.75 C-14.260625 5.5025 -13.20875 5.255 -12.125 5 C-9.21853289 4.20042973 -8.14724048 3.6089248 -5.75 1.5625 C-3.3125 -0.25 -3.3125 -0.25 0 0 Z " fill="#FDFDFD" transform="translate(549.3125,580.25)"/>
<path d="M0 0 C2.58902489 3.60614181 3.04822453 7.04261222 2.75 11.4375 C1.2309257 14.6827951 0.02125462 15.96640192 -3.34765625 17.21484375 C-7.46312037 18.26603909 -11.19426128 19.01473173 -15.25 17.4375 C-18.12862025 15.60565075 -19.85499168 14.32626872 -21.25 11.1875 C-21.25 7.15921995 -20.43494685 3.85194237 -18.25 0.4375 C-14.8125 -1.5 -14.8125 -1.5 -11.25 -2.5625 C-10.198125 -2.9646875 -10.198125 -2.9646875 -9.125 -3.375 C-5.45848834 -3.74165117 -2.92520914 -2.03139523 0 0 Z " fill="#FFFFFF" transform="translate(813.25,115.5625)"/>
<path d="M0 0 C0.33 0.66 0.66 1.32 1 2 C1.99 2.33 2.98 2.66 4 3 C5.67544105 6.95567545 6.26983452 10.82254028 5.3125 15 C4 17 4 17 1 18 C1 18.66 1 19.32 1 20 C-4.16044765 21.512545 -7.65998179 22.33500455 -13 21 C-13.33 20.01 -13.66 19.02 -14 18 C-14.99 17.67 -15.98 17.34 -17 17 C-18.44365482 10.02233503 -18.44365482 10.02233503 -16.5625 5.6875 C-11.93524602 0.83452631 -6.6486042 -0.49864532 0 0 Z " fill="#FFFFFF" transform="translate(898,92)"/>
<path d="M0 0 C2.41796875 1.8359375 2.41796875 1.8359375 4 4 C4 4.99 4 5.98 4 7 C-6.97582229 10.15488612 -19.78449686 9.66155602 -31 8 C-30.67 6.35 -30.34 4.7 -30 3 C-28.5459375 2.814375 -28.5459375 2.814375 -27.0625 2.625 C-24.2820034 2.24282019 -21.64912339 1.65349045 -18.9375 0.9375 C-12.79199881 -0.45053561 -6.236086 -0.91638624 0 0 Z " fill="#FDFDFD" transform="translate(209,196)"/>
<path d="M0 0 C3.3125 -0.3125 3.3125 -0.3125 7 0 C9.46944232 2.70842061 9.94927858 4.49278578 10.3125 8.125 C10 11 10 11 8 14 C1.24822695 14.643026 1.24822695 14.643026 -2.0625 12.9375 C-3.58469758 9.79162501 -2.75782126 7.32275476 -2 4 C-0.9375 1.5625 -0.9375 1.5625 0 0 Z " fill="#F8F8F8" transform="translate(461,349)"/>
<path d="M0 0 C1.6875 1.9375 1.6875 1.9375 2.1875 4.75 C1.57842666 8.63284257 0.0477033 10.83973316 -2.3125 13.9375 C-5.65623475 13.38021087 -8.34562999 12.58576111 -11.3125 10.9375 C-11.79836118 4.62130463 -11.79836118 4.62130463 -9.625 1.5625 C-6.20453382 -0.84107083 -3.91679172 -1.799607 0 0 Z " fill="#FDFDFD" transform="translate(475.3125,555.0625)"/>
<path d="M0 0 C0 0.99 0 1.98 0 3 C0.99 3 1.98 3 3 3 C3 4.98 3 6.96 3 9 C2.34 9 1.68 9 1 9 C1 9.66 1 10.32 1 11 C-4.625 13.125 -4.625 13.125 -8 12 C-8 11.34 -8 10.68 -8 10 C-8.66 10 -9.32 10 -10 10 C-10.33 7.69 -10.66 5.38 -11 3 C-10.01 2.67 -9.02 2.34 -8 2 C-8 1.34 -8 0.68 -8 0 C-4.71023192 -1.09658936 -3.28696233 -0.79953138 0 0 Z " fill="#FBFBFB" transform="translate(566,545)"/>
<path d="M0 0 C3.125 0.25 3.125 0.25 5.0625 1.375 C6.65013015 4.17670027 5.86570176 6.21985644 5.125 9.25 C4.135 9.58 3.145 9.91 2.125 10.25 C2.125 10.91 2.125 11.57 2.125 12.25 C0.805 12.58 -0.515 12.91 -1.875 13.25 C-1.978125 12.610625 -2.08125 11.97125 -2.1875 11.3125 C-2.414375 10.631875 -2.64125 9.95125 -2.875 9.25 C-3.865 8.92 -4.855 8.59 -5.875 8.25 C-3.71305668 0.32287449 -3.71305668 0.32287449 0 0 Z " fill="#F8F8F8" transform="translate(725.875,461.75)"/>
<path d="M0 0 C2 0.75 2 0.75 4 3.75 C3.43396226 10.31603774 3.43396226 10.31603774 2 11.75 C-0.33944736 11.46269945 -2.6739143 11.13063221 -5 10.75 C-6.15081169 6.72215907 -5.96281457 4.46901707 -4 0.75 C-2 -0.25 -2 -0.25 0 0 Z " fill="#FAFAFA" transform="translate(834,474.25)"/>
<path d="M0 0 C0.99 0 1.98 0 3 0 C3 2.97 3 5.94 3 9 C2.01 9 1.02 9 0 9 C0 6.03 0 3.06 0 0 Z " fill="#F7F7F7" transform="translate(394,225)"/>
</svg>
