<?xml version="1.0" encoding="UTF-8"?>
<svg version="1.1" xmlns="http://www.w3.org/2000/svg" width="457" height="457">
<path d="M0 0 C1.49045266 5.45601682 1.2226375 11.07476778 1.25 16.6875 C1.270625 17.72583984 1.29125 18.76417969 1.3125 19.83398438 C1.34707931 26.72823483 0.38794171 32.52860593 -2 39 C-2.66 39 -3.32 39 -4 39 C-4.0825 39.9075 -4.165 40.815 -4.25 41.75 C-5.10559643 45.45758451 -6.24394771 46.50232761 -9 49 C-9.33 49.99 -9.66 50.98 -10 52 C-11.64302953 53.68997323 -13.31471312 55.35216394 -15 57 C-16.03213388 58.17769122 -17.05269929 59.36560424 -18.0625 60.5625 C-20.27157231 63.1634129 -22.44917688 65.72247935 -25 68 C-25.66 68 -26.32 68 -27 68 C-27.37125 68.8353125 -27.37125 68.8353125 -27.75 69.6875 C-29.56239774 73.04043581 -31.53114492 76.26557246 -35 78 C-33.68 78.33 -32.36 78.66 -31 79 C-31 79.66 -31 80.32 -31 81 C-30.04222656 81.10957031 -29.08445313 81.21914062 -28.09765625 81.33203125 C-17.99037198 82.52368622 -8.00517643 84.14260339 2 86 C2 86.66 2 87.32 2 88 C3.03125 88.0825 4.0625 88.165 5.125 88.25 C12.05336397 89.09735387 19.74317509 90.87158755 26 94 C26 94.99 26 95.98 26 97 C26.94875 97.0825 27.8975 97.165 28.875 97.25 C33.88977467 97.93991766 38.38454926 100.00337644 43 102 C43 102.66 43 103.32 43 104 C43.680625 104.0825 44.36125 104.165 45.0625 104.25 C48.80113057 105.20454398 51.95802338 106.59969032 55 109 C56.1875 111.6875 56.1875 111.6875 57 114 C58.96128755 114.8237956 58.96128755 114.8237956 61 115 C61.66 115.33 62.32 115.66 63 116 C63.44921875 117.92578125 63.44921875 117.92578125 63.6875 120.3125 C63.81705078 121.48232422 63.81705078 121.48232422 63.94921875 122.67578125 C63.99984424 124.99287105 63.67173402 126.79287394 63 129 C62.34 129 61.68 129 61 129 C60.67 130.32 60.34 131.64 60 133 C59.21625 133.0825 58.4325 133.165 57.625 133.25 C56.325625 133.62125 56.325625 133.62125 55 134 C54.29848848 135.3153341 53.63474075 136.65117592 53 138 C48.71428571 141 48.71428571 141 46 141 C46 141.66 46 142.32 46 143 C44.56705502 143.84114171 43.12845595 144.67265687 41.6875 145.5 C40.88699219 145.9640625 40.08648437 146.428125 39.26171875 146.90625 C37 148 37 148 34 148 C34 148.99 34 149.98 34 151 C29.38022715 154.3968918 24.70867253 156 19 156 C19 156.66 19 157.32 19 158 C18.40832031 158.19335938 17.81664062 158.38671875 17.20703125 158.5859375 C12.1472778 160.2508429 12.1472778 160.2508429 7.1875 162.1875 C5 163 5 163 1 163 C1 163.66 1 164.32 1 165 C0.34 165 -0.32 165 -1 165 C-1.33 165.99 -1.66 166.98 -2 168 C-3.43739513 168.02712066 -4.87493863 168.04645067 -6.3125 168.0625 C-7.11300781 168.07410156 -7.91351563 168.08570313 -8.73828125 168.09765625 C-11 168 -11 168 -14 167 C-16.3217513 160.36642484 -16.3217513 160.36642484 -15.3828125 156.37890625 C-13.55268726 153.23047045 -11.98725553 152.79269999 -8.5625 151.6875 C-7.59441406 151.36136719 -6.62632812 151.03523437 -5.62890625 150.69921875 C-3 150 -3 150 0 150 C0 149.01 0 148.02 0 147 C2.45714547 146.16301614 4.91558857 145.33027576 7.375 144.5 C8.07367188 144.26152344 8.77234375 144.02304688 9.4921875 143.77734375 C14.7734375 142 14.7734375 142 17 142 C17 141.34 17 140.68 17 140 C18.95649397 139.16235732 20.91525556 138.33000941 22.875 137.5 C23.96554688 137.0359375 25.05609375 136.571875 26.1796875 136.09375 C29 135 29 135 31 135 C31.33 134.01 31.66 133.02 32 132 C33.55859375 130.39453125 33.55859375 130.39453125 35.4375 128.8125 C36.05496094 128.28269531 36.67242187 127.75289062 37.30859375 127.20703125 C39 126 39 126 41 126 C41.33 125.01 41.66 124.02 42 123 C42.66 122.67 43.32 122.34 44 122 C42.35 121.34 40.7 120.68 39 120 C39 119.34 39 118.68 39 118 C35.7 117.01 32.4 116.02 29 115 C29 114.34 29 113.68 29 113 C27.02 112.67 25.04 112.34 23 112 C23 111.34 23 110.68 23 110 C21.72125 109.731875 20.4425 109.46375 19.125 109.1875 C13.99937583 108.0548104 9.00710512 106.56798699 4 105 C4 104.34 4 103.68 4 103 C3.28972656 102.93941406 2.57945312 102.87882812 1.84765625 102.81640625 C0.46900391 102.69072266 0.46900391 102.69072266 -0.9375 102.5625 C-2.31228516 102.44068359 -2.31228516 102.44068359 -3.71484375 102.31640625 C-6 102 -6 102 -7 101 C-8.33630117 100.70569228 -9.68419222 100.46338167 -11.03515625 100.24609375 C-12.24848633 100.04790039 -12.24848633 100.04790039 -13.48632812 99.84570312 C-14.33646484 99.71099609 -15.18660156 99.57628906 -16.0625 99.4375 C-16.91650391 99.29892578 -17.77050781 99.16035156 -18.65039062 99.01757812 C-20.76634451 98.67476995 -22.88310118 98.33692384 -25 98 C-25 97.01 -25 96.02 -25 95 C-26.19625 94.896875 -27.3925 94.79375 -28.625 94.6875 C-37.25400057 93.73024162 -45.80799466 91.87155271 -54 89 C-54 88.34 -54 87.68 -54 87 C-55.98 86.34 -57.96 85.68 -60 85 C-59.855625 85.58007812 -59.71125 86.16015625 -59.5625 86.7578125 C-58.49110572 91.26659675 -57.76054064 95.33054247 -58 100 C-57.01 100 -56.02 100 -55 100 C-51.91100301 108.34029187 -49.51511249 117.02958115 -50 126 C-49.34 126 -48.68 126 -48 126 C-46.09582689 144.19165379 -46.09582689 144.19165379 -48 148 C-48.66 148 -49.32 148 -50 148 C-50.144375 148.639375 -50.28875 149.27875 -50.4375 149.9375 C-51 152 -51 152 -52 153 C-53.64340867 153.09854655 -55.2911461 153.12972411 -56.9375 153.125 C-57.83339844 153.12757813 -58.72929687 153.13015625 -59.65234375 153.1328125 C-62 153 -62 153 -64 152 C-64.40729228 149.67843403 -64.74438677 147.3431213 -65 145 C-65.66 145 -66.32 145 -67 145 C-67.86033267 139.55656538 -68.71464282 134.11223179 -69.56347656 128.66699219 C-69.85285285 126.8161492 -70.14385003 124.96555886 -70.43652344 123.11523438 C-70.85782248 120.44987309 -71.27321248 117.78364647 -71.6875 115.1171875 C-71.81874268 114.29507782 -71.94998535 113.47296814 -72.08520508 112.62594604 C-72.74027808 108.37044289 -73.14589195 104.32204888 -73 100 C-73.99 100 -74.98 100 -76 100 C-76.11593506 99.10692139 -76.23187012 98.21384277 -76.35131836 97.29370117 C-76.78318799 93.97795247 -77.21771741 90.66257492 -77.65405273 87.34741211 C-77.8422944 85.91298144 -78.02947721 84.4784114 -78.21557617 83.04370117 C-78.48337482 80.98058041 -78.75498713 78.91799212 -79.02734375 76.85546875 C-79.27085571 74.99378052 -79.27085571 74.99378052 -79.51928711 73.09448242 C-79.91585401 69.97434939 -79.91585401 69.97434939 -81 67 C-81.12781786 64.32605036 -81.04391871 61.67904143 -81 59 C-81.66 59 -82.32 59 -83 59 C-86.32551883 47.12314704 -87.21031584 35.53722604 -87.3125 23.25 C-87.33006348 22.08227051 -87.34762695 20.91454102 -87.36572266 19.71142578 C-87.36491699 18.61556152 -87.36411133 17.51969727 -87.36328125 16.390625 C-87.36626221 15.40094727 -87.36924316 14.41126953 -87.37231445 13.39160156 C-87.24945068 12.60237305 -87.12658691 11.81314453 -87 11 C-84 9 -84 9 -81 9 C-80.67 8.01 -80.34 7.02 -80 6 C-76.99208089 3.95891203 -74.57804656 3.80121964 -71 4 C-71 3.34 -71 2.68 -71 2 C-8.45445753 -7.0556291 -8.45445753 -7.0556291 0 0 Z M-20 12 C-20 12.66 -20 13.32 -20 14 C-20.59941406 13.97679688 -21.19882813 13.95359375 -21.81640625 13.9296875 C-37.97237376 13.60794704 -54.28111319 15.27514531 -70 19 C-69.7831958 20.07266113 -69.7831958 20.07266113 -69.56201172 21.16699219 C-67.54321198 31.34342666 -66.4860115 41.39522555 -65.875 51.75 C-65.78832719 53.14066044 -65.70109075 54.53128587 -65.61328125 55.921875 C-65.40333907 59.28094985 -65.19902438 62.64026364 -65 66 C-64.34 66 -63.68 66 -63 66 C-62.93941406 66.86882812 -62.87882812 67.73765625 -62.81640625 68.6328125 C-62.73261719 69.78523438 -62.64882812 70.93765625 -62.5625 72.125 C-62.48128906 73.26195312 -62.40007812 74.39890625 -62.31640625 75.5703125 C-62.02269035 78.7540478 -61.56875687 81.85510907 -61 85 C-60.67 85 -60.34 85 -60 85 C-60 81.7 -60 78.4 -60 75 C-58.02 74.505 -58.02 74.505 -56 74 C-55.67 73.01 -55.34 72.02 -55 71 C-53.01363702 70.29373761 -51.01151741 69.63106429 -49 69 C-46.65738392 67.62073227 -46.65738392 67.62073227 -45 66 C-45 65.34 -45 64.68 -45 64 C-43.515 63.505 -43.515 63.505 -42 63 C-42 62.01 -42 61.02 -42 60 C-41.443125 59.773125 -40.88625 59.54625 -40.3125 59.3125 C-37.3530491 57.63281165 -35.33873216 55.45866715 -33 53 C-32.4225 52.46375 -31.845 51.9275 -31.25 51.375 C-29.74340914 49.90383382 -29.74340914 49.90383382 -29 47 C-28.319375 46.525625 -27.63875 46.05125 -26.9375 45.5625 C-25.9784375 44.7890625 -25.9784375 44.7890625 -25 44 C-25 42.68 -25 41.36 -25 40 C-23.68 39.34 -22.36 38.68 -21 38 C-21 37.34 -21 36.68 -21 36 C-20.34 36 -19.68 36 -19 36 C-14.64550997 28.04832255 -14.8708739 20.86665896 -15 12 C-16.65 12 -18.3 12 -20 12 Z " fill="#EFEFEF" transform="translate(196,47)"/>
<path d="M0 0 C1.98 0 3.96 0 6 0 C6 0.66 6 1.32 6 2 C6.639375 2.12375 7.27875 2.2475 7.9375 2.375 C8.9584375 2.684375 8.9584375 2.684375 10 3 C11.60876265 6.21752529 11.39590948 9.71840075 11.62109375 13.2734375 C11.99627889 15.97322338 12.7486866 17.61895831 14 20 C14 20.99 14 21.98 14 23 C14.556875 23.04125 15.11375 23.0825 15.6875 23.125 C18.57667216 24.21820028 19.53210261 25.97567974 21.36328125 28.3671875 C24.5780408 31.57427459 28.88789285 33.19546366 33 35 C33 35.99 33 36.98 33 38 C33.70125 38.268125 34.4025 38.53625 35.125 38.8125 C39.70396105 40.70381 43.55789221 42.40823535 47 46 C47.86625 46.495 48.7325 46.99 49.625 47.5 C52 49 52 49 53 52 C53.66 52 54.32 52 55 52 C56.5078125 53.390625 56.5078125 53.390625 58.125 55.25 C58.66382812 55.85328125 59.20265625 56.4565625 59.7578125 57.078125 C61 59 61 59 61 63 C61.66 63 62.32 63 63 63 C63.495 66.465 63.495 66.465 64 70 C64.66 70 65.32 70 66 70 C69.50991636 81.46572679 69.09958165 93.67737424 69.1875 105.5625 C69.20055176 106.59761719 69.21360352 107.63273437 69.22705078 108.69921875 C69.23396049 114.7481744 68.7430494 119.51390121 66 125 C62.7 125 59.4 125 56 125 C52.11363816 119.18575788 52.65625583 113.42763077 52.8125 106.625 C52.82603516 105.50738281 52.83957031 104.38976562 52.85351562 103.23828125 C52.88872836 100.49168789 52.93797904 97.74609711 53 95 C52.34 95 51.68 95 51 95 C50.505 90.545 50.505 90.545 50 86 C49.01 86.66 48.02 87.32 47 88 C43.8125 88.125 43.8125 88.125 41 88 C41 88.66 41 89.32 41 90 C38.36 90 35.72 90 33 90 C33 90.66 33 91.32 33 92 C29.87669547 92.65421182 26.75109398 93.29676159 23.625 93.9375 C22.31982422 94.21110352 22.31982422 94.21110352 20.98828125 94.49023438 C15.00808498 95.7084225 9.08286407 96.5096049 3 97 C3 97.66 3 98.32 3 99 C1.02 99 -0.96 99 -3 99 C-3 99.99 -3 100.98 -3 102 C-2.34 102 -1.68 102 -1 102 C-1 111.24 -1 120.48 -1 130 C-1.66 130 -2.32 130 -3 130 C-3.226875 130.639375 -3.45375 131.27875 -3.6875 131.9375 C-5 134 -5 134 -7.625 134.75 C-8.40875 134.8325 -9.1925 134.915 -10 135 C-10 135.66 -10 136.32 -10 137 C-10.99 137 -11.98 137 -13 137 C-13 136.34 -13 135.68 -13 135 C-13.804375 134.79375 -14.60875 134.5875 -15.4375 134.375 C-16.283125 133.92125 -17.12875 133.4675 -18 133 C-19.55989572 127.33079612 -19.16152023 121.23937444 -19.16796875 115.40234375 C-19.17202225 114.26685089 -19.17607574 113.13135803 -19.18025208 111.9614563 C-19.18969554 108.28677551 -19.18965144 104.61219126 -19.1875 100.9375 C-19.1882251 99.69700897 -19.1889502 98.45651794 -19.18969727 97.17843628 C-19.18851981 79.04106157 -18.85241211 61.05362814 -17 43 C-16.34 43 -15.68 43 -15 43 C-14.96261719 42.32839844 -14.92523437 41.65679687 -14.88671875 40.96484375 C-14.38005233 33.26550102 -13.58347143 25.60036614 -12.6875 17.9375 C-12.58203857 16.9261499 -12.47657715 15.9147998 -12.36791992 14.87280273 C-11.48776012 7.68734464 -11.48776012 7.68734464 -9.12890625 4.36328125 C-6.17759982 2.47336209 -3.45173381 2.26551799 0 2 C0 1.34 0 0.68 0 0 Z M3 33 C2.67 36.63 2.34 40.26 2 44 C1.34 44 0.68 44 0 44 C-0.84800767 51.692641 -1.12152487 59.26291674 -1 67 C-1.66 67 -2.32 67 -3 67 C-4.12862175 72.36095333 -4.09688221 77.55306686 -4 83 C-3.67 82.34 -3.34 81.68 -3 81 C-0.3671875 80.69140625 -0.3671875 80.69140625 3.125 80.5625 C9.83171 80.18610301 16.04350137 79.10527343 22.62109375 77.69921875 C26.41338363 76.91445587 30.15036656 76.39281974 34 76 C34 75.34 34 74.68 34 74 C38.62 73.67 43.24 73.34 48 73 C48 72.01 48 71.02 48 70 C47.34 70 46.68 70 46 70 C45.9175 69.236875 45.835 68.47375 45.75 67.6875 C44.84730645 64.45284809 43.86406539 63.64900735 41 62 C40.34 62 39.68 62 39 62 C38.505 60.515 38.505 60.515 38 59 C34.31082874 56.13064457 32.75567676 55 28 55 C27.92652344 54.39285156 27.85304688 53.78570312 27.77734375 53.16015625 C26.71494857 50.20787217 25.34214863 49.78507366 22.5625 48.4375 C19.21598454 46.79915776 18.13553915 46.20330873 16 43 C15.21625 42.731875 14.4325 42.46375 13.625 42.1875 C10.09051461 40.58856613 9.07358377 38.21071035 7 35 C5.68 34.34 4.36 33.68 3 33 Z " fill="#EDEDED" transform="translate(24,159)"/>
<path d="M0 0 C1.08667969 0.10183594 2.17335938 0.20367187 3.29296875 0.30859375 C4.12441406 0.39238281 4.95585937 0.47617187 5.8125 0.5625 C5.8125 1.2225 5.8125 1.8825 5.8125 2.5625 C6.81410156 2.52769531 7.81570312 2.49289062 8.84765625 2.45703125 C21.92602226 2.14012922 21.92602226 2.14012922 27.8125 5.5625 C28.8025 6.0575 28.8025 6.0575 29.8125 6.5625 C30.42132353 14.47720588 30.42132353 14.47720588 28.375 18.125 C24.5847199 20.25125469 21.06266698 19.88943592 16.8125 19.5625 C16.8125 18.9025 16.8125 18.2425 16.8125 17.5625 C13.37515937 17.47546177 9.93810163 17.42209728 6.5 17.375 C5.03530273 17.33729492 5.03530273 17.33729492 3.54101562 17.29882812 C2.60322266 17.28916016 1.66542969 17.27949219 0.69921875 17.26953125 C-0.16485596 17.2538208 -1.02893066 17.23811035 -1.91918945 17.22192383 C-4.69300192 17.63839874 -5.38187126 18.48818602 -7.1875 20.5625 C-10.45835727 22.3719104 -13.50569736 23.85446103 -17.1875 24.5625 C-17.1875 25.5525 -17.1875 26.5425 -17.1875 27.5625 C-17.95835938 27.87703125 -18.72921875 28.1915625 -19.5234375 28.515625 C-20.52632812 28.94359375 -21.52921875 29.3715625 -22.5625 29.8125 C-23.56023437 30.23015625 -24.55796875 30.6478125 -25.5859375 31.078125 C-28.45924408 32.71754917 -28.92800824 33.61976225 -30.1875 36.5625 C-31.1775 37.2225 -32.1675 37.8825 -33.1875 38.5625 C-34.37982613 40.61253955 -34.37982613 40.61253955 -35.1875 42.5625 C-35.8475 42.5625 -36.5075 42.5625 -37.1875 42.5625 C-37.5175 44.2125 -37.8475 45.8625 -38.1875 47.5625 C-38.8475 47.5625 -39.5075 47.5625 -40.1875 47.5625 C-40.290625 48.366875 -40.39375 49.17125 -40.5 50 C-41.03319277 52.76290799 -41.6623592 54.96142511 -42.625 57.5625 C-44.7767732 63.71193028 -45.40877099 70.12195304 -46.1875 76.5625 C-46.8475 76.5625 -47.5075 76.5625 -48.1875 76.5625 C-48.1875 79.5325 -48.1875 82.5025 -48.1875 85.5625 C-47.5275 85.5625 -46.8675 85.5625 -46.1875 85.5625 C-44.20425978 92.43773277 -44.20425978 92.43773277 -43.90625 94.65625 C-43.33456377 96.76305331 -43.33456377 96.76305331 -41.12109375 97.828125 C-40.29738281 98.15296875 -39.47367188 98.4778125 -38.625 98.8125 C-37.38556641 99.31523437 -37.38556641 99.31523437 -36.12109375 99.828125 C-35.16396484 100.19164062 -35.16396484 100.19164062 -34.1875 100.5625 C-34.1875 101.2225 -34.1875 101.8825 -34.1875 102.5625 C-26.48167885 104.55351757 -18.93041133 105.1482633 -11 105.625 C-8.52717942 105.77995147 -6.05451468 105.93741496 -3.58203125 106.09765625 C-2.49768799 106.163479 -1.41334473 106.22930176 -0.29614258 106.29711914 C2.78176135 106.55987588 5.77402053 107.01220173 8.8125 107.5625 C8.8125 108.2225 8.8125 108.8825 8.8125 109.5625 C16.0725 109.5625 23.3325 109.5625 30.8125 109.5625 C30.8125 108.9025 30.8125 108.2425 30.8125 107.5625 C31.45058594 107.35753906 32.08867187 107.15257812 32.74609375 106.94140625 C33.57238281 106.67199219 34.39867187 106.40257812 35.25 106.125 C36.07371094 105.85816406 36.89742188 105.59132813 37.74609375 105.31640625 C39.77469588 104.74094506 39.77469588 104.74094506 40.8125 103.5625 C42.95703125 103.359375 42.95703125 103.359375 45.625 103.3125 C46.49769531 103.28671875 47.37039062 103.2609375 48.26953125 103.234375 C51.32879129 103.62911823 52.64346855 104.38853893 54.8125 106.5625 C55.41066437 109.87959332 55.67013664 111.43951968 54.8125 114.5625 C50.82595528 120.26848094 44.3731547 122.25495693 37.8125 123.5625 C36.8225 123.5625 35.8325 123.5625 34.8125 123.5625 C34.8125 124.2225 34.8125 124.8825 34.8125 125.5625 C25.5725 125.5625 16.3325 125.5625 6.8125 125.5625 C6.8125 124.9025 6.8125 124.2425 6.8125 123.5625 C5.84538086 123.51762451 4.87826172 123.47274902 3.88183594 123.42651367 C0.23566464 123.254089 -3.40954475 123.06566146 -7.0546875 122.87280273 C-8.6215314 122.79205248 -10.18859473 122.71543509 -11.75585938 122.64331055 C-21.23181534 122.20404788 -30.05217987 121.36796617 -39.1875 118.5625 C-39.1875 117.9025 -39.1875 117.2425 -39.1875 116.5625 C-40.3321875 116.376875 -40.3321875 116.376875 -41.5 116.1875 C-44.1875 115.5625 -44.1875 115.5625 -47.1875 113.5625 C-47.1875 112.9025 -47.1875 112.2425 -47.1875 111.5625 C-48.0228125 111.4696875 -48.0228125 111.4696875 -48.875 111.375 C-52.13846487 110.22837721 -53.82804906 108.04294843 -56.1875 105.5625 C-57.1775 104.9025 -58.1675 104.2425 -59.1875 103.5625 C-61.75004646 98.63452603 -62.88691893 94.11869554 -63.1875 88.5625 C-63.26677734 87.13550781 -63.26677734 87.13550781 -63.34765625 85.6796875 C-63.55170039 78.17441161 -62.86056932 70.98589515 -61.8125 63.5625 C-61.68649414 62.66635986 -61.56048828 61.77021973 -61.43066406 60.84692383 C-60.73453949 56.23054158 -59.84782668 51.95153747 -58.1875 47.5625 C-57.5275 47.5625 -56.8675 47.5625 -56.1875 47.5625 C-55.8575 45.2525 -55.5275 42.9425 -55.1875 40.5625 C-54.5275 40.5625 -53.8675 40.5625 -53.1875 40.5625 C-53.06375 40.005625 -52.94 39.44875 -52.8125 38.875 C-51.3178911 33.34494705 -49.30541208 30.5799752 -45.1875 26.5625 C-44.6925 25.69625 -44.1975 24.83 -43.6875 23.9375 C-41.89435413 21.09835237 -40.18076277 20.02075622 -37.1875 18.5625 C-36.5275 18.5625 -35.8675 18.5625 -35.1875 18.5625 C-34.8575 17.5725 -34.5275 16.5825 -34.1875 15.5625 C-32.19140625 14.39453125 -32.19140625 14.39453125 -29.75 13.375 C-28.94691406 13.03082031 -28.14382812 12.68664062 -27.31640625 12.33203125 C-25.1875 11.5625 -25.1875 11.5625 -23.1875 11.5625 C-22.8575 10.5725 -22.5275 9.5825 -22.1875 8.5625 C-21.1975 8.5625 -20.2075 8.5625 -19.1875 8.5625 C-19.1875 7.9025 -19.1875 7.2425 -19.1875 6.5625 C-18.094375 6.129375 -17.00125 5.69625 -15.875 5.25 C-13.04318573 4.04776094 -11.27039516 2.85368468 -9.1875 0.5625 C-5.76060364 -0.57979879 -3.57647782 -0.34611076 0 0 Z " fill="#E5E5E5" transform="translate(125.1875,292.4375)"/>
<path d="M0 0 C2.99376551 0.27926917 4.30238208 0.8253046 7 2.375 C9.73117393 6.76143086 9.68514029 10.39292061 9.890625 15.484375 C10.06502263 18.7345126 10.63953427 21.48298984 11.5234375 24.58984375 C12.71174679 29.21391685 13.31493055 33.97592783 14.0625 38.6875 C14.39432807 40.6877503 14.72724236 42.68782167 15.0625 44.6875 C15.7225 44.6875 16.3825 44.6875 17.0625 44.6875 C17.90541786 48.72722867 18.73512865 52.76956109 19.5625 56.8125 C19.80097656 57.95460937 20.03945313 59.09671875 20.28515625 60.2734375 C20.51074219 61.38203125 20.73632812 62.490625 20.96875 63.6328125 C21.17822266 64.64875488 21.38769531 65.66469727 21.60351562 66.71142578 C22.07238982 69.75162599 22.1425787 72.61648194 22.0625 75.6875 C22.7225 75.6875 23.3825 75.6875 24.0625 75.6875 C26.17659642 82.99447404 28.28697196 90.2894665 30.0625 97.6875 C30.7225 97.6875 31.3825 97.6875 32.0625 97.6875 C32.0625 98.3475 32.0625 99.0075 32.0625 99.6875 C32.7225 99.6875 33.3825 99.6875 34.0625 99.6875 C34.22105469 100.35136719 34.37960937 101.01523438 34.54296875 101.69921875 C35.99953999 107.53055122 35.99953999 107.53055122 39.6875 112.125 C42.93787769 115.63198645 42.74339209 118.51075813 42.921875 123.1640625 C42.95862231 125.81412023 42.95862231 125.81412023 44.0625 128.6875 C44.19406527 132.37132769 44.23232138 135.17803585 43.0625 138.6875 C40.7525 139.0175 38.4425 139.3475 36.0625 139.6875 C36.0625 140.3475 36.0625 141.0075 36.0625 141.6875 C26.20360385 145.19659863 14.12684412 146.94151823 4.0625 143.1875 C2.5775 142.445 2.5775 142.445 1.0625 141.6875 C1.0625 141.0275 1.0625 140.3675 1.0625 139.6875 C0.32 139.64625 -0.4225 139.605 -1.1875 139.5625 C-5.06554301 138.32857722 -6.02043561 136.16661685 -7.9375 132.6875 C-7.9375 132.0275 -7.9375 131.3675 -7.9375 130.6875 C-9.2575 130.0275 -10.5775 129.3675 -11.9375 128.6875 C-11.99618218 124.7083966 -12.0313239 120.72940647 -12.0625 116.75 C-12.07925781 115.63302734 -12.09601563 114.51605469 -12.11328125 113.36523438 C-12.20105546 98.39973096 -12.20105546 98.39973096 -8.375 92.125 C-4.70343638 89.95971889 -1.1038912 90.1968632 3.0625 90.6875 C3.7225 91.0175 4.3825 91.3475 5.0625 91.6875 C5.0625 92.3475 5.0625 93.0075 5.0625 93.6875 C7.0425 94.0175 9.0225 94.3475 11.0625 94.6875 C10.85753906 93.96304688 10.65257812 93.23859375 10.44140625 92.4921875 C8.15631981 84.29211653 8.15631981 84.29211653 7.5 80.0625 C7.355625 79.27875 7.21125 78.495 7.0625 77.6875 C6.4025 77.3575 5.7425 77.0275 5.0625 76.6875 C4.42407227 74.60546875 4.42407227 74.60546875 3.87890625 71.875 C3.67330078 70.88113281 3.46769531 69.88726562 3.25585938 68.86328125 C3.04767578 67.81527344 2.83949219 66.76726562 2.625 65.6875 C0.95558086 57.37726846 -1.16696807 49.56108965 -4.05859375 41.6015625 C-5.11489955 38.09932194 -5.5670775 34.69322818 -6 31.0625 C-6.52477134 26.30435198 -6.52477134 26.30435198 -7.4765625 21.625 C-8.8286365 15.94170591 -9.3000999 8.13360862 -6.4375 2.875 C-3.9375 0.6875 -3.9375 0.6875 0 0 Z M4.0625 108.6875 C3.98099256 110.74933633 3.9230806 112.81211349 3.875 114.875 C3.84019531 116.02355469 3.80539062 117.17210937 3.76953125 118.35546875 C4.09036519 122.00442007 4.85465407 123.79951196 7.0625 126.6875 C12.04714028 129.24060844 17.57212576 129.13210658 23.0625 128.6875 C23.3925 128.3575 23.7225 128.0275 24.0625 127.6875 C23.99771484 125.6465495 23.99771484 125.6465495 23.6875 123.3125 C23.59726562 122.52101563 23.50703125 121.72953125 23.4140625 120.9140625 C23.09910446 118.52331507 23.09910446 118.52331507 22.0625 115.6875 C16.70802629 112.50031327 11.29982245 110.6875 5.0625 110.6875 C4.7325 110.0275 4.4025 109.3675 4.0625 108.6875 Z " fill="#EFEFEF" transform="translate(375.9375,41.3125)"/>
<path d="M0 0 C1.17498047 -0.00644531 2.34996094 -0.01289063 3.56054688 -0.01953125 C12.14417471 0.08831559 12.14417471 0.08831559 15.16625977 2.51513672 C16.8125 4.625 16.8125 4.625 16.984375 6.984375 C16.84515625 7.77328125 16.7059375 8.5621875 16.5625 9.375 C16.43359375 10.17421875 16.3046875 10.9734375 16.171875 11.796875 C16.05328125 12.40015625 15.9346875 13.0034375 15.8125 13.625 C14.1625 13.955 12.5125 14.285 10.8125 14.625 C10.8125 15.285 10.8125 15.945 10.8125 16.625 C11.41191406 16.67398437 12.01132812 16.72296875 12.62890625 16.7734375 C14.6330305 16.93878488 16.63690468 17.10717133 18.640625 17.27734375 C21.92082789 17.55455565 25.20238161 17.81132063 28.484375 18.06640625 C30.5312683 18.23154422 32.57814315 18.39691085 34.625 18.5625 C35.61508057 18.63710449 36.60516113 18.71170898 37.62524414 18.78857422 C42.9446843 19.22741121 47.74433587 19.93561196 52.8125 21.625 C52.8125 22.285 52.8125 22.945 52.8125 23.625 C54.7925 23.955 56.7725 24.285 58.8125 24.625 C58.8125 25.285 58.8125 25.945 58.8125 26.625 C59.43125 26.74875 60.05 26.8725 60.6875 27 C62.8125 27.625 62.8125 27.625 64.8125 29.625 C65.25383428 35.00927816 65.21411178 38.21550325 61.8125 42.625 C59.74782144 45.03379165 58.92255341 45.58831553 55.8125 46.625 C55.3175 47.615 55.3175 47.615 54.8125 48.625 C45.56123752 52.1780211 36.66958119 53.79793125 26.8125 53.625 C26.8125 54.285 26.8125 54.945 26.8125 55.625 C5.6925 55.625 -15.4275 55.625 -37.1875 55.625 C-37.1875 54.965 -37.1875 54.305 -37.1875 53.625 C-39.4975 52.965 -41.8075 52.305 -44.1875 51.625 C-44.1875 50.965 -44.1875 50.305 -44.1875 49.625 C-44.8475 49.625 -45.5075 49.625 -46.1875 49.625 C-46.1875 47.315 -46.1875 45.005 -46.1875 42.625 C-45.5275 42.625 -44.8675 42.625 -44.1875 42.625 C-44.1875 41.965 -44.1875 41.305 -44.1875 40.625 C-41.25673654 39.15961827 -38.29048643 39.44633424 -35.07568359 39.41967773 C-34.34387375 39.40977814 -33.6120639 39.39987854 -32.858078 39.38967896 C-30.43406432 39.35803801 -28.01003102 39.33329634 -25.5859375 39.30859375 C-23.90727218 39.28802646 -22.22861207 39.26703005 -20.54995728 39.24562073 C-16.12768769 39.19037682 -11.70537119 39.14097779 -7.28302002 39.09277344 C-2.77197078 39.04257533 1.73901018 38.98688045 6.25 38.93164062 C15.10410836 38.8240307 23.95827596 38.72259203 32.8125 38.625 C32.8125 37.965 32.8125 37.305 32.8125 36.625 C33.8025 36.295 34.7925 35.965 35.8125 35.625 C35.17747559 35.56965088 34.54245117 35.51430176 33.88818359 35.45727539 C30.98773849 35.20309631 28.08762281 34.94532933 25.1875 34.6875 C24.18847656 34.60048828 23.18945312 34.51347656 22.16015625 34.42382812 C17.33767874 33.99267947 12.57519053 33.52714786 7.8125 32.625 C7.8125 31.965 7.8125 31.305 7.8125 30.625 C6.92046875 30.57601563 6.0284375 30.52703125 5.109375 30.4765625 C3.93890625 30.40179688 2.7684375 30.32703125 1.5625 30.25 C0.40234375 30.18039062 -0.7578125 30.11078125 -1.953125 30.0390625 C-4.89444334 29.66251692 -6.68699011 29.1475877 -9.1875 27.625 C-9.1875 26.965 -9.1875 26.305 -9.1875 25.625 C-10.8375 25.295 -12.4875 24.965 -14.1875 24.625 C-14.1875 23.965 -14.1875 23.305 -14.1875 22.625 C-14.991875 22.315625 -15.79625 22.00625 -16.625 21.6875 C-19.1875 20.625 -19.1875 20.625 -20.1875 19.625 C-20.53125 16.89453125 -20.53125 16.89453125 -20.6875 13.4375 C-20.7596875 12.30957031 -20.831875 11.18164062 -20.90625 10.01953125 C-20.03318291 5.89618723 -18.86148781 4.29426198 -15.55419922 1.76538086 C-10.6361751 -0.60434172 -5.34511811 -0.14806421 0 0 Z " fill="#EEEEEE" transform="translate(385.1875,256.375)"/>
<path d="M0 0 C2.65234375 1.0390625 2.65234375 1.0390625 5 3 C5.85234936 5.67109482 6.37151899 7.88862942 6.75 10.625 C6.86577393 11.33978516 6.98154785 12.05457031 7.10083008 12.79101562 C7.89928795 17.8416194 8.54525788 22.90688829 9 28 C9.66 28 10.32 28 11 28 C11.33872513 29.41538717 11.67074624 30.83237963 12 32.25 C12.185625 33.03890625 12.37125 33.8278125 12.5625 34.640625 C13 37 13 37 13 41 C13.66 41 14.32 41 15 41 C15 41.99 15 42.98 15 44 C16.794375 43.7525 16.794375 43.7525 18.625 43.5 C27.08489698 42.57490825 35.99767805 41.70151025 44 45 C46.47730384 47.55988064 47 48.38813866 47 52 C47.99 52 48.98 52 50 52 C52.69450216 58.16394031 53.44311948 63.11955798 53.3125 69.8125 C53.31572266 70.65748047 53.31894531 71.50246094 53.32226562 72.37304688 C53.26787601 78.59818599 53.26787601 78.59818599 51 82 C49.66923011 82.34342449 48.33568021 82.67619874 47 83 C46.5875 83.474375 46.175 83.94875 45.75 84.4375 C42.92953427 86.95577298 39.6600948 87.2199798 36 88 C36 88.66 36 89.32 36 90 C30.94785578 90.38511374 25.89479397 90.74242958 20.83886719 91.07421875 C19.11958345 91.19095624 17.40079524 91.3152489 15.68261719 91.44726562 C13.21120456 91.63583584 10.73927746 91.79707346 8.265625 91.953125 C7.49881409 92.0175177 6.73200317 92.0819104 5.94195557 92.14825439 C2.34135071 92.34988182 0.45271036 92.3380765 -2.4855957 90.14379883 C-4.22896667 87.67587356 -4.51347807 86.43103595 -4.4375 83.4375 C-4.43621094 82.67308594 -4.43492187 81.90867187 -4.43359375 81.12109375 C-3.8931901 78.47749751 -3.19147285 77.55539909 -1 76 C0.32 76 1.64 76 3 76 C2.67 70.72 2.34 65.44 2 60 C1.34 60 0.68 60 0 60 C-0.12117188 58.96101563 -0.24234375 57.92203125 -0.3671875 56.8515625 C-1.45244327 45.27453756 -1.45244327 45.27453756 -4 34 C-4.66 33.67 -5.32 33.34 -6 33 C-6 32.01 -6 31.02 -6 30 C-6.66 30 -7.32 30 -8 30 C-10.63078035 21.74365161 -13.75426766 11.73113688 -11.13671875 3.1796875 C-8.90049635 -1.10832659 -4.3417329 -0.65712714 0 0 Z M28 58 C28 58.66 28 59.32 28 60 C26.700625 59.979375 25.40125 59.95875 24.0625 59.9375 C22.70834367 59.91600546 21.35243917 59.92851801 20 60 C18.63467451 61.13701597 18.63467451 61.13701597 18.90234375 64.16015625 C18.91394531 65.44792969 18.92554688 66.73570312 18.9375 68.0625 C18.94652344 69.35285156 18.95554687 70.64320313 18.96484375 71.97265625 C18.97644531 72.97167969 18.98804688 73.97070312 19 75 C23.51617599 75.07654536 27.59085217 75.10228696 32 74 C32 73.34 32 72.68 32 72 C33.65 71.34 35.3 70.68 37 70 C37.43200679 65.24792529 35.98489083 62.21789302 34 58 C32.02 58 30.04 58 28 58 Z " fill="#F5F5F5" transform="translate(328,321)"/>
<path d="M0 0 C1.15048828 0.11021484 1.15048828 0.11021484 2.32421875 0.22265625 C4.3125 0.9375 4.3125 0.9375 5.45703125 2.93359375 C5.73933594 3.59488281 6.02164063 4.25617188 6.3125 4.9375 C6.9725 5.2675 7.6325 5.5975 8.3125 5.9375 C9.52942936 13.46868548 9.40246397 21.31633016 9.4375 28.9375 C9.44217285 29.64261719 9.4468457 30.34773438 9.45166016 31.07421875 C9.4391013 35.13169531 9.09615117 38.9570496 8.3125 42.9375 C10.2925 42.9375 12.2725 42.9375 14.3125 42.9375 C14.3125 42.2775 14.3125 41.6175 14.3125 40.9375 C15.41658203 40.75574219 15.41658203 40.75574219 16.54296875 40.5703125 C18.00669922 40.31894531 18.00669922 40.31894531 19.5 40.0625 C20.94439453 39.81886719 20.94439453 39.81886719 22.41796875 39.5703125 C25.2261927 38.9563688 27.65883583 38.02126537 30.3125 36.9375 C33.72906102 36.58160823 35.94068321 36.80817242 39.1875 37.9375 C41.3125 39.9375 41.3125 39.9375 42 43.8125 C41.74904376 47.23177879 41.30304085 47.94900438 39 50.75 C30.73525144 56.56665953 19.06979441 57.1086806 9.3125 56.9375 C9.6425 57.5975 9.9725 58.2575 10.3125 58.9375 C10.35272391 61.2704866 10.35570247 63.60456666 10.3125 65.9375 C10.9725 65.9375 11.6325 65.9375 12.3125 65.9375 C14.73738005 81.5972709 16.92197335 97.08211811 17.3125 112.9375 C17.9725 112.9375 18.6325 112.9375 19.3125 112.9375 C19.95694378 118.78352575 20.42027091 124.61882728 20.5625 130.5 C20.58828125 131.49128906 20.6140625 132.48257813 20.640625 133.50390625 C20.53234375 134.30699219 20.4240625 135.11007812 20.3125 135.9375 C17.17838698 138.02690868 16.33799528 138.21114412 12.75 138.1875 C11.57244141 138.19523437 11.57244141 138.19523437 10.37109375 138.203125 C8.3125 137.9375 8.3125 137.9375 6.3125 135.9375 C6.3125 134.9475 6.3125 133.9575 6.3125 132.9375 C5.6525 132.9375 4.9925 132.9375 4.3125 132.9375 C3.05408054 126.19596717 2.04845544 119.80265862 2.3125 112.9375 C1.6525 112.9375 0.9925 112.9375 0.3125 112.9375 C0.20180176 112.00591064 0.09110352 111.07432129 -0.02294922 110.11450195 C-0.44240884 106.59361636 -0.8638767 103.07298237 -1.28662109 99.55249023 C-1.46774046 98.04086484 -1.64810357 96.52914859 -1.82763672 95.01733398 C-2.83795583 86.51428512 -3.91851998 78.0447539 -5.3125 69.59375 C-5.77499793 66.31772302 -5.84098406 63.23740738 -5.6875 59.9375 C-6.3475 59.9375 -7.0075 59.9375 -7.6875 59.9375 C-9.13040203 51.2800878 -8.75106091 42.54934796 -8.66699219 33.80419922 C-8.57655442 23.46811427 -8.91056874 13.24571297 -9.6875 2.9375 C-6.16783962 0.71180553 -4.20490845 -0.50687351 0 0 Z " fill="#F4F4F4" transform="translate(166.6875,184.0625)"/>
<path d="M0 0 C0 0.99 0 1.98 0 3 C0.66 3.0825 1.32 3.165 2 3.25 C5.99039163 4.24759791 9.38549643 6.07166683 13 8 C13 8.66 13 9.32 13 10 C13.7425 10.268125 14.485 10.53625 15.25 10.8125 C18.01842295 12.00795536 19.86888777 12.86888777 22 15 C23.67406075 19.43626098 24.23040675 23.27666171 24 28 C25.32 28.66 26.64 29.32 28 30 C28 30.66 28 31.32 28 32 C28.99 32.33 29.98 32.66 31 33 C31.12375 33.639375 31.2475 34.27875 31.375 34.9375 C31.684375 35.9584375 31.684375 35.9584375 32 37 C33.66072849 37.68132451 35.327767 38.34742127 37 39 C39.36769714 42.15692952 39.3276963 45.14956853 39 49 C37 52 37 52 35.08203125 52.65234375 C28.96423759 53.42101662 26.01454552 52.61047277 21 49 C19.0625 47.375 19.0625 47.375 18 46 C18 45.34 18 44.68 18 44 C16.40865234 44.73089844 16.40865234 44.73089844 14.78515625 45.4765625 C9.07993231 47.60895745 3.45982717 47.43887854 -2.5625 47.375 C-4.20895508 47.39240234 -4.20895508 47.39240234 -5.88867188 47.41015625 C-13.63680683 47.38213406 -18.96602447 46.83171049 -24.8125 41.375 C-25.534375 40.59125 -26.25625 39.8075 -27 39 C-27.66 38.67 -28.32 38.34 -29 38 C-33.41964493 30.01560496 -34.12028967 22.36430199 -32.125 13.5625 C-31 10 -31 10 -29 7 C-28.34 7 -27.68 7 -27 7 C-27 5.68 -27 4.36 -27 3 C-26.34 3 -25.68 3 -25 3 C-24.87625 2.195625 -24.7525 1.39125 -24.625 0.5625 C-24.41875 -0.283125 -24.2125 -1.12875 -24 -2 C-16.92471394 -5.53764303 -7.12642046 -1.85044612 0 0 Z M-14.0625 17.5625 C-16.23725472 20.78722618 -16.23725472 20.78722618 -16.0625 24.0625 C-14.82098878 27.49491337 -13.58637664 29.41362336 -11 32 C-7.65280143 32.85628045 -7.65280143 32.85628045 -4 32.875 C-2.783125 32.93429688 -1.56625 32.99359375 -0.3125 33.0546875 C2.384927 33.01015451 4.45896481 32.82583644 7 32 C7 31.01 7 30.02 7 29 C5.68 28.67 4.36 28.34 3 28 C2.67 25.69 2.34 23.38 2 21 C1.34 21 0.68 21 0 21 C-0.33 20.01 -0.66 19.02 -1 18 C-1.66 18 -2.32 18 -3 18 C-3 17.34 -3 16.68 -3 16 C-9.01724914 14.39942619 -9.01724914 14.39942619 -14.0625 17.5625 Z " fill="#EAEAEA" transform="translate(317,141)"/>
<path d="M0 0 C0.86625 -0.02835937 1.7325 -0.05671875 2.625 -0.0859375 C5 0.375 5 0.375 6.76953125 2.0703125 C8.17869066 4.70969044 8.4917957 6.6502946 8.6875 9.625 C8.78611328 10.96304687 8.78611328 10.96304687 8.88671875 12.328125 C8.92410156 13.00359375 8.96148437 13.6790625 9 14.375 C9.66 14.375 10.32 14.375 11 14.375 C11 16.025 11 17.675 11 19.375 C11.66 19.375 12.32 19.375 13 19.375 C15.33922535 39.07906755 16.617886 58.54096102 17 78.375 C22.09733208 80.03432569 26.75038626 80.7013859 32.12109375 80.7890625 C32.86585464 80.80842865 33.61061554 80.8277948 34.37794495 80.8477478 C36.73101749 80.90700156 39.08414043 80.95370914 41.4375 81 C43.04363983 81.03822985 44.64976025 81.07728442 46.25585938 81.1171875 C50.17041325 81.2126575 54.08506291 81.29688543 58 81.375 C58 82.035 58 82.695 58 83.375 C59.98 83.87 59.98 83.87 62 84.375 C63.125 91 63.125 91 62 94.375 C55.40948025 98.93766752 45.41389636 97.59359663 37.72167969 97.61523438 C35.63696436 97.62494427 33.55323515 97.65603607 31.46875 97.6875 C24.05006389 97.74463325 17.88537859 97.27571382 11 94.375 C11 93.715 11 93.055 11 92.375 C10.05125 92.395625 9.1025 92.41625 8.125 92.4375 C5 92.375 5 92.375 3 91.375 C3 90.715 3 90.055 3 89.375 C1.68 89.045 0.36 88.715 -1 88.375 C-0.98428955 87.46548584 -0.9685791 86.55597168 -0.95239258 85.61889648 C-0.69020442 68.06999031 -0.90992358 51.12940122 -3.65820312 33.74755859 C-4.43991773 28.32134249 -4.72496272 22.84729354 -5 17.375 C-5.66 17.375 -6.32 17.375 -7 17.375 C-7.95278709 14.1324504 -8.19541781 11.12499847 -8.25 7.75 C-8.27578125 6.78835938 -8.3015625 5.82671875 -8.328125 4.8359375 C-8.21984375 4.02382813 -8.1115625 3.21171875 -8 2.375 C-4.80254858 0.24336572 -3.71242084 0.05524436 0 0 Z " fill="#F2F2F2" transform="translate(197,311.625)"/>
<path d="M0 0 C0.79921875 0.00902344 1.5984375 0.01804688 2.421875 0.02734375 C3.02515625 0.03894531 3.6284375 0.05054688 4.25 0.0625 C6.87924467 6.75963266 7.79572488 12.88495308 8.25 20.0625 C14.52 19.7325 20.79 19.4025 27.25 19.0625 C27.25 18.4025 27.25 17.7425 27.25 17.0625 C33.19440807 16.19785883 39.12502865 15.8448763 45.125 15.6875 C45.87450928 15.64947266 46.62401855 15.61144531 47.39624023 15.57226562 C49.5546875 15.5390625 49.5546875 15.5390625 53.25 16.0625 C56.0075774 19.1995115 56.26761696 20.54279957 56.125 24.75 C55.25 28.0625 55.25 28.0625 52.25 30.0625 C49.66114829 30.36241069 47.15850918 30.57115225 44.5625 30.6875 C43.5096582 30.74550781 43.5096582 30.74550781 42.43554688 30.8046875 C40.70745345 30.8987334 38.97876325 30.9816968 37.25 31.0625 C37.25 31.7225 37.25 32.3825 37.25 33.0625 C34.28 33.0625 31.31 33.0625 28.25 33.0625 C28.25 33.7225 28.25 34.3825 28.25 35.0625 C23.63 35.3925 19.01 35.7225 14.25 36.0625 C14.58 36.7225 14.91 37.3825 15.25 38.0625 C15.45770912 39.59525627 15.6171686 41.13472944 15.75 42.67578125 C15.87375 44.0534668 15.87375 44.0534668 16 45.45898438 C16.12375 46.90241211 16.12375 46.90241211 16.25 48.375 C16.41419951 50.2671428 16.58079121 52.15907983 16.75 54.05078125 C16.8221875 54.89165283 16.894375 55.73252441 16.96875 56.59887695 C17.21175075 59.07282661 17.21175075 59.07282661 17.76855469 61.51220703 C18.70819149 66.48961376 18.47700494 71.57470914 18.5 76.625 C18.520625 77.76130859 18.54125 78.89761719 18.5625 80.06835938 C18.56765625 81.16083984 18.5728125 82.25332031 18.578125 83.37890625 C18.5874707 84.37349854 18.59681641 85.36809082 18.60644531 86.39282227 C18.1945457 89.47783749 17.39308258 90.83773913 15.25 93.0625 C13.09375 93.55859375 13.09375 93.55859375 10.75 93.5 C9.9765625 93.49871094 9.203125 93.49742187 8.40625 93.49609375 C6.25 93.0625 6.25 93.0625 4.53125 92.03515625 C1.1779647 86.87232369 2.12019814 79.03683442 2.1875 73.0625 C2.19201172 72.28777344 2.19652344 71.51304687 2.20117188 70.71484375 C2.21280242 68.83069476 2.23073094 66.94658635 2.25 65.0625 C1.59 65.0625 0.93 65.0625 0.25 65.0625 C0.16959473 64.29583008 0.08918945 63.52916016 0.00634766 62.73925781 C-0.36278559 59.26277033 -0.74375669 55.7876794 -1.125 52.3125 C-1.25132812 51.1059375 -1.37765625 49.899375 -1.5078125 48.65625 C-1.63671875 47.49609375 -1.765625 46.3359375 -1.8984375 45.140625 C-2.01364746 44.07231445 -2.12885742 43.00400391 -2.24755859 41.90332031 C-2.72485221 39.20468644 -3.52958708 37.47311449 -4.75 35.0625 C-4.75 33.7425 -4.75 32.4225 -4.75 31.0625 C-5.74 31.0625 -6.73 31.0625 -7.75 31.0625 C-7.70875 29.763125 -7.6675 28.46375 -7.625 27.125 C-7.61448202 23.7645047 -7.93423044 20.81983339 -8.75 17.5625 C-10.12217961 12.01539096 -10.57224468 6.52923405 -8.75 1.0625 C-5.8585914 -0.0569613 -3.07237388 -0.04518197 0 0 Z " fill="#EEEEEE" transform="translate(311.75,215.9375)"/>
<path d="M0 0 C3.96 0 7.92 0 12 0 C12 0.66 12 1.32 12 2 C12.99 2.33 13.98 2.66 15 3 C15.81846842 5.86463946 16.05231071 7.75007107 15.4375 10.6875 C13.4817416 13.83372004 11.51334286 14.1598528 8 15 C8 16.98 8 18.96 8 21 C10.31 21.66 12.62 22.32 15 23 C15 23.66 15 24.32 15 25 C17.64 25.33 20.28 25.66 23 26 C23 26.66 23 27.32 23 28 C24.134375 27.938125 25.26875 27.87625 26.4375 27.8125 C31.33847991 27.78619778 35.473967 29.23987606 40 31 C40 31.66 40 32.32 40 33 C40.804375 33.144375 41.60875 33.28875 42.4375 33.4375 C45 34 45 34 46 35 C46.09858603 36.4555937 46.12972143 37.91607919 46.125 39.375 C46.12886719 40.56222656 46.12886719 40.56222656 46.1328125 41.7734375 C46 44 46 44 45 47 C42.9375 47.6875 42.9375 47.6875 41 48 C41 48.66 41 49.32 41 50 C27.07359029 53.70383237 14.35750346 55.30620268 0 55 C0 55.66 0 56.32 0 57 C-4.63251163 58.311291 -9.22480929 58.71709348 -14 58 C-16.1875 55.875 -16.1875 55.875 -17 53 C-16.77296397 49.29174485 -16.1940199 46.02369128 -14 43 C-10.8046875 41.98828125 -10.8046875 41.98828125 -6.875 41.3125 C-6.20009521 41.19221436 -5.52519043 41.07192871 -4.82983398 40.94799805 C-0.2366214 40.14607873 4.36209223 39.4732559 9 39 C8.07767578 38.70996094 8.07767578 38.70996094 7.13671875 38.4140625 C6.32847656 38.15367187 5.52023438 37.89328125 4.6875 37.625 C3.88699219 37.36976563 3.08648437 37.11453125 2.26171875 36.8515625 C0 36 0 36 -3 34 C-3 33.34 -3 32.68 -3 32 C-3.639375 31.731875 -4.27875 31.46375 -4.9375 31.1875 C-7 30 -7 30 -8 27 C-8.88010899 9.76021798 -8.88010899 9.76021798 -6 4 C-4.02111039 3.27306096 -2.02045442 2.60183749 0 2 C0 1.34 0 0.68 0 0 Z " fill="#F5F5F5" transform="translate(249,255)"/>
<path d="M0 0 C6.26193119 -0.60210877 6.26193119 -0.60210877 9.375 1.9375 C11.49410553 5.93119889 11.80535041 9.53279197 12 14 C12.66 14 13.32 14 14 14 C14 18.95 14 23.9 14 29 C13.34 29 12.68 29 12 29 C11.80664062 29.58007812 11.61328125 30.16015625 11.4140625 30.7578125 C9.94270833 35.171875 8.47135417 39.5859375 7 44 C6.01 44 5.02 44 4 44 C3.67 44.99 3.34 45.98 3 47 C2.34 47 1.68 47 1 47 C1 47.66 1 48.32 1 49 C-4.28 49 -9.56 49 -15 49 C-15 48.34 -15 47.68 -15 47 C-15.721875 46.835 -16.44375 46.67 -17.1875 46.5 C-22.00693666 43.92963378 -24.30947628 39.07157115 -26 34 C-26.66 34 -27.32 34 -28 34 C-28 33.01 -28 32.02 -28 31 C-28.61875 30.773125 -29.2375 30.54625 -29.875 30.3125 C-32.64128237 28.60391383 -32.90241056 27.00007779 -34 24 C-35.49985609 22.33289654 -35.49985609 22.33289654 -37 21 C-38.16968953 18.66062093 -38.13364221 17.22630632 -38.125 14.625 C-38.12886719 13.46871094 -38.12886719 13.46871094 -38.1328125 12.2890625 C-38.00061149 10.01053926 -37.81806147 8.13448223 -37 6 C-34.32356043 5.10785348 -32.74615622 4.86459789 -30 4.875 C-29.319375 4.87242187 -28.63875 4.86984375 -27.9375 4.8671875 C-26 5 -26 5 -23 6 C-22.12109375 7.92578125 -22.12109375 7.92578125 -21.4375 10.3125 C-19.86470322 15.87064942 -19.86470322 15.87064942 -16.5 20.4375 C-15 22 -15 22 -14.25 24.4375 C-12.38949399 28.25153733 -9.75030166 29.12484917 -6 31 C-5.67 29.68 -5.34 28.36 -5 27 C-4.34 27 -3.68 27 -3 27 C-3 22.38 -3 17.76 -3 13 C-3.66 13 -4.32 13 -5 13 C-5 10.36 -5 7.72 -5 5 C-4.34 5 -3.68 5 -3 5 C-2.67 4.01 -2.34 3.02 -2 2 C-1.34 2 -0.68 2 0 2 C0 1.34 0 0.68 0 0 Z " fill="#EEEEEE" transform="translate(302,362)"/>
<path d="M0 0 C1.31677734 -0.02126953 1.31677734 -0.02126953 2.66015625 -0.04296875 C4.9375 0.1875 4.9375 0.1875 6.9375 2.1875 C7.5625 4.3125 7.5625 4.3125 7.9375 6.1875 C8.9275 6.1875 9.9175 6.1875 10.9375 6.1875 C11.2675 5.1975 11.5975 4.2075 11.9375 3.1875 C19.85341399 1.26432784 28.2492374 -0.46718092 36.125 2.3125 C37.9375 4.1875 37.9375 4.1875 38.25 7.375 C38.146875 8.303125 38.04375 9.23125 37.9375 10.1875 C37.2775 10.1875 36.6175 10.1875 35.9375 10.1875 C35.6075 11.8375 35.2775 13.4875 34.9375 15.1875 C30.59373946 16.77668069 26.50658859 17.54622441 21.9375 18.1875 C19.6275 18.8475 17.3175 19.5075 14.9375 20.1875 C14.9375 26.4575 14.9375 32.7275 14.9375 39.1875 C9.97497846 41.66876077 5.98574429 42.01134981 0.625 40.5625 C-3.29725419 37.36658918 -4.20456404 33.12294217 -4.75 28.3125 C-4.86564061 26.93841742 -4.97381893 25.56358552 -5.0625 24.1875 C-5.7225 24.1875 -6.3825 24.1875 -7.0625 24.1875 C-8.91992252 19.45951539 -9.30505589 15.50264192 -9.25 10.4375 C-9.24033203 8.46523437 -9.24033203 8.46523437 -9.23046875 6.453125 C-9.0625 3.1875 -9.0625 3.1875 -8.0625 1.1875 C-5.12020079 0.2067336 -3.0716216 0.02261872 0 0 Z " fill="#EBEBEB" transform="translate(120.0625,235.8125)"/>
<path d="M0 0 C2.65698242 1.12231445 2.65698242 1.12231445 5 3 C5.56762695 5.91088867 5.56762695 5.91088867 5.48828125 9.41796875 C5.47216797 10.67158203 5.45605469 11.92519531 5.43945312 13.21679688 C5.39755859 14.52712891 5.35566406 15.83746094 5.3125 17.1875 C5.28741661 18.52274529 5.26460348 19.85803529 5.24414062 21.19335938 C5.18511522 24.46336707 5.10281476 27.73112333 5 31 C4.34 31 3.68 31 3 31 C3 31.99 3 32.98 3 34 C0.68566978 35.15716511 -0.86060812 35.23210436 -3.4375 35.3125 C-4.21996094 35.34988281 -5.00242188 35.38726562 -5.80859375 35.42578125 C-8 35 -8 35 -9.60766602 33.37402344 C-12.45533095 28.51856248 -11.5109692 22.41935733 -11.5 16.9375 C-11.52835938 15.64521484 -11.55671875 14.35292969 -11.5859375 13.02148438 C-11.58851563 11.78591797 -11.59109375 10.55035156 -11.59375 9.27734375 C-11.60083984 8.14546631 -11.60792969 7.01358887 -11.61523438 5.84741211 C-11 3 -11 3 -8.65039062 1.13110352 C-5.45707848 -0.23170186 -3.44378292 -0.43047287 0 0 Z " fill="#D3D3D3" transform="translate(212,268)"/>
<path d="M0 0 C2.64 0 5.28 0 8 0 C8 6.27 8 12.54 8 19 C7.34 19 6.68 19 6 19 C6.33 13.06 6.66 7.12 7 1 C5.35 1 3.7 1 2 1 C2 1.66 2 2.32 2 3 C0.52744751 3.12060791 0.52744751 3.12060791 -0.97485352 3.24365234 C-4.69343731 3.54924533 -8.41158692 3.85988115 -12.12963867 4.171875 C-13.72458033 4.30504022 -15.31962978 4.43692198 -16.91479492 4.56738281 C-27.3274024 5.42006878 -37.65822805 6.50602868 -48 8 C-47.68232666 8.77239014 -47.36465332 9.54478027 -47.03735352 10.34057617 C-41.79889349 23.77021729 -42.79988635 40.76969594 -43 55 C-42.34 55 -41.68 55 -41 55 C-40.35051881 58.97858003 -39.706085 62.95796229 -39.0625 66.9375 C-38.88009766 68.05447266 -38.69769531 69.17144531 -38.50976562 70.32226562 C-37.50699697 76.53943127 -36.63125398 82.73397362 -36 89 C-35.01 89 -34.02 89 -33 89 C-29.91100301 97.34029187 -27.51511249 106.02958115 -28 115 C-27.34 115 -26.68 115 -26 115 C-24.09582689 133.19165379 -24.09582689 133.19165379 -26 137 C-26.66 137 -27.32 137 -28 137 C-28.144375 137.639375 -28.28875 138.27875 -28.4375 138.9375 C-29 141 -29 141 -30 142 C-31.68608966 142.07205511 -33.37500659 142.08386068 -35.0625 142.0625 C-35.98160156 142.05347656 -36.90070313 142.04445312 -37.84765625 142.03515625 C-38.55792969 142.02355469 -39.26820313 142.01195312 -40 142 C-40 141.67 -40 141.34 -40 141 C-36.7 140.67 -33.4 140.34 -30 140 C-30 138.68 -30 137.36 -30 136 C-29.01 136 -28.02 136 -27 136 C-27.0721875 135.39414063 -27.144375 134.78828125 -27.21875 134.1640625 C-27.8924937 128.08165405 -28.11713363 122.11697862 -28 116 C-28.66 116 -29.32 116 -30 116 C-30.19335938 114.75863281 -30.38671875 113.51726562 -30.5859375 112.23828125 C-30.84865364 110.59630539 -31.11169141 108.95438096 -31.375 107.3125 C-31.50132812 106.49587891 -31.62765625 105.67925781 -31.7578125 104.83789062 C-32.44138865 100.61680791 -33.31349791 96.95228099 -35 93 C-35 92.01 -35 91.02 -35 90 C-35.99 90 -36.98 90 -38 90 C-38.71886963 86.1234573 -39.43069727 82.24569194 -40.13623047 78.36669922 C-40.49471242 76.4039504 -40.85864403 74.44219945 -41.22265625 72.48046875 C-41.56103516 70.61455078 -41.56103516 70.61455078 -41.90625 68.7109375 C-42.11572266 67.56931152 -42.32519531 66.42768555 -42.54101562 65.25146484 C-42.98350683 62.11683829 -43.08372117 59.16047405 -43 56 C-43.66 56 -44.32 56 -45 56 C-45.0501123 55.12375977 -45.10022461 54.24751953 -45.15185547 53.34472656 C-45.34430035 50.03432555 -45.54259966 46.7243756 -45.74462891 43.41455078 C-45.83024081 41.99313671 -45.91364474 40.57158759 -45.99462891 39.14990234 C-45.67280937 24.54156487 -45.67280937 24.54156487 -50 12 C-50.04063832 10.33382885 -50.042721 8.66611905 -50 7 C-33.74179149 3.14734395 -16.71311395 1.35304075 0 2 C0 1.34 0 0.68 0 0 Z " fill="#4F4F4F" transform="translate(174,58)"/>
<path d="M0 0 C0.33 0 0.66 0 1 0 C1.33 6.93 1.66 13.86 2 21 C2.66 21 3.32 21 4 21 C9.76303063 57.67065605 9.76303063 57.67065605 10 74 C10.66 74 11.32 74 12 74 C12.66 80.6 13.32 87.2 14 94 C14.66 94 15.32 94 16 94 C16.66 95.32 17.32 96.64 18 98 C20.97 98 23.94 98 27 98 C26.9278125 97.24976563 26.855625 96.49953125 26.78125 95.7265625 C26.18281132 89.12711373 25.86807783 82.62542432 26 76 C25.34 76 24.68 76 24 76 C23.87939209 74.87525269 23.87939209 74.87525269 23.75634766 73.7277832 C23.38226955 70.25568732 23.00365377 66.78409975 22.625 63.3125 C22.49867188 62.13365234 22.37234375 60.95480469 22.2421875 59.74023438 C21.47195211 52.71183641 20.54366873 45.73829068 19.39257812 38.76171875 C18.92112027 35.44509487 18.84462185 32.34063025 19 29 C18.34 29 17.68 29 17 29 C16.67 25.37 16.34 21.74 16 18 C18.35344806 17.66076424 20.7075484 17.32849466 23.0625 17 C23.71927734 16.90460938 24.37605469 16.80921875 25.05273438 16.7109375 C29.40138763 16.11112326 33.61329071 15.90872907 38 16 C38 16.33 38 16.66 38 17 C31.25846717 18.25841946 24.86515862 19.26404456 18 19 C18.33 19.66 18.66 20.32 19 21 C19.04022391 23.3329866 19.04320247 25.66706666 19 28 C19.66 28 20.32 28 21 28 C23.42488005 43.6597709 25.60947335 59.14461811 26 75 C26.66 75 27.32 75 28 75 C28.64444378 80.84602575 29.10777091 86.68132728 29.25 92.5625 C29.27578125 93.55378906 29.3015625 94.54507813 29.328125 95.56640625 C29.21984375 96.36949219 29.1115625 97.17257812 29 98 C25.86588698 100.08940868 25.02549528 100.27364412 21.4375 100.25 C20.25994141 100.25773437 20.25994141 100.25773437 19.05859375 100.265625 C17 100 17 100 15 98 C15 97.01 15 96.02 15 95 C14.34 95 13.68 95 13 95 C11.74158054 88.25846717 10.73595544 81.86515862 11 75 C10.34 75 9.68 75 9 75 C8.88930176 74.06841064 8.77860352 73.13682129 8.66455078 72.17700195 C8.24509116 68.65611636 7.8236233 65.13548237 7.40087891 61.61499023 C7.21975954 60.10336484 7.03939643 58.59164859 6.85986328 57.07983398 C5.84954417 48.57678512 4.76898002 40.1072539 3.375 31.65625 C2.91250207 28.38022302 2.84651594 25.29990738 3 22 C2.34 22 1.68 22 1 22 C-0.17402193 14.66236293 -0.09377123 7.41834582 0 0 Z " fill="#585858" transform="translate(158,222)"/>
<path d="M0 0 C1.6026782 -0.10824843 3.20745748 -0.18570645 4.8125 -0.25 C5.70582031 -0.29640625 6.59914062 -0.3428125 7.51953125 -0.390625 C10 0 10 0 11.78125 1.6875 C13.17339344 4.32900294 13.4921627 6.28087308 13.6875 9.25 C13.78611328 10.58804687 13.78611328 10.58804687 13.88671875 11.953125 C13.92410156 12.62859375 13.96148437 13.3040625 14 14 C14.66 14 15.32 14 16 14 C16 15.65 16 17.3 16 19 C16.66 19 17.32 19 18 19 C20.33922535 38.70406755 21.617886 58.16596102 22 78 C27.09733208 79.65932569 31.75038626 80.3263859 37.12109375 80.4140625 C37.86585464 80.43342865 38.61061554 80.4527948 39.37794495 80.4727478 C41.73101749 80.53200156 44.08414043 80.57870914 46.4375 80.625 C48.04363983 80.66322985 49.64976025 80.70228442 51.25585938 80.7421875 C55.17041325 80.8376575 59.08506291 80.92188543 63 81 C63 81.66 63 82.32 63 83 C64.98 83.495 64.98 83.495 67 84 C68.125 90.625 68.125 90.625 67 94 C61.78052446 97.61348306 54.62014115 97.12290515 48.53515625 97.09765625 C47.51789711 97.09553383 47.51789711 97.09553383 46.48008728 97.09336853 C44.34084422 97.08782745 42.20171075 97.07528653 40.0625 97.0625 C38.60091298 97.05747736 37.13932431 97.0529158 35.67773438 97.04882812 C32.11845474 97.03787745 28.55923809 97.02065445 25 97 C25 96.67 25 96.34 25 96 C25.82089111 95.98018066 26.64178223 95.96036133 27.48754883 95.93994141 C30.58722331 95.8609827 33.68656554 95.77427091 36.78588867 95.68261719 C38.76530535 95.62634176 40.74496125 95.57869039 42.72460938 95.53125 C50.32908437 95.30022797 57.56725402 94.64956756 65 93 C65 90.69 65 88.38 65 86 C64.34 86 63.68 86 63 86 C62.34 85.01 61.68 84.02 61 83 C58.46211627 82.68589885 56.15527635 82.55900757 53.61328125 82.55859375 C52.87804733 82.54538589 52.14281342 82.53217804 51.38529968 82.51856995 C49.02766243 82.47760488 46.67041279 82.45600946 44.3125 82.4375 C41.97256282 82.4136157 39.63298581 82.38526372 37.29325867 82.34571838 C35.83750382 82.32161809 34.38156095 82.30655161 32.9256134 82.30210876 C28.23009267 82.23111286 24.38308809 81.58415178 20 80 C18.631789 77.263578 18.81936472 75.00665291 18.75390625 71.9453125 C18.72224365 70.69959473 18.69058105 69.45387695 18.65795898 68.17041016 C18.64256073 67.5097052 18.62716248 66.84900024 18.61129761 66.16827393 C18.35646682 55.4978919 17.92111335 44.90121801 16.66040039 34.29345703 C16.09478154 29.48917506 15.91806313 24.83973793 16 20 C15.34 20 14.68 20 14 20 C14 18.68 14 17.36 14 16 C13.34 16 12.68 16 12 16 C11.86722656 15.15695312 11.73445312 14.31390625 11.59765625 13.4453125 C11.42105469 12.34960938 11.24445313 11.25390625 11.0625 10.125 C10.88847656 9.03445313 10.71445313 7.94390625 10.53515625 6.8203125 C10.14448841 4.06178454 10.14448841 4.06178454 9 2 C6.87423218 1.53348793 6.87423218 1.53348793 4.4375 1.375 C3.61121094 1.30023438 2.78492188 1.22546875 1.93359375 1.1484375 C1.29550781 1.09945313 0.65742188 1.05046875 0 1 C0 0.67 0 0.34 0 0 Z " fill="#4B4B4B" transform="translate(192,312)"/>
<path d="M0 0 C2.56314499 -0.08132187 5.12368418 -0.14064175 7.6875 -0.1875 C8.40873047 -0.21263672 9.12996094 -0.23777344 9.87304688 -0.26367188 C14.42139975 -0.32597808 17.52870267 -0.05978598 21 3 C22.47658685 8.46436784 22.22261094 14.06931839 22.25 19.6875 C22.270625 20.72583984 22.29125 21.76417969 22.3125 22.83398438 C22.34707931 29.72823483 21.38794171 35.52860593 19 42 C18.34 42 17.68 42 17 42 C16.9175 42.9075 16.835 43.815 16.75 44.75 C15.89440357 48.45758451 14.75605229 49.50232761 12 52 C11.67 52.99 11.34 53.98 11 55 C9.35697047 56.68997323 7.68528688 58.35216394 6 60 C4.96786612 61.17769122 3.94730071 62.36560424 2.9375 63.5625 C0.72842769 66.1634129 -1.44917688 68.72247935 -4 71 C-4.66 71 -5.32 71 -6 71 C-6.2475 71.556875 -6.495 72.11375 -6.75 72.6875 C-8.56239774 76.04043581 -10.53114492 79.26557246 -14 81 C-12.68 81.33 -11.36 81.66 -10 82 C-10 82.66 -10 83.32 -10 84 C-9.04222656 84.10957031 -8.08445313 84.21914062 -7.09765625 84.33203125 C3.00962802 85.52368622 12.99482357 87.14260339 23 89 C23 89.66 23 90.32 23 91 C24.03125 91.0825 25.0625 91.165 26.125 91.25 C32.58536416 92.03130758 38.78983656 94.12473997 45 96 C41.61988706 97.12670431 40.49542694 96.84431821 37.11328125 96.00390625 C35.7065918 95.66069336 35.7065918 95.66069336 34.27148438 95.31054688 C33.29501953 95.06369141 32.31855469 94.81683594 31.3125 94.5625 C30.32443359 94.31951172 29.33636719 94.07652344 28.31835938 93.82617188 C25.87701555 93.22468137 23.43779191 92.61569994 21 92 C21 91.34 21 90.68 21 90 C20.20980469 89.97421875 19.41960937 89.9484375 18.60546875 89.921875 C8.11801192 89.39450574 -1.78718065 87.34089143 -12 85 C-12 84.34 -12 83.68 -12 83 C-13.65 83 -15.3 83 -17 83 C-16.8125 81.1875 -16.8125 81.1875 -16 79 C-14.824375 78.319375 -14.824375 78.319375 -13.625 77.625 C-10.32931664 75.58481506 -9.64323639 73.4358579 -8 70 C-6.515 69.505 -6.515 69.505 -5 69 C-4.67 68.01 -4.34 67.02 -4 66 C-3.01 66 -2.02 66 -1 66 C-0.896875 65.360625 -0.79375 64.72125 -0.6875 64.0625 C-0.460625 63.381875 -0.23375 62.70125 0 62 C1.485 61.505 1.485 61.505 3 61 C4.22445284 59.37051936 4.22445284 59.37051936 5.1875 57.4375 C6.0846875 55.7359375 6.0846875 55.7359375 7 54 C7.66 54 8.32 54 9 54 C9 53.01 9 52.02 9 51 C9.66 51 10.32 51 11 51 C11.33 49.68 11.66 48.36 12 47 C12.66 47 13.32 47 14 47 C14.33 45.02 14.66 43.04 15 41 C15.66 41 16.32 41 17 41 C18.78633184 33.65326754 19.28076426 26.73208794 19.1875 19.1875 C19.18685547 18.17751953 19.18621094 17.16753906 19.18554688 16.12695312 C19.15861925 11.59413666 18.99775293 7.43738796 18 3 C14.28570102 1.8838344 10.60838492 1.6875805 6.75 1.4375 C5.48671875 1.35371094 4.2234375 1.26992188 2.921875 1.18359375 C1.95765625 1.12300781 0.9934375 1.06242187 0 1 C0 0.67 0 0.34 0 0 Z " fill="#626262" transform="translate(175,44)"/>
<path d="M0 0 C0.66 0 1.32 0 2 0 C5.50991636 11.46572679 5.09958165 23.67737424 5.1875 35.5625 C5.20055176 36.59761719 5.21360352 37.63273437 5.22705078 38.69921875 C5.23396049 44.7481744 4.7430494 49.51390121 2 55 C-1.3 55 -4.6 55 -8 55 C-11.88636184 49.18575788 -11.34374417 43.42763077 -11.1875 36.625 C-11.17396484 35.50738281 -11.16042969 34.38976562 -11.14648438 33.23828125 C-11.11127164 30.49168789 -11.06202096 27.74609711 -11 25 C-11.66 25 -12.32 25 -13 25 C-13.495 20.545 -13.495 20.545 -14 16 C-14.99 16.66 -15.98 17.32 -17 18 C-20.1875 18.125 -20.1875 18.125 -23 18 C-23 18.66 -23 19.32 -23 20 C-25.64 20 -28.28 20 -31 20 C-31 20.66 -31 21.32 -31 22 C-34.12330453 22.65421182 -37.24890602 23.29676159 -40.375 23.9375 C-41.24511719 24.11990234 -42.11523438 24.30230469 -43.01171875 24.49023438 C-48.99191502 25.7084225 -54.91713593 26.5096049 -61 27 C-61 27.66 -61 28.32 -61 29 C-62.98 29 -64.96 29 -67 29 C-67 29.99 -67 30.98 -67 32 C-67.66 32 -68.32 32 -69 32 C-69 30.68 -69 29.36 -69 28 C-67.02 28 -65.04 28 -63 28 C-63 27.34 -63 26.68 -63 26 C-58.26523145 25.00065336 -53.56543691 24.01327331 -48.75 23.5 C-45.05168089 23.13026451 -45.05168089 23.13026451 -41.875 21.9375 C-38.76223864 20.92246912 -36.2522911 20.845129 -33 21 C-33 20.34 -33 19.68 -33 19 C-30.36 19 -27.72 19 -25 19 C-25 18.34 -25 17.68 -25 17 C-22.69 17 -20.38 17 -18 17 C-18 16.34 -18 15.68 -18 15 C-17.01 14.67 -16.02 14.34 -15 14 C-14.67 12.35 -14.34 10.7 -14 9 C-13.34 9 -12.68 9 -12 9 C-12 13.95 -12 18.9 -12 24 C-11.34 24 -10.68 24 -10 24 C-9.970271 25.04341553 -9.970271 25.04341553 -9.93994141 26.10791016 C-9.84427876 29.28063321 -9.73476696 32.45273487 -9.625 35.625 C-9.5940625 36.71941406 -9.563125 37.81382812 -9.53125 38.94140625 C-9.33680788 44.28856459 -9.15326382 49.01073016 -7 54 C-4.36 54 -1.72 54 1 54 C1.95041108 47.61112548 2.15553304 41.39175654 2.125 34.9375 C2.12234131 33.9261499 2.11968262 32.9147998 2.11694336 31.87280273 C2.04979822 21.19162625 1.51188497 10.58319477 0 0 Z " fill="#5F5F5F" transform="translate(88,229)"/>
<path d="M0 0 C4.64601419 -0.60931334 6.86863768 -0.64993155 10.9375 1.6875 C13.66867393 6.07393086 13.62264029 9.70542061 13.828125 14.796875 C14.00252263 18.0470126 14.57703427 20.79548984 15.4609375 23.90234375 C16.64924679 28.52641685 17.25243055 33.28842783 18 38 C18.33182807 40.0002503 18.66474236 42.00032167 19 44 C19.66 44 20.32 44 21 44 C21.84291786 48.03972867 22.67262865 52.08206109 23.5 56.125 C23.73847656 57.26710937 23.97695313 58.40921875 24.22265625 59.5859375 C24.44824219 60.69453125 24.67382812 61.803125 24.90625 62.9453125 C25.11572266 63.96125488 25.32519531 64.97719727 25.54101562 66.02392578 C26.00988982 69.06412599 26.0800787 71.92898194 26 75 C26.66 75 27.32 75 28 75 C30.11409642 82.30697404 32.22447196 89.6019665 34 97 C34.66 97 35.32 97 36 97 C36 97.66 36 98.32 36 99 C34.10644531 98.7434082 34.10644531 98.7434082 32 98 C30.99511719 96.29760742 30.99511719 96.29760742 30.296875 94.10546875 C30.0390625 93.31462891 29.78125 92.52378906 29.515625 91.70898438 C29.26296875 90.87689453 29.0103125 90.04480469 28.75 89.1875 C28.481875 88.36701172 28.21375 87.54652344 27.9375 86.70117188 C26.72059163 82.87349836 26 80.07779491 26 76 C25.34 76 24.68 76 24 76 C23.15708214 71.96027133 22.32737135 67.91793891 21.5 63.875 C21.26152344 62.73289063 21.02304687 61.59078125 20.77734375 60.4140625 C20.55175781 59.30546875 20.32617188 58.196875 20.09375 57.0546875 C19.88427734 56.03874512 19.67480469 55.02280273 19.45898438 53.97607422 C18.99011018 50.93587401 18.9199213 48.07101806 19 45 C18.34 45 17.68 45 17 45 C14.62885931 38.13949961 13.34825844 31.39469108 12.4296875 24.19921875 C12.05798987 21.43176093 11.58374791 18.72927751 11 16 C10.34 16 9.68 16 9 16 C8.95101563 15.15695313 8.90203125 14.31390625 8.8515625 13.4453125 C8.73941406 11.80175781 8.73941406 11.80175781 8.625 10.125 C8.55539062 9.03445312 8.48578125 7.94390625 8.4140625 6.8203125 C8.26746509 3.86953526 8.26746509 3.86953526 6 2 C3.42938689 1.35232207 3.42938689 1.35232207 1 1 C0.67 1.99 0.34 2.98 0 4 C-0.66 3.67 -1.32 3.34 -2 3 C-1.34 2.01 -0.68 1.02 0 0 Z " fill="#535353" transform="translate(372,42)"/>
<path d="M0 0 C2.77245014 -0.13487595 5.53837088 -0.23400807 8.3125 -0.3125 C9.49102539 -0.3753418 9.49102539 -0.3753418 10.69335938 -0.43945312 C12.89778201 -0.48635573 14.84387892 -0.46614972 17 0 C19.79902622 3.12424641 20.01803183 4.46806087 19.875 8.6875 C19 12 19 12 16 14 C13.41114829 14.29991069 10.90850918 14.50865225 8.3125 14.625 C7.61060547 14.66367188 6.90871094 14.70234375 6.18554688 14.7421875 C4.45745345 14.8362334 2.72876325 14.9191968 1 15 C1 15.66 1 16.32 1 17 C-1.97 17 -4.94 17 -8 17 C-8 17.66 -8 18.32 -8 19 C-12.62 19.33 -17.24 19.66 -22 20 C-21.67 20.66 -21.34 21.32 -21 22 C-20.79229088 23.53275627 -20.6328314 25.07222944 -20.5 26.61328125 C-20.37625 27.9909668 -20.37625 27.9909668 -20.25 29.39648438 C-20.12625 30.83991211 -20.12625 30.83991211 -20 32.3125 C-19.83580049 34.2046428 -19.66920879 36.09657983 -19.5 37.98828125 C-19.4278125 38.82915283 -19.355625 39.67002441 -19.28125 40.53637695 C-19.03824925 43.01032661 -19.03824925 43.01032661 -18.48144531 45.44970703 C-17.54180851 50.42711376 -17.77299506 55.51220914 -17.75 60.5625 C-17.729375 61.69880859 -17.70875 62.83511719 -17.6875 64.00585938 C-17.68234375 65.09833984 -17.6771875 66.19082031 -17.671875 67.31640625 C-17.6625293 68.31099854 -17.65318359 69.30559082 -17.64355469 70.33032227 C-18.05557226 73.41622099 -18.84632332 74.78209257 -21 77 C-23.26171875 77.390625 -23.26171875 77.390625 -25.6875 77.25 C-26.49574219 77.21390625 -27.30398438 77.1778125 -28.13671875 77.140625 C-28.75160156 77.09421875 -29.36648438 77.0478125 -30 77 C-30 76.67 -30 76.34 -30 76 C-25.545 75.01 -25.545 75.01 -21 74 C-20.57524031 55.52525407 -20.57524031 55.52525407 -22.48828125 37.19921875 C-23.45235403 31.17192403 -23.65527582 25.09012726 -24 19 C-19.38 18.67 -14.76 18.34 -10 18 C-10 17.34 -10 16.68 -10 16 C-7.03 16 -4.06 16 -1 16 C-1 15.34 -1 14.68 -1 14 C4.38490641 13.08342019 9.54230189 12.88861841 15 13 C15 12.34 15 11.68 15 11 C15.66 11 16.32 11 17 11 C17.08304117 7.34618837 16.89694794 4.58779175 16 1 C10.72 1 5.44 1 0 1 C0 0.67 0 0.34 0 0 Z " fill="#4C4C4C" transform="translate(348,232)"/>
<path d="M0 0 C1.71316406 -0.00773437 1.71316406 -0.00773437 3.4609375 -0.015625 C4.64945312 -0.00015625 5.83796875 0.0153125 7.0625 0.03125 C8.25101562 0.01578125 9.43953125 0.0003125 10.6640625 -0.015625 C11.80617188 -0.01046875 12.94828125 -0.0053125 14.125 0 C15.16785156 0.00451172 16.21070313 0.00902344 17.28515625 0.01367188 C20.73315384 0.6562312 21.93746548 1.79110721 24.0625 4.53125 C24.234375 6.890625 24.234375 6.890625 23.8125 9.28125 C23.68359375 10.08046875 23.5546875 10.8796875 23.421875 11.703125 C23.30328125 12.30640625 23.1846875 12.9096875 23.0625 13.53125 C21.4125 13.86125 19.7625 14.19125 18.0625 14.53125 C18.0625 15.19125 18.0625 15.85125 18.0625 16.53125 C18.96162109 16.60472656 18.96162109 16.60472656 19.87890625 16.6796875 C21.8830305 16.84503488 23.88690468 17.01342133 25.890625 17.18359375 C29.17082789 17.46080565 32.45238161 17.71757063 35.734375 17.97265625 C37.7812683 18.13779422 39.82814315 18.30316085 41.875 18.46875 C42.86508057 18.54335449 43.85516113 18.61795898 44.87524414 18.69482422 C50.1946843 19.13366121 54.99433587 19.84186196 60.0625 21.53125 C60.0625 22.19125 60.0625 22.85125 60.0625 23.53125 C62.0425 23.86125 64.0225 24.19125 66.0625 24.53125 C66.0625 25.19125 66.0625 25.85125 66.0625 26.53125 C66.68125 26.655 67.3 26.77875 67.9375 26.90625 C70.0625 27.53125 70.0625 27.53125 72.0625 29.53125 C72.50383428 34.91552816 72.46411178 38.12175325 69.0625 42.53125 C66.99782144 44.94004165 66.17255341 45.49456553 63.0625 46.53125 C62.5675 47.52125 62.5675 47.52125 62.0625 48.53125 C59.99609375 49.1640625 59.99609375 49.1640625 57.5 49.65625 C56.26056641 49.90761719 56.26056641 49.90761719 54.99609375 50.1640625 C54.35800781 50.28523438 53.71992188 50.40640625 53.0625 50.53125 C53.0625 49.87125 53.0625 49.21125 53.0625 48.53125 C56.5275 48.03625 56.5275 48.03625 60.0625 47.53125 C60.3925 46.54125 60.7225 45.55125 61.0625 44.53125 C62.0525 44.53125 63.0425 44.53125 64.0625 44.53125 C64.3925 43.54125 64.7225 42.55125 65.0625 41.53125 C66.0525 41.20125 67.0425 40.87125 68.0625 40.53125 C69.53916292 37.04095582 69.13414685 33.25688614 69.0625 29.53125 C67.4125 28.87125 65.7625 28.21125 64.0625 27.53125 C64.0625 26.87125 64.0625 26.21125 64.0625 25.53125 C62.0825 25.20125 60.1025 24.87125 58.0625 24.53125 C58.0625 23.87125 58.0625 23.21125 58.0625 22.53125 C57.258125 22.551875 56.45375 22.5725 55.625 22.59375 C53.0625 22.53125 53.0625 22.53125 52.0625 21.53125 C49.83393615 21.24257201 47.59742751 21.01486797 45.359375 20.8125 C44.34716888 20.71829773 44.34716888 20.71829773 43.31451416 20.62219238 C41.1475408 20.42098281 38.98009094 20.22568507 36.8125 20.03125 C34.65925837 19.83620127 32.50616494 19.63982421 30.35333252 19.44030762 C28.38915948 19.25854014 26.42456845 19.08130656 24.45996094 18.90429688 C21.60357357 18.59066078 18.86482099 18.153988 16.0625 17.53125 C16.0625 16.87125 16.0625 16.21125 16.0625 15.53125 C13.4225 15.53125 10.7825 15.53125 8.0625 15.53125 C8.0625 14.87125 8.0625 14.21125 8.0625 13.53125 C14.4975 13.03625 14.4975 13.03625 21.0625 12.53125 C21.0625 9.23125 21.0625 5.93125 21.0625 2.53125 C16.79179442 2.44432926 12.52131542 2.39088485 8.25 2.34375 C7.03505859 2.31861328 5.82011719 2.29347656 4.56835938 2.26757812 C3.40498047 2.25791016 2.24160156 2.24824219 1.04296875 2.23828125 C-0.03057861 2.2225708 -1.10412598 2.20686035 -2.21020508 2.19067383 C-4.98044669 2.29266924 -4.98044669 2.29266924 -6.8112793 4.04956055 C-7.18293213 4.53851807 -7.55458496 5.02747559 -7.9375 5.53125 C-8.5975 5.20125 -9.2575 4.87125 -9.9375 4.53125 C-6.7904974 0.7314519 -4.89459732 0.02117564 0 0 Z " fill="#787878" transform="translate(377.9375,256.46875)"/>
<path d="M0 0 C3.05076308 -0.28780784 5.95763602 -0.42075247 9 0 C11.82042821 2.82042821 11.97147946 4.66916178 12.3125 8.625 C12 12 12 12 10 15 C7.72265625 15.3984375 7.72265625 15.3984375 5.0625 15.375 C3.74958984 15.38660156 3.74958984 15.38660156 2.41015625 15.3984375 C-0.42682936 14.92943826 -1.32015469 14.29959406 -3 12 C-3.6445541 7.16584428 -2.38536438 4.17438766 0 0 Z " fill="#C0C0C0" transform="translate(203,246)"/>
<path d="M0 0 C2.64 0.33 5.28 0.66 8 1 C8 1.66 8 2.32 8 3 C9.134375 2.938125 10.26875 2.87625 11.4375 2.8125 C16.33847991 2.78619778 20.473967 4.23987606 25 6 C25 6.66 25 7.32 25 8 C25.804375 8.144375 26.60875 8.28875 27.4375 8.4375 C30 9 30 9 31 10 C31.09858603 11.4555937 31.12972143 12.91607919 31.125 14.375 C31.12886719 15.56222656 31.12886719 15.56222656 31.1328125 16.7734375 C31 19 31 19 30 22 C27.9375 22.6875 27.9375 22.6875 26 23 C26 23.66 26 24.32 26 25 C12.07359029 28.70383237 -0.64249654 30.30620268 -15 30 C-15 30.66 -15 31.32 -15 32 C-19.63251163 33.311291 -24.22480929 33.71709348 -29 33 C-31.1875 30.875 -31.1875 30.875 -32 28 C-31.76762265 24.20450322 -30.89569691 21.28587465 -29 18 C-27.35 18 -25.7 18 -24 18 C-25.32 18.33 -26.64 18.66 -28 19 C-28 20.32 -28 21.64 -28 23 C-28.66 23 -29.32 23 -30 23 C-29.34 25.64 -28.68 28.28 -28 31 C-24.37 31 -20.74 31 -17 31 C-17 30.34 -17 29.68 -17 29 C-16.05125 28.97421875 -15.1025 28.9484375 -14.125 28.921875 C-1.22190585 28.43000602 11.31092777 26.30579302 24 24 C24 23.34 24 22.68 24 22 C24.99 21.67 25.98 21.34 27 21 C27.66 17.37 28.32 13.74 29 10 C26.525 9.505 26.525 9.505 24 9 C22.38238029 8.36667417 20.77790795 7.69885455 19.1875 7 C14.71103183 5.14766834 10.81840394 4.35691881 6 4 C6 3.34 6 2.68 6 2 C4.02 2 2.04 2 0 2 C0 1.34 0 0.68 0 0 Z " fill="#5D5D5D" transform="translate(264,280)"/>
<path d="M0 0 C2.20805524 -0.0544452 4.41650554 -0.09299283 6.625 -0.125 C7.85476563 -0.14820313 9.08453125 -0.17140625 10.3515625 -0.1953125 C14.91792608 0.04913951 18.62353208 0.57764982 21.875 3.9375 C23 6 23 6 23 9 C23.99 9 24.98 9 26 9 C28.69450216 15.16394031 29.44311948 20.11955798 29.3125 26.8125 C29.31572266 27.65748047 29.31894531 28.50246094 29.32226562 29.37304688 C29.26787601 35.59818599 29.26787601 35.59818599 27 39 C25.66923011 39.34342449 24.33568021 39.67619874 23 40 C22.5875 40.474375 22.175 40.94875 21.75 41.4375 C18.92953427 43.95577298 15.6600948 44.2199798 12 45 C12 45.66 12 46.32 12 47 C0.12 47.66 -11.76 48.32 -24 49 C-14.27917196 44.13958598 -0.75357009 45.87430892 10 46 C10 45.34 10 44.68 10 44 C10.71027344 43.81824219 11.42054688 43.63648438 12.15234375 43.44921875 C13.53099609 43.07216797 13.53099609 43.07216797 14.9375 42.6875 C15.85402344 42.44386719 16.77054687 42.20023437 17.71484375 41.94921875 C18.46894531 41.63597656 19.22304688 41.32273437 20 41 C20.33 40.01 20.66 39.02 21 38 C22.65 38 24.3 38 26 38 C26.05859857 34.64590806 26.09379582 31.29194983 26.125 27.9375 C26.14175781 26.99455078 26.15851563 26.05160156 26.17578125 25.08007812 C26.21372771 19.63476062 25.81252643 15.14500612 24 10 C23.01 10 22.02 10 21 10 C20.01 7.69 19.02 5.38 18 3 C12.06 2.34 6.12 1.68 0 1 C0 0.67 0 0.34 0 0 Z " fill="#525252" transform="translate(352,364)"/>
<path d="M0 0 C6.26193119 -0.60210877 6.26193119 -0.60210877 9.375 1.9375 C11.49410553 5.93119889 11.80535041 9.53279197 12 14 C12.66 14 13.32 14 14 14 C14 18.95 14 23.9 14 29 C13.34 29 12.68 29 12 29 C11.80664062 29.58007812 11.61328125 30.16015625 11.4140625 30.7578125 C9.94270833 35.171875 8.47135417 39.5859375 7 44 C6.01 44 5.02 44 4 44 C3.67 44.99 3.34 45.98 3 47 C2.34 47 1.68 47 1 47 C1 47.66 1 48.32 1 49 C-4.28 49 -9.56 49 -15 49 C-15 48.34 -15 47.68 -15 47 C-15.99 46.67 -16.98 46.34 -18 46 C-17.01 45.505 -17.01 45.505 -16 45 C-15.34 45.33 -14.68 45.66 -14 46 C-14 46.66 -14 47.32 -14 48 C-9.71 48 -5.42 48 -1 48 C-1 47.34 -1 46.68 -1 46 C-0.01 46 0.98 46 2 46 C2 45.01 2 44.02 2 43 C2.99 43 3.98 43 5 43 C5.33 41.02 5.66 39.04 6 37 C6.66 37 7.32 37 8 37 C8.66 34.03 9.32 31.06 10 28 C10.66 28 11.32 28 12 28 C12 23.71 12 19.42 12 15 C11.34 15 10.68 15 10 15 C9.89042969 14.31292969 9.78085937 13.62585938 9.66796875 12.91796875 C9.50941406 12.01691406 9.35085938 11.11585938 9.1875 10.1875 C9.03667969 9.29417969 8.88585937 8.40085937 8.73046875 7.48046875 C7.93529953 4.78029519 7.24062688 3.6694867 5 2 C2.37429296 1.74930087 2.37429296 1.74930087 0 2 C0 1.34 0 0.68 0 0 Z " fill="#585858" transform="translate(302,362)"/>
<path d="M0 0 C0.66 0 1.32 0 2 0 C3.15837573 3.47512718 2.77265943 5.13670286 2.0625 8.6875 C1.77052734 10.17830078 1.77052734 10.17830078 1.47265625 11.69921875 C1.31667969 12.45847656 1.16070312 13.21773437 1 14 C0.34 14 -0.32 14 -1 14 C-0.98839844 14.65484375 -0.97679687 15.3096875 -0.96484375 15.984375 C-0.89504853 23.0436634 -1.31351231 29.97575988 -2 37 C-2.66 37 -3.32 37 -4 37 C-4 41.62 -4 46.24 -4 51 C-1.03 50.505 -1.03 50.505 2 50 C4.67810075 49.88803927 7.31732686 49.95374701 10 50 C10 50.33 10 50.66 10 51 C3.565 51.495 3.565 51.495 -3 52 C-3 52.66 -3 53.32 -3 54 C-4.32 54 -5.64 54 -7 54 C-7.18451025 41.33029613 -7.18451025 41.33029613 -6 36 C-5.34 36 -4.68 36 -4 36 C-4.01160156 35.34515625 -4.02320313 34.6903125 -4.03515625 34.015625 C-4.10495147 26.9563366 -3.68648769 20.02424012 -3 13 C-2.34 13 -1.68 13 -1 13 C-0.67 8.71 -0.34 4.42 0 0 Z " fill="#4F4F4F" transform="translate(25,189)"/>
<path d="M0 0 C1.12277344 0.15339844 2.24554688 0.30679687 3.40234375 0.46484375 C11.08917847 1.3189365 18.83682903 1.3664576 26.5625 1.5625 C28.15951455 1.60577645 29.75651991 1.64939337 31.35351562 1.69335938 C35.23558223 1.79950069 39.11774432 1.90102619 43 2 C43 2.66 43 3.32 43 4 C44.32 4.33 45.64 4.66 47 5 C48.125 11.625 48.125 11.625 47 15 C41.78052446 18.61348306 34.62014115 18.12290515 28.53515625 18.09765625 C27.51789711 18.09553383 27.51789711 18.09553383 26.48008728 18.09336853 C24.34084422 18.08782745 22.20171075 18.07528653 20.0625 18.0625 C18.60091298 18.05747736 17.13932431 18.0529158 15.67773438 18.04882812 C12.11845474 18.03787745 8.55923809 18.02065445 5 18 C5 17.67 5 17.34 5 17 C6.23133667 16.970271 6.23133667 16.970271 7.48754883 16.93994141 C10.58722331 16.8609827 13.68656554 16.77427091 16.78588867 16.68261719 C18.76530535 16.62634176 20.74496125 16.57869039 22.72460938 16.53125 C30.32908437 16.30022797 37.56725402 15.64956756 45 14 C45 11.69 45 9.38 45 7 C44.34 7 43.68 7 43 7 C42.34 6.01 41.68 5.02 41 4 C38.46211627 3.68589885 36.15527635 3.55900757 33.61328125 3.55859375 C32.51043037 3.53878197 32.51043037 3.53878197 31.38529968 3.51856995 C29.02766243 3.47760488 26.67041279 3.45600946 24.3125 3.4375 C21.97256282 3.4136157 19.63298581 3.38526372 17.29325867 3.34571838 C15.83750382 3.32161809 14.38156095 3.30655161 12.9256134 3.30210876 C8.23640155 3.23120825 4.412613 2.44402985 0 1 C0 0.67 0 0.34 0 0 Z " fill="#6A6A6A" transform="translate(212,391)"/>
<path d="M0 0 C0.66 0.33 1.32 0.66 2 1 C0.63016497 4.16115776 0.0109362 4.9927092 -3 7 C-4.19232613 9.05003955 -4.19232613 9.05003955 -5 11 C-5.66 11 -6.32 11 -7 11 C-7.33 12.65 -7.66 14.3 -8 16 C-8.66 16 -9.32 16 -10 16 C-10.1546875 17.2065625 -10.1546875 17.2065625 -10.3125 18.4375 C-10.84569277 21.20040799 -11.4748592 23.39892511 -12.4375 26 C-14.5892732 32.14943028 -15.22127099 38.55945304 -16 45 C-16.66 45 -17.32 45 -18 45 C-18 47.97 -18 50.94 -18 54 C-18.66 54 -19.32 54 -20 54 C-20 50.7 -20 47.4 -20 44 C-19.34 44 -18.68 44 -18 44 C-18.061875 42.7625 -18.12375 41.525 -18.1875 40.25 C-18.1875 31.461015 -15.25968529 23.07160167 -12 15 C-11.01 15 -10.02 15 -9 15 C-9 13.35 -9 11.7 -9 10 C-8.01 10 -7.02 10 -6 10 C-6 8.68 -6 7.36 -6 6 C-5.34 6 -4.68 6 -4 6 C-4 5.34 -4 4.68 -4 4 C-3.01 4 -2.02 4 -1 4 C-0.67 2.68 -0.34 1.36 0 0 Z " fill="#3C3C3C" transform="translate(95,324)"/>
<path d="M0 0 C0.66 0 1.32 0 2 0 C5.50991636 11.46572679 5.09958165 23.67737424 5.1875 35.5625 C5.20055176 36.59761719 5.21360352 37.63273437 5.22705078 38.69921875 C5.23396049 44.7481744 4.7430494 49.51390121 2 55 C-1.3 55 -4.6 55 -8 55 C-8 54.67 -8 54.34 -8 54 C-5.03 54 -2.06 54 1 54 C1.95041108 47.61112548 2.15553304 41.39175654 2.125 34.9375 C2.12234131 33.9261499 2.11968262 32.9147998 2.11694336 31.87280273 C2.04979822 21.19162625 1.51188497 10.58319477 0 0 Z " fill="#404040" transform="translate(88,229)"/>
<path d="M0 0 C1.45947705 0.06006078 2.91779272 0.1488689 4.375 0.25 C5.59316406 0.31960937 5.59316406 0.31960937 6.8359375 0.390625 C9 1 9 1 10.1640625 2.984375 C10.57785156 3.98210937 10.57785156 3.98210937 11 5 C11.66 5.33 12.32 5.66 13 6 C14.21692936 13.53118548 14.08996397 21.37883016 14.125 29 C14.12967285 29.70511719 14.1343457 30.41023438 14.13916016 31.13671875 C14.1266013 35.19419531 13.78365117 39.0195496 13 43 C12.67 43 12.34 43 12 43 C11.67 34.75 11.34 26.5 11 18 C10.34 18 9.68 18 9 18 C8.67 12.72 8.34 7.44 8 2 C5.36 1.67 2.72 1.34 0 1 C0 0.67 0 0.34 0 0 Z " fill="#5E5E5E" transform="translate(162,184)"/>
<path d="M0 0 C2.390625 0.52734375 2.390625 0.52734375 5 2 C5.87199702 4.65590641 6.37696113 6.83327954 6.75 9.5625 C6.86577393 10.28179687 6.98154785 11.00109375 7.10083008 11.7421875 C7.89680248 16.80902255 8.54387006 21.89134462 9 27 C9.66 27 10.32 27 11 27 C11.33872513 28.41538717 11.67074624 29.83237963 12 31.25 C12.185625 32.03890625 12.37125 32.8278125 12.5625 33.640625 C13 36 13 36 13 40 C13.66 40 14.32 40 15 40 C15 40.99 15 41.98 15 43 C17.97 43 20.94 43 24 43 C24 43.33 24 43.66 24 44 C18.555 44.495 18.555 44.495 13 45 C13 43.68 13 42.36 13 41 C12.34 41 11.68 41 11 41 C10.87882812 40.14535156 10.75765625 39.29070312 10.6328125 38.41015625 C10.46523438 37.30542969 10.29765625 36.20070313 10.125 35.0625 C9.96257812 33.96035156 9.80015625 32.85820312 9.6328125 31.72265625 C9.42398437 30.82417969 9.21515625 29.92570312 9 29 C8.34 28.67 7.68 28.34 7 28 C3.93557577 19.62781705 3.37879963 10.82994991 3 2 C2.01 2 1.02 2 0 2 C0 1.34 0 0.68 0 0 Z " fill="#505050" transform="translate(328,322)"/>
<path d="M0 0 C0.66 0 1.32 0 2 0 C2 1.98 2 3.96 2 6 C1.34 6 0.68 6 0 6 C-0.33 7.65 -0.66 9.3 -1 11 C-5.34376054 12.58918069 -9.43091141 13.35872441 -14 14 C-16.31 14.66 -18.62 15.32 -21 16 C-21 22.27 -21 28.54 -21 35 C-24.61136212 36.80568106 -25.544531 37.24851563 -29.25 37.125 C-30.4875 37.08375 -31.725 37.0425 -33 37 C-33 36.67 -33 36.34 -33 36 C-30.03 35.34 -27.06 34.68 -24 34 C-23.67 27.73 -23.34 21.46 -23 15 C-19.535 14.505 -19.535 14.505 -16 14 C-16 13.34 -16 12.68 -16 12 C-14.4176994 11.66179834 -12.83410625 11.32964061 -11.25 11 C-10.36828125 10.814375 -9.4865625 10.62875 -8.578125 10.4375 C-6 10 -6 10 -2 10 C-2 8.35 -2 6.7 -2 5 C-1.34 5 -0.68 5 0 5 C0 3.35 0 1.7 0 0 Z " fill="#474747" transform="translate(156,240)"/>
<path d="M0 0 C3 1 3 1 4 3 C4.20379734 4.80870138 4.36500995 6.62236592 4.5 8.4375 C4.73306642 11.56308718 5.00474943 14.01424829 6 17 C6.13156527 20.68382769 6.16982138 23.49053585 5 27 C2.69 27.33 0.38 27.66 -2 28 C-2 28.66 -2 29.32 -2 30 C-8.53783541 32.32702616 -14.66329277 33.30004656 -21.5625 33.3125 C-22.26503906 33.31765625 -22.96757812 33.3228125 -23.69140625 33.328125 C-28.7409112 33.2590888 -28.7409112 33.2590888 -31 31 C-29.97261719 31.02320313 -28.94523437 31.04640625 -27.88671875 31.0703125 C-19.68585128 31.1972118 -12.03263424 30.9060488 -4 29 C-4 28.34 -4 27.68 -4 27 C-0.535 26.505 -0.535 26.505 3 26 C3.02712066 24.56260487 3.04645067 23.12506137 3.0625 21.6875 C3.07410156 20.88699219 3.08570313 20.08648437 3.09765625 19.26171875 C3.09657855 16.83138666 3.09657855 16.83138666 2 14 C1.69648803 11.20094513 1.49255926 8.40114445 1.28125 5.59375 C1.08068739 2.88853697 1.08068739 2.88853697 0 0 Z " fill="#4B4B4B" transform="translate(414,153)"/>
<path d="M0 0 C2.97 0 5.94 0 9 0 C11.68219822 5.36439644 12.3152595 9.01006953 12 15 C10.68 15 9.36 15 8 15 C8 15.99 8 16.98 8 18 C2.30629211 19.23107198 -3.20215428 19.07070544 -9 19 C-9.33 13.72 -9.66 8.44 -10 3 C-6.78548731 1.39274365 -3.56387464 1.94251815 0 2 C0 1.34 0 0.68 0 0 Z M2 1 C2 1.66 2 2.32 2 3 C0.700625 2.979375 -0.59875 2.95875 -1.9375 2.9375 C-3.29165633 2.91600546 -4.64756083 2.92851801 -6 3 C-7.36532549 4.13701597 -7.36532549 4.13701597 -7.09765625 7.16015625 C-7.08605469 8.44792969 -7.07445312 9.73570312 -7.0625 11.0625 C-7.05347656 12.35285156 -7.04445313 13.64320313 -7.03515625 14.97265625 C-7.02355469 15.97167969 -7.01195312 16.97070312 -7 18 C-2.48382401 18.07654536 1.59085217 18.10228696 6 17 C6 16.34 6 15.68 6 15 C7.65 14.34 9.3 13.68 11 13 C11.43200679 8.24792529 9.98489083 5.21789302 8 1 C6.02 1 4.04 1 2 1 Z " fill="#838383" transform="translate(354,378)"/>
<path d="M0 0 C0.66 0 1.32 0 2 0 C2.19658808 1.41543415 2.38187546 2.83244031 2.5625 4.25 C2.66691406 5.03890625 2.77132813 5.8278125 2.87890625 6.640625 C3.00027349 9.00532874 2.69633257 10.7511037 2 13 C1.34 13 0.68 13 0 13 C-0.33 14.32 -0.66 15.64 -1 17 C-2.175625 17.12375 -2.175625 17.12375 -3.375 17.25 C-4.24125 17.4975 -5.1075 17.745 -6 18 C-6.70151152 19.3153341 -7.36525925 20.65117592 -8 22 C-12.28571429 25 -12.28571429 25 -15 25 C-15 25.66 -15 26.32 -15 27 C-16.43294498 27.84114171 -17.87154405 28.67265687 -19.3125 29.5 C-20.11300781 29.9640625 -20.91351563 30.428125 -21.73828125 30.90625 C-24 32 -24 32 -27 32 C-27 32.99 -27 33.98 -27 35 C-27.66 35 -28.32 35 -29 35 C-29 33.68 -29 32.36 -29 31 C-28.21753906 30.66226563 -27.43507812 30.32453125 -26.62890625 29.9765625 C-25.61699219 29.53054687 -24.60507813 29.08453125 -23.5625 28.625 C-22.55316406 28.18414062 -21.54382813 27.74328125 -20.50390625 27.2890625 C-17.87856453 26.24923714 -17.87856453 26.24923714 -17 24 C-16.01 23.67 -15.02 23.34 -14 23 C-13.67 22.34 -13.34 21.68 -13 21 C-10.4375 20.375 -10.4375 20.375 -8 20 C-8 19.01 -8 18.02 -8 17 C-7.195625 16.731875 -6.39125 16.46375 -5.5625 16.1875 C-4.716875 15.795625 -3.87125 15.40375 -3 15 C-2.67 14.01 -2.34 13.02 -2 12 C-1.34 12 -0.68 12 0 12 C0 8.04 0 4.08 0 0 Z " fill="#454545" transform="translate(257,163)"/>
<path d="M0 0 C0.66 0 1.32 0 2 0 C2 9.24 2 18.48 2 28 C1.34 28 0.68 28 0 28 C-0.226875 28.639375 -0.45375 29.27875 -0.6875 29.9375 C-2 32 -2 32 -4.625 32.75 C-5.40875 32.8325 -6.1925 32.915 -7 33 C-7 33.66 -7 34.32 -7 35 C-7.99 35 -8.98 35 -10 35 C-10 34.34 -10 33.68 -10 33 C-10.66 32.67 -11.32 32.34 -12 32 C-9.02148438 31.8046875 -9.02148438 31.8046875 -6.04296875 31.609375 C-3.17764631 30.75470903 -2.52171877 29.55242397 -1 27 C-0.49746855 24.0064314 -0.49746855 24.0064314 -0.48828125 20.703125 C-0.45283203 19.49785156 -0.41738281 18.29257812 -0.38085938 17.05078125 C-0.35830078 15.79652344 -0.33574219 14.54226563 -0.3125 13.25 C-0.27833984 11.98027344 -0.24417969 10.71054687 -0.20898438 9.40234375 C-0.12650999 6.26831726 -0.05735516 3.13457045 0 0 Z " fill="#363636" transform="translate(21,261)"/>
<path d="M0 0 C3.96 0 7.92 0 12 0 C12 0.66 12 1.32 12 2 C12.99 2.33 13.98 2.66 15 3 C15.81846842 5.86463946 16.05231071 7.75007107 15.4375 10.6875 C13.4817416 13.83372004 11.51334286 14.1598528 8 15 C8 16.98 8 18.96 8 21 C10.31 21.66 12.62 22.32 15 23 C15 23.66 15 24.32 15 25 C12.03 24.01 9.06 23.02 6 22 C6 19.36 6 16.72 6 14 C8.64738916 12.5393715 9.89448334 12 13 12 C13 9.03 13 6.06 13 3 C12.01 3 11.02 3 10 3 C10 2.34 10 1.68 10 1 C6.7 1.33 3.4 1.66 0 2 C0 1.34 0 0.68 0 0 Z " fill="#535353" transform="translate(249,255)"/>
<path d="M0 0 C0.680625 -0.00257813 1.36125 -0.00515625 2.0625 -0.0078125 C4 0.125 4 0.125 7 1.125 C7.87890625 3.015625 7.87890625 3.015625 8.5625 5.375 C8.80742187 6.18324219 9.05234375 6.99148438 9.3046875 7.82421875 C9.64886719 8.96310547 9.64886719 8.96310547 10 10.125 C10.64896236 11.79863977 11.30580437 13.46961042 12 15.125 C10.1875 14.625 10.1875 14.625 8 13.125 C6.14053309 9.52276912 5 6.18666652 5 2.125 C1.66799815 1.70728196 1.66799815 1.70728196 -2 2.125 C-4.95204582 4.69857841 -5.88878413 6.23527304 -6.375 10.125 C-6.00141886 13.11364914 -5.27805172 15.4091401 -4 18.125 C-4.66 18.125 -5.32 18.125 -6 18.125 C-7.7081875 15.15423913 -8.25188983 13.04351451 -8.1875 9.625 C-8.18105469 8.8721875 -8.17460937 8.119375 -8.16796875 7.34375 C-7.99874941 5.1084806 -7.79663851 3.22481017 -7 1.125 C-4.32356043 0.23285348 -2.74615622 -0.01040211 0 0 Z " fill="#707070" transform="translate(272,366.875)"/>
<path d="M0 0 C0.66 0 1.32 0 2 0 C2.48009262 2.06228466 2.95903544 4.12483701 3.4375 6.1875 C3.70433594 7.33605469 3.97117187 8.48460938 4.24609375 9.66796875 C4.87312201 12.43923875 5.45899177 15.21091874 6 18 C6.99 18 7.98 18 9 18 C9 18.66 9 19.32 9 20 C2.77702167 20.24403837 -0.84599161 19.43600559 -6 16 C-8.48051222 16.26259783 -8.48051222 16.26259783 -11 17 C-11.763125 17.185625 -12.52625 17.37125 -13.3125 17.5625 C-13.869375 17.706875 -14.42625 17.85125 -15 18 C-14.34 16.68 -13.68 15.36 -13 14 C-11.54176788 13.9729957 -10.08339325 13.95360213 -8.625 13.9375 C-7.81289063 13.92589844 -7.00078125 13.91429687 -6.1640625 13.90234375 C-4 14 -4 14 -2 15 C-2 15.66 -2 16.32 -2 17 C-0.02 17.33 1.96 17.66 4 18 C3.79503906 17.28714844 3.59007812 16.57429688 3.37890625 15.83984375 C1.89379353 10.56023251 0.60587654 5.45288884 0 0 Z " fill="#757575" transform="translate(383,118)"/>
<path d="M0 0 C3.875 1.875 3.875 1.875 5 3 C5.43016966 9.45254493 4.79048662 12.74443227 0.5 17.75 C-1 19 -1 19 -4 20 C-4.33 20.66 -4.66 21.32 -5 22 C-7.06640625 22.6328125 -7.06640625 22.6328125 -9.5625 23.125 C-10.38878906 23.29257812 -11.21507812 23.46015625 -12.06640625 23.6328125 C-12.70449219 23.75398438 -13.34257812 23.87515625 -14 24 C-14 23.34 -14 22.68 -14 22 C-10.535 21.505 -10.535 21.505 -7 21 C-6.67 20.01 -6.34 19.02 -6 18 C-5.01 18 -4.02 18 -3 18 C-2.67 17.01 -2.34 16.02 -2 15 C-1.01 14.67 -0.02 14.34 1 14 C2.4753807 10.51273652 2.20288176 6.719499 2 3 C1.34 2.01 0.68 1.02 0 0 Z " fill="#3A3A3A" transform="translate(445,283)"/>
<path d="M0 0 C1.32 0.33 2.64 0.66 4 1 C2.71034824 2.37562854 1.37310707 3.70766393 0 5 C-0.66 5 -1.32 5 -2 5 C-2.36259585 8.89790543 -2.34827888 10.52111654 0 13.75 C0.66 14.4925 1.32 15.235 2 16 C2 16.66 2 17.32 2 18 C8.93 18.495 8.93 18.495 16 19 C16 19.33 16 19.66 16 20 C4.73071325 20.22998544 4.73071325 20.22998544 0 19 C-1.8125 16.625 -1.8125 16.625 -3 14 C-3.66 13.01 -4.32 12.02 -5 11 C-4.625 7.3125 -4.625 7.3125 -4 4 C-3.01 4 -2.02 4 -1 4 C-0.67 2.68 -0.34 1.36 0 0 Z " fill="#5C5C5C" transform="translate(304,155)"/>
<path d="M0 0 C0.66 0.33 1.32 0.66 2 1 C-1.28299913 5.9244987 -4.39581851 9.31665481 -9 13 C-9.99 14.485 -9.99 14.485 -11 16 C-11.66 16 -12.32 16 -13 16 C-13.37125 16.8353125 -13.37125 16.8353125 -13.75 17.6875 C-16.04875509 21.94019691 -18.41425125 25.19845585 -23 27 C-23 26.01 -23 25.02 -23 24 C-22.236875 23.566875 -21.47375 23.13375 -20.6875 22.6875 C-17.36122241 20.5989071 -16.6651562 18.48169023 -15 15 C-14.01 14.67 -13.02 14.34 -12 14 C-11.67 13.01 -11.34 12.02 -11 11 C-10.01 11 -9.02 11 -8 11 C-7.896875 10.360625 -7.79375 9.72125 -7.6875 9.0625 C-7.3471875 8.0415625 -7.3471875 8.0415625 -7 7 C-6.01 6.67 -5.02 6.34 -4 6 C-2.60287726 4.04402816 -1.26220093 2.04563599 0 0 Z " fill="#333333" transform="translate(182,99)"/>
<path d="M0 0 C0.33 0 0.66 0 1 0 C1.12086218 6.43255401 0.82351864 12.61773055 0 19 C-0.66 19 -1.32 19 -2 19 C-2 21.97 -2 24.94 -2 28 C-2.66 28 -3.32 28 -4 28 C-4 24.7 -4 21.4 -4 18 C-3.34 18 -2.68 18 -2 18 C-2.04125 16.700625 -2.0825 15.40125 -2.125 14.0625 C-2.14055052 9.16408698 -1.2492718 4.71823189 0 0 Z " fill="#525252" transform="translate(79,350)"/>
<path d="M0 0 C2.38671875 0.51171875 2.38671875 0.51171875 5 2 C5.88986198 4.7364015 6.41982432 7.00374339 6.8125 9.8125 C6.93302734 10.52470703 7.05355469 11.23691406 7.17773438 11.97070312 C7.7767454 15.67087978 8.13986977 19.25296256 8 23 C7.34 23 6.68 23 6 23 C3.5579208 16.16217825 3.37977242 9.20568193 3 2 C2.01 2 1.02 2 0 2 C0 1.34 0 0.68 0 0 Z " fill="#464646" transform="translate(328,322)"/>
<path d="M0 0 C1.625 0.875 1.625 0.875 2.625 3.875 C1.965 3.875 1.305 3.875 0.625 3.875 C0.625 3.215 0.625 2.555 0.625 1.875 C-0.426875 2.36613281 -1.47875 2.85726562 -2.5625 3.36328125 C-8.40026909 5.55244466 -14.22217805 5.19993417 -20.375 5.0625 C-21.53128906 5.04896484 -22.68757813 5.03542969 -23.87890625 5.02148438 C-26.71143004 4.98637044 -29.54296307 4.93719 -32.375 4.875 C-32.375 4.545 -32.375 4.215 -32.375 3.875 C-31.71491943 3.86041748 -31.05483887 3.84583496 -30.37475586 3.83081055 C-27.35344603 3.75585388 -24.33318405 3.65935194 -21.3125 3.5625 C-20.27416016 3.53994141 -19.23582031 3.51738281 -18.16601562 3.49414062 C-12.04347938 3.28033777 -5.52450594 -0.29076347 0 0 Z " fill="#595959" transform="translate(334.375,183.125)"/>
<path d="M0 0 C0.33 0 0.66 0 1 0 C1 4.95 1 9.9 1 15 C0.34 15 -0.32 15 -1 15 C-1.29003906 15.92232422 -1.29003906 15.92232422 -1.5859375 16.86328125 C-1.84632813 17.67152344 -2.10671875 18.47976563 -2.375 19.3125 C-2.63023437 20.11300781 -2.88546875 20.91351563 -3.1484375 21.73828125 C-4 24 -4 24 -6 27 C-5.343621 22.51474352 -4.29925791 18.33085971 -3 14 C-2.01 14 -1.02 14 0 14 C0 9.38 0 4.76 0 0 Z " fill="#292929" transform="translate(315,376)"/>
<path d="M0 0 C0.33 0 0.66 0 1 0 C0.67 2.97 0.34 5.94 0 9 C-1.65 9.33 -3.3 9.66 -5 10 C-5 10.66 -5 11.32 -5 12 C-8.3 11.67 -11.6 11.34 -15 11 C-15 10.34 -15 9.68 -15 9 C-8.565 8.505 -8.565 8.505 -2 8 C-1.34 5.36 -0.68 2.72 0 0 Z " fill="#515151" transform="translate(401,261)"/>
<path d="M0 0 C0.66 0 1.32 0 2 0 C4.09429461 3.40322874 4.33706208 6.03952054 4 10 C2 13 2 13 -0.1640625 13.51171875 C-1.38222656 13.59873047 -1.38222656 13.59873047 -2.625 13.6875 C-3.44226563 13.75324219 -4.25953125 13.81898438 -5.1015625 13.88671875 C-5.72804688 13.92410156 -6.35453125 13.96148437 -7 14 C-3.91190305 12.23537317 -2.76687864 12 1 12 C1.19814261 5.91591528 1.19814261 5.91591528 0 0 Z " fill="#3C3C3C" transform="translate(352,180)"/>
<path d="M0 0 C0.33 0.66 0.66 1.32 1 2 C-1.64 2.33 -4.28 2.66 -7 3 C-7.33 7.62 -7.66 12.24 -8 17 C-8.33 17 -8.66 17 -9 17 C-9 12.71 -9 8.42 -9 4 C-9.66 4 -10.32 4 -11 4 C-11 3.34 -11 2.68 -11 2 C-8.70370006 0.85185003 -6.92301914 0.69230191 -4.375 0.4375 C-3.14910156 0.31181641 -3.14910156 0.31181641 -1.8984375 0.18359375 C-0.95871094 0.09271484 -0.95871094 0.09271484 0 0 Z " fill="#333333" transform="translate(355,379)"/>
<path d="M0 0 C0.66 0 1.32 0 2 0 C1.6875 1.9375 1.6875 1.9375 1 4 C0.01 4.33 -0.98 4.66 -2 5 C-2.33 5.66 -2.66 6.32 -3 7 C-5.06640625 7.6328125 -5.06640625 7.6328125 -7.5625 8.125 C-8.38878906 8.29257812 -9.21507812 8.46015625 -10.06640625 8.6328125 C-10.70449219 8.75398438 -11.34257812 8.87515625 -12 9 C-12 8.34 -12 7.68 -12 7 C-8.535 6.505 -8.535 6.505 -5 6 C-4.67 5.01 -4.34 4.02 -4 3 C-3.01 3 -2.02 3 -1 3 C-0.67 2.01 -0.34 1.02 0 0 Z " fill="#505050" transform="translate(443,298)"/>
<path d="M0 0 C0 0.33 0 0.66 0 1 C-0.88751953 1.07347656 -0.88751953 1.07347656 -1.79296875 1.1484375 C-6.82052648 1.60904437 -6.82052648 1.60904437 -11.625 3.0625 C-14.80394717 4.31734757 -17.6176924 4.13263951 -21 4 C-21 3.67 -21 3.34 -21 3 C-19.35 3 -17.7 3 -16 3 C-16 2.34 -16 1.68 -16 1 C-10.63904667 -0.12862175 -5.44693314 -0.09688221 0 0 Z " fill="#9C9C9C" transform="translate(141,48)"/>
<path d="M0 0 C1.40907283 2.81814566 0.50872691 4.17277204 -0.4375 7.125 C-0.72496094 8.03507812 -1.01242188 8.94515625 -1.30859375 9.8828125 C-1.65083984 10.93082031 -1.65083984 10.93082031 -2 12 C-2.99 12 -3.98 12 -5 12 C-5.33 12.99 -5.66 13.98 -6 15 C-6 13.68 -6 12.36 -6 11 C-5.34 11 -4.68 11 -4 11 C-3.67 8.69 -3.34 6.38 -3 4 C-2.34 4 -1.68 4 -1 4 C-0.67 2.68 -0.34 1.36 0 0 Z " fill="#959595" transform="translate(73,329)"/>
<path d="M0 0 C1.32 0 2.64 0 4 0 C4 1.65 4 3.3 4 5 C4.66 5 5.32 5 6 5 C6.33 7.31 6.66 9.62 7 12 C6.34 12 5.68 12 5 12 C5 11.34 5 10.68 5 10 C2.69 10 0.38 10 -2 10 C-2 9.67 -2 9.34 -2 9 C0.31 9 2.62 9 5 9 C5 8.01 5 7.02 5 6 C4.34 6 3.68 6 3 6 C2.87625 5.38125 2.7525 4.7625 2.625 4.125 C2.12802644 1.80879168 2.12802644 1.80879168 0 0 Z " fill="#747474" transform="translate(67,223)"/>
<path d="M0 0 C2.97 0 5.94 0 9 0 C9 0.99 9 1.98 9 3 C8.113125 2.79375 7.22625 2.5875 6.3125 2.375 C2.7747289 1.97449761 1.13367033 2.43316484 -2 4 C-1.34 2.68 -0.68 1.36 0 0 Z " fill="#959595" transform="translate(370,132)"/>
<path d="M0 0 C3.0831351 1.19899698 6.06279492 2.47700477 9 4 C9 4.99 9 5.98 9 7 C8.34 7 7.68 7 7 7 C7 6.34 7 5.68 7 5 C6.01 5 5.02 5 4 5 C4 4.34 4 3.68 4 3 C2.68 3 1.36 3 0 3 C0 2.01 0 1.02 0 0 Z " fill="#5C5C5C" transform="translate(48,190)"/>
<path d="M0 0 C0.66 0 1.32 0 2 0 C2 0.99 2 1.98 2 3 C4.97 3 7.94 3 11 3 C11 3.33 11 3.66 11 4 C7.37 4.33 3.74 4.66 0 5 C0 3.35 0 1.7 0 0 Z " fill="#717171" transform="translate(341,362)"/>
<path d="M0 0 C1.32 0.33 2.64 0.66 4 1 C-1.14285714 5.42857143 -1.14285714 5.42857143 -5 6 C-5 5.34 -5 4.68 -5 4 C-4.0409375 3.8453125 -4.0409375 3.8453125 -3.0625 3.6875 C-2.381875 3.460625 -1.70125 3.23375 -1 3 C-0.67 2.01 -0.34 1.02 0 0 Z " fill="#4B4B4B" transform="translate(373,402)"/>
</svg>
